<svg width="22" height="22" viewBox="0 0 22 22" fill="none" xmlns="http://www.w3.org/2000/svg">
<path d="M11.4985 0H12.993V2.04755C15.6669 2.06291 18.3386 2.01916 21.0102 2.06291C21.14 2.04577 21.2719 2.05916 21.3959 2.10206C21.5199 2.14495 21.6327 2.21622 21.7257 2.31045C21.8187 2.40467 21.8895 2.51937 21.9327 2.64581C21.9759 2.77226 21.9904 2.90712 21.975 3.04015C22.0173 8.07898 21.965 13.1206 22 18.1594C21.975 18.676 22.05 19.2493 21.7577 19.7067C21.3695 19.9135 20.9313 20.0014 20.4955 19.9599C17.9948 19.9473 15.4942 19.9524 12.9935 19.9524V22H11.4308C7.6275 21.2866 3.81375 20.6342 0.001364 19.9511C-0.000454668 13.9837 -0.000454668 8.01709 0.001364 2.05127C3.8333 1.36581 7.66751 0.698029 11.4985 0Z" fill="#2A5699"/>
<path d="M12.9937 2.81348H21.2396V19.1836H12.9937V17.1361H19.49V16.1123H12.9937V14.8354H19.49V13.8116H12.9937V12.5333H19.49V11.5095H12.9937V10.2312H19.49V9.20742H12.9937V7.9291H19.49V6.90532H12.9937V5.62886H19.49V4.60508H12.9937V2.81348ZM5.16524 7.33298C5.63991 7.30506 6.11504 7.28644 6.58971 7.25899C6.92207 8.98545 7.26171 10.7096 7.62181 12.4281C7.90416 10.6528 8.21697 8.88307 8.51887 7.11054C9.019 7.09286 9.51914 7.06401 10.0161 7.03376C9.45139 9.51223 8.95626 12.013 8.33927 14.4743C7.92189 14.6967 7.29717 14.464 6.80204 14.4999C6.46968 12.8069 6.0823 11.1237 5.78495 9.42288C5.4926 11.0753 5.11295 12.7125 4.77786 14.3556C4.29804 14.3302 3.81654 14.3002 3.33338 14.2658C2.91873 12.0149 2.43132 9.77934 2.04395 7.52331C2.47133 7.50283 2.90099 7.48468 3.32838 7.46933C3.58572 9.09806 3.87807 10.7203 4.10132 12.3523C4.45414 10.6798 4.81378 9.00685 5.16387 7.33391L5.16524 7.33298Z" fill="white"/>
</svg>
