<svg width="22" height="27" viewBox="0 0 22 27" fill="none" xmlns="http://www.w3.org/2000/svg">
<path d="M0.0537109 12.7056V15.005H2.37578L2.30373 13.3231L0.0537109 12.7056Z" fill="#576D7E"/>
<path d="M2.72142 11.2747H1.44511C1.258 11.2675 1.07135 11.2981 0.89636 11.3648C0.721367 11.4314 0.561623 11.5327 0.426694 11.6625C0.291765 11.7924 0.184428 11.9481 0.111109 12.1204C0.0377908 12.2927 0 12.478 0 12.6653C0 12.8525 0.0377908 13.0379 0.111109 13.2102C0.184428 13.3825 0.291765 13.5382 0.426694 13.668C0.561623 13.7979 0.721367 13.8991 0.89636 13.9658C1.07135 14.0324 1.258 14.063 1.44511 14.0558H2.72142C2.73091 14.0559 2.74003 14.0522 2.74692 14.0457C2.75382 14.0392 2.75795 14.0303 2.75848 14.0208V11.3097C2.75795 11.3002 2.75382 11.2913 2.74692 11.2848C2.74003 11.2783 2.73091 11.2747 2.72142 11.2747V11.2747Z" fill="#435460"/>
<path d="M21.9898 6.79329V24.0853C21.9898 24.6859 21.7512 25.2618 21.3265 25.6865C20.9019 26.1112 20.3259 26.3497 19.7253 26.3497H4.46511C3.86455 26.3497 3.28858 26.1112 2.86392 25.6865C2.43926 25.2618 2.20068 24.6859 2.20068 24.0853V2.26443C2.20068 1.66387 2.43926 1.0879 2.86392 0.663236C3.28858 0.238573 3.86455 0 4.46511 0H15.2068L21.9898 6.79329Z" fill="#E5E6E8"/>
<path d="M16.0425 14.7373H2.20068V22.9572H16.0425V14.7373Z" fill="#CDD1D4"/>
<path opacity="0.35" d="M15.2065 5.20604C15.2065 5.8066 15.4451 6.38257 15.8698 6.80723C16.2944 7.23189 16.8704 7.47047 17.471 7.47047H21.9998V6.7932L15.2065 0.68335V5.20604Z" fill="#CDD1D4"/>
<path d="M16.0427 22.2758H1.38771C1.03119 22.2758 0.689274 22.1342 0.437178 21.8821C0.185083 21.63 0.043457 21.2881 0.043457 20.9315L0.0537499 14.0559H16.0427V22.2758Z" fill="#576D7E"/>
<path d="M15.2065 4.52886C15.2065 5.12943 15.4451 5.70539 15.8698 6.13006C16.2944 6.55472 16.8704 6.79329 17.471 6.79329H21.9998L15.2065 0V4.52886Z" fill="#CDD1D4"/>
<path d="M3.72998 20.0897V16.2422H6.58316V16.8927H4.50606V17.747H6.437V18.3955H4.50606V19.4412H6.65521V20.0897H3.72998ZM6.92283 20.0897L8.23826 18.0826L7.04634 16.2422H7.95417L8.72614 17.4773L9.48369 16.2422H10.3833L9.1852 18.1155L10.5006 20.0938H9.56398L8.71173 18.7598L7.85536 20.0897H6.92283ZM10.9 20.0897V16.2422H13.7532V16.8927H11.6781V17.747H13.6091V18.3955H11.6781V19.4412H13.8273V20.0897H10.9Z" fill="white"/>
</svg>
