<svg width="30" height="30" viewBox="0 0 30 30" fill="none" xmlns="http://www.w3.org/2000/svg">
<g filter="url(#filter0_d_325_203)">
<path d="M15 22C21.0751 22 26 17.0751 26 11C26 4.92487 21.0751 0 15 0C8.92487 0 4 4.92487 4 11C4 17.0751 8.92487 22 15 22Z" fill="#A2D4DE"/>
</g>
<path d="M10.4876 10.2465L8.81124 11.1892L10.4876 12.1315C10.7194 12.2619 10.8355 12.4964 10.8355 12.8348C10.8355 13.0498 10.7853 13.2381 10.6852 13.3993C10.5846 13.561 10.4604 13.6416 10.3128 13.6416C10.244 13.6416 10.1752 13.6227 10.1068 13.5841L7.13663 11.9146C6.85158 11.7534 6.70898 11.5116 6.70898 11.1894C6.70898 10.867 6.85158 10.625 7.13663 10.4639L10.1068 8.79432C10.1752 8.75609 10.244 8.73682 10.3128 8.73682C10.4604 8.73682 10.5845 8.81759 10.6852 8.97876C10.7853 9.14031 10.8355 9.32874 10.8355 9.54379C10.8355 9.88161 10.7194 10.1159 10.4876 10.2465Z" fill="#5B4F3F"/>
<path d="M19.1724 9.54331C19.1724 9.32825 19.2226 9.13982 19.3226 8.97827C19.423 8.8171 19.5472 8.73633 19.695 8.73633C19.7638 8.73633 19.8324 8.7556 19.901 8.79383L22.8712 10.4634C23.1562 10.6246 23.2988 10.8664 23.2988 11.1889C23.2988 11.5109 23.1562 11.7529 22.8712 11.9141L19.901 13.5836C19.8324 13.6222 19.7638 13.6411 19.695 13.6411C19.5472 13.6411 19.4232 13.5605 19.3226 13.3988C19.2226 13.2376 19.1724 13.0493 19.1724 12.8343C19.1724 12.4959 19.2882 12.2615 19.5203 12.131L21.1964 11.1887L19.5203 10.2461C19.2882 10.1158 19.1724 9.88149 19.1724 9.54331Z" fill="#5B4F3F"/>
<path d="M15.7658 14.5215C15.6154 14.8494 15.2273 14.9929 14.8997 14.8425C14.5719 14.6921 14.4283 14.3042 14.5787 13.9764L17.563 7.47909C17.7132 7.15117 18.1009 7.0077 18.4287 7.15809C18.7568 7.30849 18.9002 7.69656 18.7497 8.02397L15.7658 14.5215Z" fill="#5B4F3F"/>
<defs>
<filter id="filter0_d_325_203" x="0" y="0" width="30" height="30" filterUnits="userSpaceOnUse" color-interpolation-filters="sRGB">
<feFlood flood-opacity="0" result="BackgroundImageFix"/>
<feColorMatrix in="SourceAlpha" type="matrix" values="0 0 0 0 0 0 0 0 0 0 0 0 0 0 0 0 0 0 127 0" result="hardAlpha"/>
<feOffset dy="4"/>
<feGaussianBlur stdDeviation="2"/>
<feComposite in2="hardAlpha" operator="out"/>
<feColorMatrix type="matrix" values="0 0 0 0 0 0 0 0 0 0 0 0 0 0 0 0 0 0 0.25 0"/>
<feBlend mode="normal" in2="BackgroundImageFix" result="effect1_dropShadow_325_203"/>
<feBlend mode="normal" in="SourceGraphic" in2="effect1_dropShadow_325_203" result="shape"/>
</filter>
</defs>
</svg>
