<svg width="22" height="16" viewBox="0 0 22 16" fill="none" xmlns="http://www.w3.org/2000/svg">
<path d="M20.9443 16H1.05553C0.472499 16 0 15.5273 0 14.9445V1.05567C0 0.472639 0.472639 0 1.05553 0H20.9443C21.5274 0 21.9999 0.472639 21.9999 1.05567V14.9445C21.9999 15.5273 21.5274 16 20.9443 16Z" fill="white"/>
<path d="M20.9448 0H11.0005V16H20.9448C21.5279 16 22.0004 15.5273 22.0004 14.9445V1.05553C22.0004 0.472639 21.5279 0 20.9448 0Z" fill="#D0D1D3"/>
<path d="M16.4336 4.6254C15.9097 4.10143 15.0601 4.10143 14.5362 4.6254L3.25148 15.9101C3.22265 15.9389 3.19593 15.9692 3.17041 15.9999H20.9445C21.5275 15.9999 22 15.5272 22 14.9444V10.192L16.4336 4.6254Z" fill="#477F3C"/>
<path d="M16.4341 4.62544C16.1928 4.38412 15.8822 4.25538 15.5664 4.23633V15.9999H20.9452C21.5282 15.9999 22.0007 15.5273 22.0007 14.9444V10.1921L16.4341 4.62544Z" fill="#2E5E24"/>
<path d="M7.32225 7.14029C6.79828 6.61632 5.94877 6.61632 5.4248 7.14029L0 12.5652V14.9445C0 15.5276 0.472639 16.0001 1.05553 16.0001H16.182L7.32225 7.14029Z" fill="#8BC180"/>
<path d="M7.32221 7.14019C7.05516 6.87314 6.70353 6.74299 6.35352 6.7482V16H16.1821L7.32221 7.14019Z" fill="#6CAF5F"/>
<path d="M7.54488 5.51531C8.64943 5.51531 9.54485 4.61989 9.54485 3.51534C9.54485 2.41079 8.64943 1.51538 7.54488 1.51538C6.44034 1.51538 5.54492 2.41079 5.54492 3.51534C5.54492 4.61989 6.44034 5.51531 7.54488 5.51531Z" fill="#EAA22F"/>
</svg>
