<svg width="20" height="22" viewBox="0 0 20 22" fill="none" xmlns="http://www.w3.org/2000/svg">
<path d="M19.2496 0.922432V21.0776C19.2496 21.3222 19.1549 21.5568 18.9864 21.7298C18.8178 21.9028 18.5892 22 18.3509 22H4.29519C4.05684 22 3.82825 21.9028 3.65971 21.7298C3.49117 21.5568 3.39648 21.3222 3.39648 21.0776V6.89057L8.33935 0H18.3509C18.5892 0 18.8178 0.0971847 18.9864 0.270174C19.1549 0.443164 19.2496 0.677788 19.2496 0.922432Z" fill="#EDEEEF"/>
<path d="M8.34032 0.00927734V5.92668C8.34032 6.17132 8.24563 6.40595 8.07709 6.57894C7.90856 6.75193 7.67997 6.84911 7.44162 6.84911H3.41992L8.34032 0.00927734Z" fill="#CFD0D1"/>
<path d="M13.175 12.6003H0.898703C0.402363 12.6003 0 13.0133 0 13.5228V18.1534C0 18.6628 0.402363 19.0758 0.898703 19.0758H13.175C13.6713 19.0758 14.0737 18.6628 14.0737 18.1534V13.5228C14.0737 13.0133 13.6713 12.6003 13.175 12.6003Z" fill="#FF3717"/>
<path d="M4.56507 16.2116V17.2078H3.7832V14.4728H4.86165C5.07155 14.4612 5.28145 14.4958 5.47726 14.5743C5.61661 14.6391 5.73396 14.745 5.81427 14.8787C5.89555 15.0179 5.93755 15.1776 5.9356 15.3399C5.94087 15.4577 5.92109 15.5752 5.87763 15.6843C5.83418 15.7934 5.76809 15.8915 5.68396 15.9718C5.49665 16.139 5.25336 16.225 5.00544 16.2116H4.56507ZM4.56507 15.6259H4.8257C5.05487 15.6259 5.16721 15.5336 5.16721 15.3537C5.16721 15.1739 5.06385 15.0955 4.85266 15.0955H4.56507V15.6259ZM6.22767 17.2078V14.4728H7.21175C7.3911 14.459 7.5711 14.4885 7.73733 14.5589C7.90355 14.6294 8.05135 14.7389 8.16887 14.8787C8.38059 15.1453 8.4936 15.4802 8.48791 15.8242C8.50688 16.1895 8.38409 16.5477 8.1464 16.8204C8.03357 16.9488 7.89453 17.0501 7.73919 17.1171C7.58385 17.1841 7.41604 17.215 7.2477 17.2078H6.22767ZM7.00955 16.576H7.21175C7.279 16.5748 7.34474 16.5554 7.40234 16.5197C7.45994 16.4841 7.50735 16.4335 7.53978 16.373C7.6339 16.2068 7.67916 16.0162 7.67009 15.8242C7.67361 15.6447 7.63345 15.4671 7.55326 15.3076C7.52177 15.2427 7.47295 15.1883 7.41249 15.1507C7.35203 15.1131 7.28241 15.094 7.21175 15.0955H7.00955V16.576ZM10.4066 16.1839H9.57983V17.2078H8.82043V14.4728H10.6583V15.1231H9.57983V15.5843H10.4066V16.1839Z" fill="#EDEEEF"/>
</svg>
