<svg width="22" height="22" viewBox="0 0 22 22" fill="none" xmlns="http://www.w3.org/2000/svg">
<path d="M11.5753 0H12.9923V2.30235C15.6642 2.3177 18.3384 2.27411 21.0077 2.31504C21.5825 2.25876 22.0324 2.71656 21.975 3.30494C22.0174 8.08359 21.965 12.8647 22 17.646C21.975 18.1628 22.05 18.7358 21.7601 19.1936C21.3952 19.4648 20.9203 19.4289 20.4928 19.4494C17.9935 19.4367 15.4942 19.4418 12.9923 19.4418V22H11.438C7.62902 21.2888 3.81249 20.6391 0.00115523 19.9535C-0.00144404 13.9854 0.00115523 8.01708 0.00115523 2.05144C3.85728 1.36872 7.7138 0.672899 11.5753 0Z" fill="#D24625"/>
<path d="M12.9919 3.07007H21.2396V18.6749H12.9919V16.6283H18.9903V15.6051H12.9919V14.326H18.9903V13.3027H12.9945C12.9919 12.8013 12.9919 12.2999 12.9897 11.7985C13.9795 12.1131 15.1066 12.1055 15.9913 11.4965C16.9486 10.9159 17.4485 9.80807 17.5309 8.70294C16.4338 8.69516 15.3365 8.69782 14.2418 8.69782C14.2394 7.58492 14.2542 6.47222 14.2194 5.36198C13.8095 5.44384 13.3996 5.53082 12.9921 5.62025V3.07007H12.9919Z" fill="white"/>
<path d="M14.7444 4.82739C16.4815 4.90925 17.9409 6.40568 18.0335 8.17859C16.9362 8.19148 15.8391 8.18636 14.7418 8.18636C14.7418 7.06589 14.7394 5.94541 14.7444 4.82739Z" fill="#D24625"/>
<path d="M4.01014 6.75885C5.36736 6.82536 7.0119 6.20874 8.13658 7.25001C9.21388 8.58804 8.92896 11.0488 7.33181 11.8498C6.76456 12.1463 6.11475 12.1056 5.49732 12.0849C5.49472 13.0853 5.49252 14.0854 5.49472 15.0858C4.99911 15.0417 4.50338 14.9991 4.00754 14.9579C3.98514 12.2255 3.98034 9.49097 4.01014 6.75885Z" fill="white"/>
<path d="M5.49484 8.1427C5.9873 8.11958 6.59713 8.02769 6.92964 8.50084C7.21456 9.00224 7.19957 9.66225 6.96203 10.179C6.67711 10.706 6.03229 10.6548 5.53483 10.7162C5.48225 9.85913 5.48744 9.00204 5.49484 8.1427Z" fill="#D24625"/>
</svg>
