<svg width="22" height="22" viewBox="0 0 22 22" fill="none" xmlns="http://www.w3.org/2000/svg">
<path d="M2.78782 10.4155C5.42439 11.075 8.20585 11.3925 11 11.3528C13.7942 11.3922 16.5757 11.0745 19.2122 10.4147C21.2702 9.84347 22 9.20862 22 8.84326V6.05005C21.2805 6.39295 20.5086 6.67658 19.6991 6.89548C16.9096 7.60631 13.9626 7.95287 11 7.91847C8.03767 7.95222 5.09099 7.60623 2.30091 6.89705C1.49103 6.67813 0.719034 6.39395 0 6.05005V8.83933C0 9.21176 0.732009 9.84347 2.78782 10.4155Z" fill="#FFDA44"/>
<path d="M2.78782 15.6834C3.71923 15.9362 4.6797 16.131 5.65844 16.2657C7.41839 16.508 9.20743 16.6272 11 16.6216C12.7925 16.6274 14.5816 16.5085 16.3416 16.2664C17.3203 16.1318 18.2808 15.937 19.2122 15.6842C21.2702 15.113 22 14.4782 22 14.1128V11.4492C21.4052 11.7039 20.7801 11.9208 20.1319 12.0975C17.2014 12.8358 14.1082 13.1933 11 13.1527C7.89144 13.192 4.79826 12.8332 1.86811 12.0935C1.22015 11.9165 0.595084 11.6996 0 11.4453V14.1112C0 14.4774 0.732009 15.1099 2.78782 15.6834Z" fill="#FFDA44"/>
<path d="M11 22.0001C17.0725 22.0001 22 20.6298 22 18.9405V16.7114C21.4589 16.9435 20.8921 17.1438 20.3052 17.3101L20.1319 17.3596C17.202 18.1002 14.1088 18.4598 11 18.4211C7.89112 18.4609 4.79764 18.1013 1.86811 17.3596C1.80849 17.3439 1.75108 17.3259 1.69477 17.3101C1.10787 17.1438 0.541056 16.9435 0 16.7114V18.9405C0 20.6298 4.92753 22.0001 11 22.0001Z" fill="#FFDA44"/>
<path d="M11 6.11913C17.0751 6.11913 22 4.74932 22 3.05957C22 1.36981 17.0751 0 11 0C4.92487 0 0 1.36981 0 3.05957C0 4.74932 4.92487 6.11913 11 6.11913Z" fill="#FFDA44"/>
</svg>
