<svg width="22" height="27" viewBox="0 0 22 27" fill="none" xmlns="http://www.w3.org/2000/svg">
<path d="M21.5709 7.62989L14.9709 1.02989C14.7062 0.764425 14.3388 0.600158 13.9333 0.600158C13.1237 0.600158 12.4673 1.25723 12.4666 2.06609C12.4666 2.47089 12.6309 2.83829 12.8963 3.10376L10.0664 5.93369L16.6664 12.5337L19.4963 9.70376C19.7618 9.96923 20.1285 10.1335 20.5333 10.1335C21.3429 10.1335 22.0007 9.47643 21.9999 8.66683C21.9999 8.26129 21.8357 7.89536 21.5709 7.62989Z" fill="#E1E8ED"/>
<path d="M13.9333 0.600002H2.93333C1.3134 0.600002 0 1.9134 0 3.53333V24.0667C0 25.6866 1.3134 27 2.93333 27H19.0667C20.6866 27 22 25.6866 22 24.0667V8.66667H15.4C14.6667 8.66667 13.9333 7.93333 13.9333 7.2V0.600002Z" fill="#CCD6DD"/>
<path d="M13.9335 0.599968H12.4668V7.19997C12.4668 8.8199 13.7802 10.1333 15.4001 10.1333H22.0001V8.66663H15.4001C14.6668 8.66663 13.9335 7.9333 13.9335 7.19997V0.599968Z" fill="#99AAB5"/>
<path d="M10.2664 6.46662C10.2664 6.87142 9.9379 7.19995 9.5331 7.19995H3.66644C3.26164 7.19995 2.93311 6.87142 2.93311 6.46662C2.93311 6.06182 3.26164 5.73328 3.66644 5.73328H9.5331C9.9379 5.73328 10.2664 6.06182 10.2664 6.46662Z" fill="#99AAB5"/>
<path d="M10.2664 9.39997C10.2664 9.80477 9.9379 10.1333 9.5331 10.1333H3.66644C3.26164 10.1333 2.93311 9.80477 2.93311 9.39997C2.93311 8.99517 3.26164 8.66663 3.66644 8.66663H9.5331C9.9379 8.66663 10.2664 8.99517 10.2664 9.39997Z" fill="#99AAB5"/>
<path d="M19.0664 12.3333C19.0664 12.7381 18.7386 13.0667 18.3331 13.0667H3.66644C3.26164 13.0667 2.93311 12.7381 2.93311 12.3333C2.93311 11.9285 3.26164 11.6 3.66644 11.6H18.3331C18.7386 11.6 19.0664 11.9285 19.0664 12.3333Z" fill="#99AAB5"/>
<path d="M19.0664 15.2667C19.0664 15.6722 18.7386 16 18.3331 16H3.66644C3.26164 16 2.93311 15.6722 2.93311 15.2667C2.93311 14.8611 3.26164 14.5333 3.66644 14.5333H18.3331C18.7386 14.5333 19.0664 14.8611 19.0664 15.2667Z" fill="#99AAB5"/>
<path d="M19.0664 18.2C19.0664 18.6055 18.7386 18.9333 18.3331 18.9333H3.66644C3.26164 18.9333 2.93311 18.6055 2.93311 18.2C2.93311 17.7945 3.26164 17.4667 3.66644 17.4667H18.3331C18.7386 17.4667 19.0664 17.7945 19.0664 18.2Z" fill="#99AAB5"/>
<path d="M19.0664 21.1334C19.0664 21.5389 18.7386 21.8667 18.3331 21.8667H3.66644C3.26164 21.8667 2.93311 21.5389 2.93311 21.1334C2.93311 20.7278 3.26164 20.4 3.66644 20.4H18.3331C18.7386 20.4 19.0664 20.7278 19.0664 21.1334Z" fill="#99AAB5"/>
</svg>
