<svg width="22" height="29" viewBox="0 0 22 29" fill="none" xmlns="http://www.w3.org/2000/svg">
<path d="M21.8535 7.2915L14.7085 0.1465C14.6148 0.0527253 14.4876 2.83187e-05 14.355 0H2C1.46957 0 0.960859 0.210714 0.585786 0.585786C0.210714 0.960859 0 1.46957 0 2V27C0 27.5304 0.210714 28.0391 0.585786 28.4142C0.960859 28.7893 1.46957 29 2 29H20C20.5304 29 21.0391 28.7893 21.4142 28.4142C21.7893 28.0391 22 27.5304 22 27V7.645C22 7.5124 21.9473 7.38525 21.8535 7.2915Z" fill="#EDEDED"/>
<path d="M21.8535 7.29139L14.7085 0.146393C14.6386 0.0764887 14.5495 0.0288855 14.4525 0.00960174C14.3555 -0.00968204 14.255 0.000219475 14.1637 0.0380545C14.0723 0.0758895 13.9942 0.139959 13.9393 0.222164C13.8843 0.304369 13.855 0.401018 13.855 0.499893V6.14489C13.855 6.67533 14.0657 7.18403 14.4408 7.55911C14.8158 7.93418 15.3245 8.14489 15.855 8.14489H21.5C21.5989 8.14487 21.6955 8.11554 21.7777 8.06059C21.8599 8.00565 21.924 7.92757 21.9618 7.83622C21.9997 7.74487 22.0096 7.64435 21.9903 7.54738C21.971 7.4504 21.9234 7.36132 21.8535 7.29139V7.29139Z" fill="#C6C6C6"/>
</svg>
