<svg width="22" height="22" viewBox="0 0 22 22" fill="none" xmlns="http://www.w3.org/2000/svg">
<path d="M4.04452 0C3.41153 0 2.89844 0.492468 2.89844 1.10001V20.9001C2.89844 21.5077 3.41153 22.0002 4.04452 22.0002H20.8538C21.4868 22.0002 21.9999 21.5077 21.9999 20.9001V3.66668L18.1796 0H4.04452Z" fill="#ECEDEF"/>
<path d="M19.3258 3.66668H22L18.1797 0V2.56667C18.1797 3.17421 18.6928 3.66668 19.3258 3.66668Z" fill="#D9DCDF"/>
<path d="M17.4155 1.83325H2.89844V8.4333H17.4155C17.6265 8.4333 17.7976 8.26911 17.7976 8.06664V2.19991C17.7976 1.99739 17.6265 1.83325 17.4155 1.83325Z" fill="#C6CACF"/>
<path d="M16.6518 7.70014H0.382798C0.0424637 7.70014 -0.128017 7.30521 0.112662 7.07421L2.89872 4.40012L0.112662 1.72603C-0.128017 1.49503 0.0424637 1.1001 0.382798 1.1001H16.6518C16.8628 1.1001 17.0338 1.26428 17.0338 1.46675V7.33345C17.0338 7.53596 16.8628 7.70014 16.6518 7.70014Z" fill="#FFC44F"/>
<path d="M8.24725 5.49982H7.15274L8.54072 3.90124C8.63558 3.79193 8.65608 3.63982 8.59323 3.51095C8.53033 3.38213 8.39548 3.2998 8.24725 3.2998H6.3371C6.1261 3.2998 5.95508 3.46399 5.95508 3.66646C5.95508 3.86893 6.12615 4.03311 6.3371 4.03311H7.43161L6.04364 5.63169C5.94877 5.74101 5.92827 5.89312 5.99112 6.02198C6.05402 6.1508 6.18887 6.23313 6.3371 6.23313H8.24725C8.45825 6.23313 8.62927 6.06895 8.62927 5.86648C8.62927 5.66401 8.45821 5.49982 8.24725 5.49982Z" fill="white"/>
<path d="M9.39373 3.2998C9.18274 3.2998 9.01172 3.46399 9.01172 3.66646V5.86648C9.01172 6.06899 9.18278 6.23313 9.39373 6.23313C9.60473 6.23313 9.77575 6.06895 9.77575 5.86648V3.66646C9.77575 3.46399 9.60468 3.2998 9.39373 3.2998Z" fill="white"/>
<path d="M12.0678 3.2998H10.5397C10.3287 3.2998 10.1577 3.46399 10.1577 3.66646V5.86648C10.1577 6.06899 10.3288 6.23313 10.5397 6.23313C10.7507 6.23313 10.9217 6.06895 10.9217 5.86648V5.13312H12.0678C12.2788 5.13312 12.4498 4.96894 12.4498 4.76647V3.66646C12.4499 3.46399 12.2788 3.2998 12.0678 3.2998ZM11.6858 4.39981H10.9217V4.03316H11.6858V4.39981Z" fill="white"/>
<path d="M18.1794 14.3C18.0931 14.3 18.0064 14.2721 17.935 14.215L15.6429 12.3817C15.5557 12.312 15.5054 12.2088 15.5054 12.1C15.5054 11.9911 15.5557 11.8879 15.6429 11.8182L17.935 9.98489C18.0971 9.85525 18.338 9.8763 18.4731 10.0318C18.6082 10.1874 18.5862 10.4186 18.4242 10.5483L16.4842 12.1L18.4241 13.6516C18.5862 13.7813 18.6082 14.0125 18.473 14.1681C18.3975 14.2551 18.2888 14.3 18.1794 14.3Z" fill="#A1A7AF"/>
<path d="M13.5964 13.567C13.3854 13.567 13.2144 13.4028 13.2144 13.2003V12.1003C13.2144 11.8978 13.3854 11.7336 13.5964 11.7336C13.8073 11.7336 13.9784 11.8978 13.9784 12.1003V13.2003C13.9784 13.4028 13.8073 13.567 13.5964 13.567Z" fill="#55606E"/>
<path d="M15.8885 11.7336H15.1244V11.0002C15.1244 10.7977 14.9533 10.6335 14.7424 10.6335C14.5314 10.6335 14.3604 10.7977 14.3604 11.0002V11.7336H12.8323V11.0002C12.8323 10.7977 12.6612 10.6335 12.4502 10.6335C12.2393 10.6335 12.0682 10.7977 12.0682 11.0002V11.7336H10.5401V11.0002C10.5401 10.7977 10.3691 10.6335 10.1581 10.6335C9.94712 10.6335 9.7761 10.7977 9.7761 11.0002V11.7336H8.248V11.0002C8.248 10.7977 8.07694 10.6335 7.86599 10.6335C7.65499 10.6335 7.48398 10.7977 7.48398 11.0002V11.7336H6.7199C6.50891 11.7336 6.33789 11.8977 6.33789 12.1002C6.33789 12.3027 6.50895 12.4669 6.7199 12.4669H8.63006V13.2002C8.63006 13.4027 8.80113 13.5669 9.01208 13.5669C9.22307 13.5669 9.39409 13.4027 9.39409 13.2002V12.4669H10.9222V13.2002C10.9222 13.4027 11.0933 13.5669 11.3042 13.5669C11.5152 13.5669 11.6862 13.4027 11.6862 13.2002V12.4669H15.8885C16.0995 12.4669 16.2706 12.3027 16.2706 12.1002C16.2705 11.8977 16.0994 11.7336 15.8885 11.7336Z" fill="#55606E"/>
<path d="M15.8884 15.0105C15.6906 15.0105 15.5303 14.8566 15.5303 14.6668V12.1001C15.5303 11.9103 15.6906 11.7563 15.8884 11.7563C16.0863 11.7563 16.2466 11.9103 16.2466 12.1001V14.6668C16.2466 14.8566 16.0863 15.0105 15.8884 15.0105Z" fill="#55606E"/>
<path d="M14.4713 15.6595L15.6173 14.5595C15.7665 14.4164 16.0084 14.4164 16.1576 14.5595L17.3037 15.6595C17.3753 15.7283 17.4156 15.8216 17.4156 15.9188V19.8003C17.4156 20.0028 17.2445 20.1669 17.0336 20.1669H14.7414C14.5304 20.1669 14.3594 20.0028 14.3594 19.8003V15.9188C14.3594 15.8216 14.3996 15.7283 14.4713 15.6595Z" fill="#F79F4D"/>
<path d="M14.7417 19.8001V15.9186L15.8878 14.8186L17.0339 15.9186V19.8001H14.7417Z" fill="#FFC44F"/>
<path d="M15.8879 19.4104C15.6901 19.4104 15.5298 19.2564 15.5298 19.0666V18.3333C15.5298 18.1434 15.6901 17.9895 15.8879 17.9895C16.0858 17.9895 16.2461 18.1434 16.2461 18.3333V19.0666C16.2461 19.2564 16.0858 19.4104 15.8879 19.4104Z" fill="#BF722A"/>
<path d="M15.8879 17.2104C15.6901 17.2104 15.5298 17.0565 15.5298 16.8667V16.1333C15.5298 15.9435 15.6901 15.7896 15.8879 15.7896C16.0858 15.7896 16.2461 15.9435 16.2461 16.1333V16.8667C16.2461 17.0565 16.0858 17.2104 15.8879 17.2104Z" fill="#BF722A"/>
</svg>
