<svg width="638" height="502" viewBox="0 0 638 502" fill="none" xmlns="http://www.w3.org/2000/svg">
<g clip-path="url(#clip0_7_313)">
<path d="M116.324 59.2085C115.125 59.3405 113.97 59.7331 112.94 60.3588C111.91 60.9844 111.029 61.8278 110.361 62.8295C109.693 63.8313 109.253 64.9671 109.072 66.1568C108.892 67.3465 108.975 68.5613 109.315 69.7156L85.4636 86.7218L99.6812 92.181L120.152 75.1947C122.057 74.4949 123.639 73.1221 124.598 71.3363C125.557 69.5505 125.826 67.4757 125.354 65.5052C124.882 63.5347 123.703 61.8054 122.038 60.6449C120.374 59.4843 118.341 58.9733 116.324 59.2085L116.324 59.2085Z" fill="#FFB8B8"/>
<path d="M114.106 84.8244L84.5197 114.527C80.4651 118.571 75.1185 121.071 69.4089 121.591L32.8504 124.919C31.5101 125.046 30.1578 124.905 28.8734 124.502C27.589 124.099 26.3985 123.444 25.3724 122.574C23.9527 121.388 22.897 119.827 22.3265 118.07C21.7561 116.313 21.6941 114.43 22.1476 112.639C22.6011 110.848 23.5517 109.221 24.8903 107.945C26.2289 106.669 27.9011 105.796 29.7148 105.425L67.0634 97.4904L101.067 72.4814C101.539 72.216 102.073 72.0784 102.616 72.0825C103.158 72.0865 103.69 72.232 104.159 72.5044L113.406 80.0626C113.962 80.3668 114.409 80.8372 114.684 81.4077C114.959 81.9782 115.048 82.6203 114.938 83.2438C114.83 83.8436 114.54 84.3955 114.106 84.8244Z" fill="#2F2E41"/>
<path d="M468.823 100.787C469.043 98.7594 468.632 96.7133 467.646 94.9267C466.66 93.1402 465.147 91.6999 463.312 90.8016L279.186 1.00988C278.015 0.438313 276.743 0.102448 275.442 0.0214729C274.141 -0.0595026 272.837 0.11599 271.604 0.537933C270.371 0.959876 269.233 1.62001 268.256 2.48064C267.279 3.34126 266.481 4.38552 265.908 5.5538L265.905 5.5607L196.846 146.541C195.693 148.903 195.526 151.624 196.381 154.108C197.236 156.592 199.043 158.637 201.407 159.793L385.532 249.585C387.899 250.735 390.626 250.902 393.116 250.049C395.605 249.196 397.654 247.392 398.814 245.034L467.873 104.054C468.377 103.028 468.699 101.923 468.823 100.787Z" fill="#F2F2F2"/>
<path d="M360.955 413.694H122.043C119.035 413.691 116.152 412.497 114.025 410.375C111.898 408.253 110.701 405.375 110.698 402.374V78.7639C110.701 75.7628 111.898 72.8855 114.025 70.7634C116.152 68.6413 119.035 67.4476 122.043 67.4442H360.955C363.963 67.4476 366.847 68.6413 368.974 70.7634C371.101 72.8855 372.297 75.7628 372.3 78.7639V402.374C372.297 405.375 371.101 408.253 368.974 410.375C366.847 412.497 363.963 413.691 360.955 413.694Z" fill="white"/>
<path d="M185.411 163.942C194.019 163.942 200.998 156.979 200.998 148.39C200.998 139.8 194.019 132.837 185.411 132.837C176.802 132.837 169.824 139.8 169.824 148.39C169.824 156.979 176.802 163.942 185.411 163.942Z" fill="#E6E6E6"/>
<path d="M161.654 190.896C163.856 192.145 166.162 193.205 168.544 194.064L168.965 194.21C173.764 195.891 178.815 196.747 183.901 196.741C184.925 196.741 185.911 196.705 186.832 196.636C189.073 196.499 191.301 196.192 193.496 195.719C194.7 195.456 195.901 195.142 197.063 194.786C197.344 194.704 197.604 194.622 197.889 194.533C202.623 193.002 207.073 190.701 211.057 187.725C210.737 187.121 210.387 186.534 210.008 185.966C207.959 182.842 205.162 180.278 201.87 178.505C198.578 176.732 194.894 175.806 191.153 175.811H182.95C178.622 175.812 174.387 177.053 170.747 179.388C167.107 181.723 164.217 185.052 162.419 188.979C162.132 189.605 161.877 190.245 161.654 190.896Z" fill="#E6E6E6"/>
<path d="M190.7 195.332C190.177 195.37 189.673 195.547 189.24 195.843C191.439 195.706 193.625 195.403 195.779 194.937L190.7 195.332Z" fill="#2F2E41"/>
<path d="M186.356 106.186C176.317 106.187 166.559 109.494 158.597 115.595C150.635 121.695 144.913 130.248 142.321 139.925C139.729 149.602 140.411 159.862 144.262 169.112C148.112 178.363 154.915 186.087 163.615 191.085C165.924 192.419 168.349 193.545 170.859 194.449L171.285 194.596C176.128 196.293 181.224 197.156 186.356 197.15C187.348 197.15 188.341 197.118 189.317 197.044C191.577 196.905 193.823 196.596 196.036 196.119C197.275 195.849 198.489 195.53 199.637 195.178C199.916 195.096 200.179 195.014 200.466 194.924C210.784 191.571 219.564 184.655 225.229 175.421C230.895 166.187 233.073 155.239 231.372 144.545C229.672 133.852 224.205 124.115 215.953 117.083C207.702 110.052 197.207 106.188 186.356 106.186L186.356 106.186ZM212.804 185.74C208.872 188.768 204.445 191.096 199.72 192.624C199.465 192.706 199.202 192.787 198.94 192.869C197.849 193.205 196.7 193.499 195.519 193.753C193.426 194.209 191.3 194.505 189.161 194.637C188.234 194.703 187.291 194.735 186.356 194.735C181.498 194.738 176.674 193.922 172.089 192.321L171.687 192.182C169.191 191.286 166.784 190.157 164.501 188.809C156.548 184.138 150.306 177.044 146.694 168.57C143.081 160.097 142.287 150.691 144.429 141.734C146.571 132.777 151.536 124.742 158.594 118.81C165.652 112.877 174.432 109.359 183.642 108.774C192.852 108.189 202.007 110.567 209.763 115.558C217.518 120.549 223.465 127.891 226.728 136.504C229.992 145.118 230.401 154.548 227.894 163.41C225.388 172.273 220.099 180.099 212.804 185.74V185.74Z" fill="#CCCCCC"/>
<path d="M360.955 413.694H122.043C119.035 413.691 116.152 412.497 114.025 410.375C111.898 408.253 110.701 405.375 110.698 402.374V78.7639C110.701 75.7628 111.898 72.8855 114.025 70.7634C116.152 68.6413 119.035 67.4476 122.043 67.4442H360.955C363.963 67.4476 366.847 68.6413 368.974 70.7634C371.101 72.8855 372.297 75.7628 372.3 78.7639V402.374C372.297 405.375 371.101 408.253 368.974 410.375C366.847 412.497 363.963 413.691 360.955 413.694ZM122.043 68.7759C119.389 68.7789 116.845 69.8322 114.968 71.7047C113.091 73.5771 112.036 76.1159 112.033 78.7639V402.374C112.036 405.022 113.091 407.561 114.968 409.434C116.845 411.306 119.389 412.359 122.043 412.362H360.955C363.609 412.359 366.154 411.306 368.03 409.434C369.907 407.561 370.963 405.022 370.966 402.374V78.7639C370.963 76.1159 369.907 73.5771 368.03 71.7047C366.154 69.8322 363.609 68.7789 360.955 68.7759L122.043 68.7759Z" fill="#CCCCCC"/>
<path d="M314.705 151.492H247.101C245.682 151.492 244.322 150.93 243.319 149.929C242.316 148.929 241.753 147.571 241.753 146.156C241.753 144.741 242.316 143.383 243.319 142.383C244.322 141.382 245.682 140.82 247.101 140.82H314.705C316.123 140.82 317.483 141.382 318.486 142.383C319.489 143.383 320.053 144.741 320.053 146.156C320.053 147.571 319.489 148.929 318.486 149.929C317.483 150.93 316.123 151.492 314.705 151.492Z" fill="#E6E6E6"/>
<path d="M336.766 169.502H247.101C245.682 169.502 244.322 168.94 243.319 167.939C242.316 166.939 241.753 165.581 241.753 164.166C241.753 162.751 242.316 161.394 243.319 160.393C244.322 159.392 245.682 158.83 247.101 158.83H336.766C338.185 158.83 339.545 159.392 340.548 160.393C341.551 161.394 342.114 162.751 342.114 164.166C342.114 165.581 341.551 166.939 340.548 167.939C339.545 168.94 338.185 169.502 336.766 169.502Z" fill="#E6E6E6"/>
<path d="M314.606 238.579H146.232C144.814 238.579 143.453 238.016 142.45 237.016C141.447 236.015 140.884 234.657 140.884 233.242C140.884 231.827 141.447 230.47 142.45 229.469C143.453 228.468 144.814 227.906 146.232 227.906H314.606C316.025 227.906 317.385 228.468 318.388 229.469C319.391 230.47 319.955 231.827 319.955 233.242C319.955 234.657 319.391 236.015 318.388 237.016C317.385 238.016 316.025 238.579 314.606 238.579Z" fill="#E6E6E6"/>
<path d="M336.668 256.589H146.232C144.814 256.589 143.453 256.026 142.45 255.026C141.447 254.025 140.884 252.668 140.884 251.252C140.884 249.837 141.447 248.48 142.45 247.479C143.453 246.478 144.814 245.916 146.232 245.916H336.668C338.086 245.916 339.447 246.478 340.45 247.479C341.453 248.48 342.016 249.837 342.016 251.252C342.016 252.668 341.453 254.025 340.45 255.026C339.447 256.026 338.086 256.589 336.668 256.589Z" fill="#E6E6E6"/>
<path d="M314.606 297.983H146.232C144.814 297.983 143.453 297.42 142.45 296.42C141.447 295.419 140.884 294.062 140.884 292.646C140.884 291.231 141.447 289.874 142.45 288.873C143.453 287.872 144.814 287.31 146.232 287.31H314.606C316.025 287.31 317.385 287.872 318.388 288.873C319.391 289.874 319.955 291.231 319.955 292.646C319.955 294.062 319.391 295.419 318.388 296.42C317.385 297.42 316.025 297.983 314.606 297.983Z" fill="#E6E6E6"/>
<path d="M336.668 315.993H146.232C144.814 315.993 143.453 315.43 142.45 314.43C141.447 313.429 140.884 312.072 140.884 310.656C140.884 309.241 141.447 307.884 142.45 306.883C143.453 305.882 144.814 305.32 146.232 305.32H336.668C338.086 305.32 339.447 305.882 340.45 306.883C341.453 307.884 342.016 309.241 342.016 310.656C342.016 312.072 341.453 313.429 340.45 314.43C339.447 315.43 338.086 315.993 336.668 315.993Z" fill="#E6E6E6"/>
<path d="M314.606 357.387H146.232C144.814 357.387 143.453 356.825 142.45 355.824C141.447 354.823 140.884 353.466 140.884 352.051C140.884 350.635 141.447 349.278 142.45 348.277C143.453 347.276 144.814 346.714 146.232 346.714H314.606C316.025 346.714 317.385 347.276 318.388 348.277C319.391 349.278 319.955 350.635 319.955 352.051C319.955 353.466 319.391 354.823 318.388 355.824C317.385 356.825 316.025 357.387 314.606 357.387Z" fill="#E6E6E6"/>
<path d="M336.668 375.397H146.232C144.814 375.397 143.453 374.835 142.45 373.834C141.447 372.833 140.884 371.476 140.884 370.06C140.884 368.645 141.447 367.288 142.45 366.287C143.453 365.286 144.814 364.724 146.232 364.724H336.668C338.085 364.726 339.444 365.289 340.445 366.289C341.447 367.29 342.009 368.646 342.009 370.06C342.009 371.475 341.447 372.831 340.445 373.831C339.444 374.832 338.085 375.395 336.668 375.397Z" fill="#E6E6E6"/>
<path d="M460.619 193.282C460.839 191.255 460.428 189.209 459.442 187.422C458.456 185.635 456.943 184.195 455.108 183.297L270.983 93.5052C269.812 92.9336 268.539 92.5977 267.238 92.5168C265.937 92.4358 264.633 92.6113 263.4 93.0332C262.167 93.4552 261.03 94.1153 260.052 94.9759C259.075 95.8365 258.277 96.8808 257.704 98.0491L257.701 98.056L188.642 239.037C187.489 241.398 187.322 244.119 188.177 246.603C189.032 249.087 190.839 251.132 193.203 252.289L377.328 342.08C379.695 343.23 382.422 343.397 384.912 342.544C387.402 341.691 389.451 339.888 390.61 337.53L459.669 196.549C460.173 195.523 460.495 194.418 460.619 193.282Z" fill="white"/>
<path d="M460.619 193.282C460.839 191.255 460.428 189.209 459.442 187.422C458.456 185.635 456.943 184.195 455.108 183.297L270.983 93.5052C269.812 92.9336 268.539 92.5977 267.238 92.5168C265.937 92.4358 264.633 92.6113 263.4 93.0332C262.167 93.4552 261.03 94.1153 260.052 94.9759C259.075 95.8365 258.277 96.8808 257.704 98.0491L257.701 98.056L188.642 239.037C187.489 241.398 187.322 244.119 188.177 246.603C189.032 249.087 190.839 251.132 193.203 252.289L377.328 342.08C379.695 343.23 382.422 343.397 384.912 342.544C387.402 341.691 389.451 339.888 390.61 337.53L459.669 196.549C460.173 195.523 460.495 194.418 460.619 193.282ZM389.56 337.018C388.538 339.099 386.73 340.69 384.533 341.443C382.336 342.196 379.929 342.048 377.841 341.033L193.716 251.241C191.63 250.221 190.035 248.417 189.281 246.225C188.526 244.033 188.674 241.632 189.691 239.548L258.75 98.5679C259.773 96.4868 261.581 94.8954 263.778 94.1426C265.975 93.3898 268.381 93.5372 270.47 94.5524L454.595 184.344C456.681 185.364 458.276 187.168 459.03 189.36C459.785 191.553 459.637 193.954 458.619 196.037L389.56 337.018Z" fill="#3F3D56"/>
<path d="M440.536 199.693L392.315 298.135C391.993 298.792 391.423 299.295 390.73 299.533C390.036 299.771 389.277 299.724 388.618 299.403H388.618L221.131 217.725C221.012 217.668 220.897 217.601 220.789 217.524C220.24 217.151 219.843 216.593 219.673 215.952C219.503 215.312 219.57 214.631 219.861 214.035L268.083 115.593C268.242 115.268 268.464 114.977 268.736 114.737C269.008 114.497 269.325 114.313 269.668 114.195C270.011 114.078 270.374 114.028 270.737 114.051C271.099 114.073 271.453 114.166 271.779 114.325L439.266 196.003C439.925 196.324 440.429 196.893 440.667 197.584C440.906 198.276 440.859 199.034 440.537 199.691V199.691L440.536 199.693Z" fill="#E6E6E6"/>
<path d="M293.495 194.693C306.891 194.693 317.75 183.858 317.75 170.492C317.75 157.126 306.891 146.29 293.495 146.29C280.099 146.29 269.239 157.126 269.239 170.492C269.239 183.858 280.099 194.693 293.495 194.693Z" fill="#C850C0"/>
<path d="M329.01 270.823L222.105 218.689C221.97 218.625 221.841 218.55 221.721 218.462L315.087 155.735C315.662 155.342 316.331 155.107 317.027 155.056C317.723 155.005 318.42 155.139 319.046 155.445C319.673 155.751 320.207 156.217 320.594 156.796C320.981 157.375 321.207 158.046 321.249 158.741L326.457 233.93L326.708 237.529L329.01 270.823Z" fill="#3F3D56"/>
<path opacity="0.2" d="M329.01 270.823L292.51 253.023L323.148 235.793L325.354 234.552L326.457 233.93L326.708 237.529L329.01 270.823Z" fill="black"/>
<path d="M388.534 299.851L296.07 254.759L326.708 237.529L328.914 236.287L368.839 213.832C371.456 212.36 375.207 214.018 376.057 216.833C376.113 217.024 376.157 217.219 376.188 217.416L388.534 299.851Z" fill="#3F3D56"/>
<path d="M103.239 308.443L113.296 308.442L118.081 269.735L103.236 269.736L103.239 308.443Z" fill="#FFB8B8"/>
<path d="M100.673 305.167L120.48 305.166H120.481C122.138 305.166 123.78 305.492 125.311 306.125C126.843 306.758 128.234 307.685 129.406 308.855C130.578 310.024 131.508 311.413 132.142 312.941C132.777 314.469 133.103 316.106 133.103 317.76V318.17L100.674 318.171L100.673 305.167Z" fill="#2F2E41"/>
<path d="M25.0632 302.054L35.4835 304.087L48.3043 264.952L32.9256 261.951L25.0632 302.054Z" fill="#FFB8B8"/>
<path d="M23.071 298.14L43.5921 302.145L43.5929 302.145C45.3103 302.481 46.9447 303.15 48.4028 304.116C49.8609 305.081 51.1141 306.324 52.0909 307.772C53.0677 309.221 53.7489 310.848 54.0957 312.559C54.4424 314.27 54.448 316.033 54.1119 317.747L54.0288 318.171L20.4298 311.613L23.071 298.14Z" fill="#2F2E41"/>
<path d="M117.871 174.922C117.53 173.767 116.94 172.701 116.142 171.799C115.344 170.897 114.358 170.18 113.252 169.7C112.147 169.219 110.949 168.986 109.743 169.017C108.537 169.048 107.353 169.343 106.274 169.88L85.3103 149.434L82.4178 164.357L102.769 181.486C103.794 183.235 105.426 184.548 107.356 185.177C109.286 185.805 111.381 185.706 113.242 184.897C115.104 184.087 116.603 182.625 117.456 180.787C118.309 178.948 118.457 176.861 117.871 174.922Z" fill="#FFB8B8"/>
<path d="M40.0923 69.68C51.2204 69.68 60.2415 60.679 60.2415 49.5757C60.2415 38.4725 51.2204 29.4715 40.0923 29.4715C28.9642 29.4715 19.9431 38.4725 19.9431 49.5757C19.9431 60.679 28.9642 69.68 40.0923 69.68Z" fill="#FFB8B8"/>
<path d="M35.8612 69.9877C36.9318 70.4551 39.1241 61.9436 38.142 60.2412C36.6816 57.7095 36.7679 57.7277 35.7984 56.0528C34.8289 54.3778 34.612 52.0852 35.8675 50.6114C37.1229 49.1376 40.0284 49.3331 40.6013 51.1809C40.2327 47.6712 43.7121 44.8499 47.1586 44.0571C50.605 43.2642 54.2404 43.7565 57.7058 43.0509C61.7276 42.2321 65.9121 38.8684 64.3075 34.4557C64.0321 33.721 63.6199 33.045 63.0925 32.4633C61.2385 30.3834 58.6451 29.4953 56.1095 28.6366C50.8345 26.8502 45.4151 25.0413 39.848 25.2385C35.261 25.4778 30.8434 27.0461 27.1358 29.7515C23.4282 32.4569 20.5914 36.182 18.9726 40.4709C18.589 41.5439 18.2917 42.6457 18.0838 43.7659C16.173 54.0175 22.1394 64.1295 31.8301 68.0333L35.8612 69.9877Z" fill="#2F2E41"/>
<path d="M30.9141 180.429C30.4002 180.119 29.9884 179.665 29.7293 179.125C29.4701 178.584 29.375 177.98 29.4556 177.386L20.3635 132.447L11.1471 97.9581H11.1473C10.1355 94.1789 10.4411 90.1689 12.0139 86.5858C13.5867 83.0027 16.3334 80.0594 19.8033 78.2387L25.8962 72.4866L39.1881 78.2004L45.5042 84.608C50.0343 86.8089 54.0528 89.9311 57.3014 93.7741C60.55 97.617 62.9568 102.096 64.3671 106.922L74.4973 141.51L97.8921 176.238C98.2827 176.816 98.4654 177.51 98.4104 178.206C98.3554 178.901 98.0659 179.558 97.5891 180.068C94.3345 183.561 30.9141 180.429 30.9141 180.429Z" fill="#2F2E41"/>
<path d="M92.2068 177.236L57.7096 153.384C53.0077 150.111 49.6038 145.297 48.0893 139.78L38.3924 104.452C38.0314 103.158 37.9341 101.805 38.1062 100.472C38.2782 99.1401 38.7162 97.8557 39.3942 96.6951C40.315 95.0926 41.6702 93.7817 43.3041 92.9131C44.9381 92.0445 46.7844 91.6534 48.6311 91.7847C50.4778 91.916 52.2499 92.5644 53.7438 93.6554C55.2378 94.7465 56.393 96.2359 57.0767 97.9525L71.4574 133.248L102.098 162.262C102.443 162.68 102.673 163.181 102.764 163.714C102.855 164.248 102.805 164.796 102.618 165.304L96.7826 175.713C96.58 176.313 96.1943 176.835 95.6795 177.205C95.1648 177.575 94.5469 177.775 93.9125 177.776C93.3018 177.776 92.7061 177.587 92.2068 177.236Z" fill="#2F2E41"/>
<path d="M20.5392 296.063C20.2571 295.66 20.0765 295.195 20.0126 294.707C19.9487 294.219 20.0034 293.723 20.172 293.261L36.1312 235.374L37.3109 178.653L91.034 174.977L91.2948 174.959L107.476 204.222C112.542 213.37 115.643 223.471 116.582 233.882L121.915 292.186C121.995 292.979 121.761 293.771 121.262 294.393C120.764 295.015 120.04 295.417 119.248 295.513L103.049 297.05C102.269 297.145 101.482 296.932 100.857 296.456C100.232 295.98 99.8177 295.28 99.703 294.503L93.1252 235.255L69.4578 195.355L61.5133 237.361L45.0543 295.371C44.8391 295.95 44.4525 296.45 43.9458 296.804C43.439 297.159 42.8362 297.352 42.2173 297.356L23.0205 297.364C22.5317 297.367 22.0499 297.249 21.6172 297.022C21.1846 296.795 20.8144 296.466 20.5392 296.063Z" fill="#2F2E41"/>
<path d="M431.896 486.448H27.0722C19.8947 486.44 13.0135 483.591 7.93823 478.527C2.86296 473.463 0.00810772 466.597 0 459.436V237.611C0.00810772 230.449 2.86296 223.583 7.93823 218.519C13.0135 213.455 19.8947 210.607 27.0722 210.599H76.7069C83.4415 210.593 89.9354 213.098 94.9151 217.622L148.741 255.971C152.25 259.171 156.833 260.943 161.587 260.939H434.41C437.998 260.939 441.551 261.651 444.861 263.033C448.172 264.416 451.173 266.441 453.692 268.991C456.211 271.541 458.197 274.566 459.534 277.888C460.87 281.211 461.532 284.766 461.479 288.346L458.966 459.831C458.833 466.916 455.926 473.668 450.867 478.643C445.808 483.617 438.999 486.419 431.896 486.448Z" fill="url(#paint0_linear_7_313)"/>
<path d="M428.3 473.351H29.4673C26.0048 473.347 22.6852 471.973 20.2369 469.53C17.7885 467.087 16.4113 463.775 16.4074 460.32V234.868C16.4113 231.413 17.7885 228.101 20.2369 225.658C22.6852 223.215 26.0048 221.841 29.4673 221.837C32.5298 221.841 35.4659 223.056 37.6314 225.217C39.797 227.378 41.0151 230.307 41.0185 233.363V444.768C41.0222 448.006 42.3129 451.11 44.6075 453.399C46.902 455.689 50.013 456.977 53.258 456.98H426.953C428.809 456.96 430.619 457.56 432.094 458.686C433.568 459.811 434.622 461.398 435.087 463.191C435.608 464.891 435.543 466.717 434.903 468.376C434.263 470.036 433.083 471.433 431.554 472.346C430.584 472.976 429.457 473.324 428.3 473.351Z" fill="#3246AB" fill-opacity="0.2"/>
<path d="M232.513 365.08L231.463 364.033C231.245 363.829 231.118 363.548 231.108 363.251C231.098 362.953 231.207 362.665 231.411 362.447C231.428 362.43 231.445 362.412 231.463 362.395L240.676 353.195C240.777 353.087 240.898 353.001 241.032 352.94C241.167 352.879 241.312 352.846 241.459 352.841C241.607 352.836 241.754 352.86 241.892 352.912C242.03 352.964 242.157 353.042 242.264 353.143C242.282 353.16 242.3 353.177 242.317 353.195L251.529 362.387C251.637 362.491 251.723 362.615 251.783 362.752C251.843 362.889 251.875 363.036 251.877 363.186C251.88 363.335 251.853 363.484 251.798 363.623C251.743 363.762 251.662 363.889 251.558 363.996L251.529 364.024L250.479 365.072C250.375 365.18 250.251 365.266 250.114 365.325C249.976 365.385 249.829 365.417 249.679 365.419C249.529 365.422 249.38 365.395 249.241 365.34C249.102 365.286 248.975 365.204 248.867 365.1L248.838 365.072L243.391 359.342V372.938C243.392 373.087 243.364 373.234 243.308 373.371C243.252 373.509 243.17 373.634 243.065 373.739C242.961 373.845 242.837 373.929 242.7 373.987C242.563 374.045 242.416 374.075 242.267 374.076L242.259 374.076H240.741C240.439 374.076 240.149 373.956 239.935 373.743C239.721 373.529 239.601 373.24 239.601 372.938V359.359L234.154 365.088C233.943 365.304 233.654 365.428 233.352 365.432C233.049 365.436 232.758 365.319 232.541 365.109L232.513 365.08Z" fill="#C850C0"/>
<path d="M241.48 344.838C245.178 344.838 248.792 345.932 251.867 347.982C254.941 350.031 257.338 352.945 258.753 356.353C260.168 359.762 260.538 363.513 259.817 367.132C259.095 370.75 257.315 374.074 254.7 376.683C252.085 379.292 248.754 381.069 245.127 381.788C241.501 382.508 237.741 382.139 234.325 380.727C230.909 379.315 227.989 376.924 225.934 373.856C223.88 370.788 222.784 367.182 222.784 363.492C222.788 358.546 224.759 353.804 228.264 350.306C231.77 346.809 236.523 344.842 241.48 344.838ZM241.48 342.382C237.295 342.382 233.205 343.62 229.725 345.94C226.246 348.259 223.534 351.556 221.933 355.414C220.332 359.271 219.913 363.516 220.729 367.611C221.545 371.706 223.56 375.467 226.519 378.419C229.478 381.372 233.248 383.382 237.352 384.197C241.456 385.011 245.71 384.593 249.576 382.996C253.442 381.398 256.747 378.692 259.071 375.22C261.396 371.749 262.637 367.667 262.637 363.492C262.637 357.893 260.408 352.524 256.44 348.565C252.472 344.606 247.091 342.382 241.48 342.382Z" fill="#3F3D56"/>
<path d="M466.205 490.766H456.147L453.003 452.059L466.206 452.06L466.205 490.766Z" fill="#FFB8B8"/>
<path d="M468.769 500.494L436.34 500.493V500.084C436.34 498.43 436.666 496.792 437.3 495.264C437.935 493.736 438.865 492.348 440.037 491.178C441.209 490.009 442.6 489.081 444.132 488.448C445.663 487.815 447.305 487.489 448.962 487.49H448.963L468.77 487.49L468.769 500.494Z" fill="#2F2E41"/>
<path d="M578.595 490.766H568.538L563.753 452.059L578.597 452.06L578.595 490.766Z" fill="#FFB8B8"/>
<path d="M581.16 500.494L548.731 500.493V500.084C548.731 498.43 549.057 496.792 549.691 495.264C550.326 493.736 551.255 492.348 552.428 491.178C553.6 490.009 554.991 489.081 556.523 488.448C558.054 487.815 559.696 487.489 561.353 487.49H561.354L581.161 487.49L581.16 500.494Z" fill="#2F2E41"/>
<path d="M545.525 371.107C546.914 369.484 547.696 367.431 547.74 365.297C547.783 363.163 547.085 361.08 545.764 359.401C545.496 359.08 545.203 358.781 544.886 358.508L552.461 330.602L539.835 334.782L534.577 360.64C533.705 362.235 533.319 364.049 533.467 365.86C533.615 367.671 534.291 369.399 535.412 370.831C535.998 371.604 536.751 372.235 537.614 372.679C538.478 373.122 539.431 373.366 540.402 373.393C541.373 373.419 542.338 373.228 543.224 372.832C544.111 372.437 544.898 371.847 545.525 371.107Z" fill="#FFB8B8"/>
<path d="M545.039 353.941C544.881 353.941 544.723 353.929 544.566 353.906L537.987 352.916C537.475 352.828 536.989 352.63 536.562 352.335C536.135 352.039 535.778 351.655 535.516 351.207C534.946 350.255 534.741 349.129 534.939 348.038L543.147 302.296L537.58 272.909C536.507 267.254 539.276 261.542 544.021 259.623C545.429 259.048 546.962 258.848 548.471 259.04C549.979 259.233 551.412 259.813 552.629 260.723C553.942 261.715 555.032 262.972 555.826 264.412C556.62 265.851 557.103 267.441 557.241 269.079L561.181 306.549L561.134 306.712L548.454 351.117C548.271 351.895 547.839 352.592 547.222 353.101C546.606 353.611 545.839 353.906 545.039 353.941Z" fill="#C850C0"/>
<path d="M543.096 243.428C554.225 243.428 563.246 234.427 563.246 223.324C563.246 212.221 554.225 203.22 543.096 203.22C531.968 203.22 522.947 212.221 522.947 223.324C522.947 234.427 531.968 243.428 543.096 243.428Z" fill="#FFB8B8"/>
<path d="M532.78 316.777C532.278 316.777 531.781 316.685 531.312 316.505L499.465 304.282C498.603 303.954 497.878 303.345 497.407 302.553C496.936 301.761 496.747 300.834 496.872 299.922L498.151 290.35C497.392 286.957 497.462 283.432 498.354 280.072C499.246 276.711 500.935 273.614 503.278 271.041L504.053 270.189L513.476 253.046C514.114 251.885 514.976 250.861 516.013 250.033C517.05 249.206 518.241 248.592 519.517 248.226C520.793 247.86 522.129 247.75 523.448 247.902C524.766 248.054 526.042 248.465 527.201 249.111L543.84 258.388C546.03 259.607 547.684 261.6 548.475 263.975C550.714 270.697 550.548 277.986 548.005 284.599L536.613 314.154C536.312 314.924 535.785 315.587 535.102 316.054C534.418 316.522 533.609 316.774 532.78 316.777Z" fill="#C850C0"/>
<path d="M449.317 481.263L449.274 481.254C448.731 481.15 448.215 480.937 447.756 480.628C447.297 480.32 446.906 479.922 446.606 479.459C446.305 478.995 446.102 478.476 446.007 477.932C445.913 477.389 445.93 476.831 446.057 476.294L470.462 369.851C474.457 352.977 479.977 336.499 486.953 320.619L497.336 296.999L536.079 314.647L541.61 324.742C545.924 335.984 548.141 347.919 548.154 359.957L587.521 475.07C587.713 475.632 587.78 476.229 587.718 476.82C587.656 477.411 587.465 477.981 587.16 478.49C586.855 479 586.442 479.438 585.951 479.773C585.459 480.107 584.9 480.331 584.313 480.429L562.763 480.186C562.56 480.222 562.353 480.24 562.147 480.238C561.33 480.239 560.532 479.994 559.856 479.537C559.18 479.079 558.657 478.43 558.356 477.672L513.355 361.287C513.291 361.132 513.181 361.001 513.04 360.91C512.899 360.819 512.733 360.774 512.566 360.779C512.402 360.782 512.243 360.835 512.11 360.931C511.978 361.028 511.878 361.162 511.825 361.317L469.127 478.282C468.799 479.191 468.158 479.955 467.319 480.436C466.479 480.917 465.495 481.085 464.543 480.909L449.317 481.263Z" fill="#2F2E41"/>
<path d="M478.78 350.365C479.916 349.961 480.95 349.315 481.809 348.469C482.667 347.624 483.33 346.602 483.749 345.474C484.169 344.346 484.335 343.139 484.237 341.94C484.139 340.741 483.779 339.577 483.181 338.532L502.479 316.513L487.384 314.459L471.373 335.684C469.68 336.802 468.456 338.5 467.934 340.458C467.412 342.416 467.628 344.497 468.541 346.307C469.454 348.116 471.001 349.529 472.888 350.277C474.775 351.025 476.871 351.056 478.78 350.365Z" fill="#FFB8B8"/>
<path d="M487.877 334.853C487.205 334.853 486.544 334.688 485.951 334.373L479.16 330.76C478.662 330.494 478.224 330.129 477.873 329.687C477.523 329.245 477.268 328.736 477.124 328.191C476.98 327.646 476.95 327.078 477.037 326.521C477.123 325.964 477.324 325.431 477.627 324.955L502.709 285.52L507.058 255.761C507.283 254.223 507.819 252.746 508.632 251.42C509.446 250.095 510.52 248.948 511.791 248.049C513.062 247.149 514.502 246.517 516.025 246.189C517.548 245.862 519.122 245.846 520.651 246.143C522.18 246.44 523.633 247.043 524.921 247.917C526.21 248.79 527.307 249.916 528.147 251.225C528.988 252.534 529.553 253.999 529.808 255.532C530.064 257.066 530.006 258.635 529.636 260.145L520.656 296.824L491.071 333.335C490.687 333.811 490.2 334.194 489.647 334.457C489.094 334.719 488.489 334.855 487.877 334.853Z" fill="#C850C0"/>
<path d="M524.96 206.736C527.291 199.11 540.756 195.708 551.949 198.872C563.141 202.036 571.182 210.332 573.053 218.442C577.198 236.403 555.579 250.98 559.497 268.943C562.089 280.827 577.082 292.063 593.969 294.777C575.359 298.662 552.644 295.247 535.386 285.97C524.645 280.196 515.634 271.483 515.77 262.695C515.853 257.373 519.245 252.668 523.394 248.603C527.543 244.538 532.509 240.924 536.317 236.68C540.124 232.437 542.762 227.356 541.651 221.97C540.54 216.583 534.895 210.966 527.3 209.399L524.96 206.736Z" fill="#2F2E41"/>
<path d="M637.18 502H324.618C324.401 502 324.192 501.914 324.038 501.76C323.884 501.607 323.798 501.399 323.798 501.181C323.798 500.964 323.884 500.756 324.038 500.603C324.192 500.449 324.401 500.363 324.618 500.363H637.18C637.397 500.363 637.606 500.449 637.76 500.603C637.914 500.756 638 500.964 638 501.181C638 501.399 637.914 501.607 637.76 501.76C637.606 501.914 637.397 502 637.18 502Z" fill="#CCCCCC"/>
</g>
<defs>
<linearGradient id="paint0_linear_7_313" x1="461" y1="211" x2="1.46465e-05" y2="486" gradientUnits="userSpaceOnUse">
<stop stop-color="#4158D0"/>
<stop offset="1" stop-color="#C850C0"/>
</linearGradient>
<clipPath id="clip0_7_313">
<rect width="638" height="502" fill="white"/>
</clipPath>
</defs>
</svg>
