<svg xmlns="http://www.w3.org/2000/svg" width="23" height="23" fill="none" viewBox="0 0 23 23"><path stroke="#fff" stroke-width="2" d="M7.19231 5.30769C7.19231 4.45571 7.44495 3.62287 7.91828 2.91447C8.39162 2.20607 9.06439 1.65394 9.85152 1.32791C10.6386 1.00187 11.5048 0.91656 12.3404 1.08277C13.176 1.24899 13.9436 1.65925 14.546 2.2617L15.2387 1.56902L14.546 2.2617C15.1484 2.86414 15.5587 3.6317 15.7249 4.46731C15.8911 5.30292 15.8058 6.16905 15.4798 6.95618C15.1537 7.7433 14.6016 8.41607 13.8932 8.88941C13.1848 9.36274 12.352 9.61539 11.5 9.61539C10.3575 9.61539 9.26185 9.16154 8.454 8.35369C7.64615 7.54584 7.19231 6.45017 7.19231 5.30769ZM2.65385 22C2.21522 22 1.79456 21.8258 1.4844 21.5156C1.17424 21.2054 1 20.7848 1 20.3462C1 18.4998 1.73345 16.7291 3.03899 15.4236C4.34453 14.1181 6.11522 13.3846 7.96154 13.3846H15.0385C16.8848 13.3846 18.6555 14.1181 19.961 15.4236C21.2666 16.7291 22 18.4998 22 20.3462C22 20.7848 21.8258 21.2054 21.5156 21.5156C21.2054 21.8258 20.7848 22 20.3462 22H2.65385Z"/></svg>