<svg width="23" height="27" viewBox="0 0 23 27" fill="none" xmlns="http://www.w3.org/2000/svg">
<g opacity="0.8">
<path d="M20.7156 20.5713V25.9865H3.7255C3.00741 25.9865 2.31873 25.7012 1.81096 25.1934C1.30319 24.6856 1.01792 23.997 1.01792 23.2789V23.2789C1.01792 22.5608 1.30319 21.8721 1.81096 21.3643C2.31873 20.8566 3.00741 20.5713 3.7255 20.5713H20.7156Z" stroke="white" stroke-width="1.5" stroke-linecap="round" stroke-linejoin="round"/>
<path d="M22.2094 20.12C22.2094 20.2397 22.1618 20.3545 22.0772 20.4391C21.9926 20.5238 21.8778 20.5713 21.7581 20.5713H3.70758C2.98949 20.5713 2.3008 20.8566 1.79303 21.3643C1.28526 21.8721 1 22.5608 1 23.2789V3.71661C1 2.99852 1.28526 2.30984 1.79303 1.80207C2.3008 1.2943 2.98949 1.00903 3.70758 1.00903H21.7581C21.8778 1.00903 21.9926 1.05658 22.0772 1.14121C22.1618 1.22583 22.2094 1.34061 22.2094 1.4603V20.12Z" stroke="white" stroke-width="1.5" stroke-linecap="round" stroke-linejoin="round"/>
<path d="M20.7158 23.2878H5.09302" stroke="white" stroke-width="1.5" stroke-linecap="round" stroke-linejoin="round"/>
<path d="M10.5034 8.96931L8.02144 7.18682L5.53949 8.96931V1H10.5034V8.96931Z" stroke="white" stroke-width="1.5" stroke-linecap="round" stroke-linejoin="round"/>
<path d="M22.2093 26H20.7156" stroke="white" stroke-width="1.5" stroke-linecap="round" stroke-linejoin="round"/>
</g>
</svg>
