<svg width="16" height="16" viewBox="0 0 16 16" fill="none" xmlns="http://www.w3.org/2000/svg">
<path d="M6.6 8L0.299999 1.7C-0.100001 1.3 -0.100001 0.7 0.299999 0.3C0.699999 -0.1 1.3 -0.1 1.7 0.3L8 6.6L14.3 0.3C14.7 -0.1 15.3 -0.1 15.7 0.3C16.1 0.7 16.1 1.3 15.7 1.7L9.4 8L15.7 14.3C15.9 14.5 16 14.7 16 15C16 15.6 15.6 16 15 16C14.7 16 14.5 15.9 14.3 15.7L8 9.4L1.7 15.7C1.5 15.9 1.3 16 1 16C0.7 16 0.499999 15.9 0.299999 15.7C-0.100001 15.3 -0.100001 14.7 0.299999 14.3L6.6 8Z" fill="#525252"/>
</svg>
