<svg width="22" height="22" viewBox="0 0 22 22" fill="none" xmlns="http://www.w3.org/2000/svg">
<path d="M8.12995 8.14809V4.29171C8.12995 3.72921 7.67394 3.2732 7.11144 3.2732H4.27357C3.71107 3.2732 3.25506 3.72921 3.25506 4.29171V7.12958C3.25506 7.69209 3.71107 8.14809 4.27357 8.14809H8.12995ZM4.27357 1.23618H7.11144C8.79896 1.23618 10.167 2.60419 10.167 4.29171V9.1666C10.167 9.72911 9.71097 10.1851 9.14846 10.1851H4.27357C2.58605 10.1851 1.21804 8.8171 1.21804 7.12958V4.29171C1.21804 2.60419 2.58605 1.23618 4.27357 1.23618ZM13.8519 3.05553V8.14809H18.9445C19.507 8.14809 19.963 7.69209 19.963 7.12958V3.05553C19.963 2.49302 19.507 2.03702 18.9445 2.03702H14.8704C14.3079 2.03702 13.8519 2.49302 13.8519 3.05553ZM18.9445 0C20.632 0 22 1.36801 22 3.05553V7.12958C22 8.8171 20.632 10.1851 18.9445 10.1851H12.8334C12.2709 10.1851 11.8149 9.72911 11.8149 9.1666V3.05553C11.8149 1.36801 13.1829 0 14.8704 0H18.9445ZM13.8519 13.7049V17.5668C13.8519 18.1293 14.3079 18.5853 14.8704 18.5853H17.7137C18.2762 18.5853 18.7323 18.1293 18.7323 17.5668V14.7235C18.7323 14.1609 18.2762 13.7049 17.7137 13.7049H13.8519ZM17.7137 20.6223H14.8704C13.1829 20.6223 11.8149 19.2543 11.8149 17.5668V12.6864C11.8149 12.1239 12.2709 11.6679 12.8334 11.6679H17.7137C19.4013 11.6679 20.7693 13.0359 20.7693 14.7235V17.5668C20.7693 19.2543 19.4013 20.6223 17.7137 20.6223ZM8.14809 13.7049H3.05553C2.49302 13.7049 2.03702 14.1609 2.03702 14.7235V18.7975C2.03702 19.36 2.49302 19.816 3.05553 19.816H7.12958C7.69208 19.816 8.14809 19.36 8.14809 18.7975V13.7049ZM3.05553 21.853C1.36801 21.853 0 20.485 0 18.7975V14.7235C0 13.0359 1.36801 11.6679 3.05553 11.6679H9.1666C9.72911 11.6679 10.1851 12.1239 10.1851 12.6864V18.7975C10.1851 20.485 8.8171 21.853 7.12958 21.853H3.05553Z" fill="white"/>
</svg>
