<svg width="32" height="32" viewBox="0 0 32 32" fill="none" xmlns="http://www.w3.org/2000/svg">
<path d="M14.8491 18.1008L6.64743 12.5666C6.38125 12.387 6.03501 12.406 5.7883 12.6138L0.274229 17.2568C-0.116305 17.5857 -0.0846076 18.2181 0.336695 18.5024L8.53835 24.0366C8.80453 24.2162 9.15077 24.1972 9.39748 23.9894L14.9115 19.3464C15.3021 19.0175 15.2704 18.3851 14.8491 18.1008Z" fill="#1587EA"/>
<path d="M17.0887 19.3464L22.6027 23.9894C22.8495 24.1971 23.1957 24.2161 23.4619 24.0365L31.6635 18.5023C32.0848 18.218 32.1165 17.5856 31.726 17.2567L26.2119 12.6138C25.9651 12.406 25.619 12.387 25.3528 12.5666L17.1511 18.1008C16.7299 18.3851 16.6981 19.0175 17.0887 19.3464Z" fill="#1587EA"/>
<path d="M14.9115 4.8129L9.39748 0.16991C9.1507 -0.0378543 8.80453 -0.0568713 8.53835 0.122742L0.336695 5.65698C-0.0846076 5.94127 -0.116305 6.57369 0.274229 6.90252L5.7883 11.5455C6.03508 11.7533 6.38125 11.7723 6.64743 11.5927L14.8491 6.05844C15.2704 5.77416 15.3021 5.14173 14.9115 4.8129Z" fill="#1587EA"/>
<path d="M31.6635 5.65698L23.4619 0.122742C23.1957 -0.0568713 22.8495 -0.0378543 22.6027 0.16991L17.0887 4.8129C16.6981 5.14173 16.7298 5.77416 17.1511 6.05844L25.3529 11.5927C25.6191 11.7723 25.9653 11.7533 26.212 11.5455L31.7261 6.90252C32.1165 6.57362 32.0848 5.94119 31.6635 5.65698Z" fill="#1587EA"/>
<path d="M15.5984 20.1615L9.42339 25.3157C9.19958 25.5025 8.88682 25.5189 8.64626 25.3566L7.12426 24.3295C6.68056 24.0301 6.09619 24.3635 6.09619 24.9159V25.4711C6.09619 25.715 6.21797 25.9413 6.41732 26.0677L15.6105 31.8989C15.8229 32.0337 16.0893 32.0337 16.3018 31.8989L25.4949 26.0677C25.6943 25.9413 25.816 25.7151 25.816 25.4711V24.9755C25.816 24.4231 25.2316 24.0898 24.788 24.3892L23.3552 25.356C23.1142 25.5186 22.8008 25.5018 22.577 25.3142L16.4311 20.1624C16.1878 19.9586 15.842 19.9582 15.5984 20.1615Z" fill="#1587EA"/>
</svg>
