<svg width="15" height="16" viewBox="0 0 15 16" fill="none" xmlns="http://www.w3.org/2000/svg">
<path d="M10.4819 1.70097L11.8913 0.291788C12.2801 -0.0972627 12.9115 -0.0972627 13.3005 0.291788L14.7097 1.70097C15.0985 2.08977 15.0965 2.71936 14.7052 3.10566L13.2873 4.50609C13.1568 4.63486 12.9457 4.63436 12.816 4.50459L10.4819 2.17053C10.3524 2.04102 10.3524 1.83049 10.4819 1.70097ZM10.0123 2.64035L12.3609 4.98915C12.4907 5.11867 12.4907 5.3292 12.3609 5.45896L3.31847 14.5014C3.25371 14.5662 3.12719 14.6294 3.03643 14.6424L0.570355 14.9947C0.207558 15.0465 -0.0452251 14.7939 0.0067817 14.4309L0.359078 11.9648C0.37208 11.8741 0.435088 11.7478 0.499846 11.683L9.54253 2.64035C9.67205 2.51083 9.88257 2.51083 10.0123 2.64035Z" fill="white"/>
</svg>
