<svg width="29" height="21" viewBox="0 0 29 21" fill="none" xmlns="http://www.w3.org/2000/svg">
<path d="M24.8807 20.6644H4.11932C3.0272 20.6632 1.98018 20.2287 1.20794 19.4565C0.435693 18.6843 0.00128258 17.6372 0 16.5451V4.11932C0.00128258 3.0272 0.435693 1.98018 1.20794 1.20794C1.98018 0.435693 3.0272 0.00128258 4.11932 0H24.8807C25.9728 0.00128258 27.0198 0.435693 27.7921 1.20794C28.5643 1.98018 28.9987 3.0272 29 4.11932V16.5451C28.9987 17.6372 28.5643 18.6843 27.7921 19.4565C27.0198 20.2287 25.9728 20.6632 24.8807 20.6644ZM4.11932 1.45388C3.4124 1.45388 2.73443 1.7347 2.23457 2.23457C1.7347 2.73443 1.45388 3.4124 1.45388 4.11932V16.5451C1.45388 17.252 1.7347 17.93 2.23457 18.4299C2.73443 18.9297 3.4124 19.2106 4.11932 19.2106H24.8807C25.5876 19.2106 26.2656 18.9297 26.7654 18.4299C27.2653 17.93 27.5461 17.252 27.5461 16.5451V4.11932C27.5461 3.4124 27.2653 2.73443 26.7654 2.23457C26.2656 1.7347 25.5876 1.45388 24.8807 1.45388H4.11932Z" fill="white"/>
<path d="M14.5 13.2787C13.6033 13.2802 12.7305 12.9892 12.0139 12.45L0.697886 3.89154C0.617933 3.83543 0.550109 3.76378 0.498465 3.68087C0.44682 3.59796 0.412415 3.50549 0.397302 3.40899C0.38219 3.31249 0.386682 3.21393 0.410509 3.1192C0.434336 3.02447 0.477009 2.93552 0.535981 2.85765C0.594952 2.77978 0.669012 2.7146 0.753737 2.66599C0.838462 2.61738 0.932115 2.58635 1.0291 2.57474C1.12609 2.56313 1.22442 2.57119 1.31822 2.59843C1.41203 2.62567 1.49938 2.67154 1.57506 2.73329L12.8911 11.3015C13.3558 11.6484 13.9201 11.8358 14.5 11.8358C15.0799 11.8358 15.6443 11.6484 16.109 11.3015L27.425 2.73329C27.5007 2.67154 27.588 2.62567 27.6818 2.59843C27.7756 2.57119 27.874 2.56313 27.9709 2.57474C28.0679 2.58635 28.1616 2.61738 28.2463 2.66599C28.331 2.7146 28.4051 2.77978 28.4641 2.85765C28.523 2.93552 28.5657 3.02447 28.5895 3.1192C28.6134 3.21393 28.6179 3.31249 28.6027 3.40899C28.5876 3.50549 28.5532 3.59796 28.5016 3.68087C28.4499 3.76378 28.3821 3.83543 28.3022 3.89154L16.9862 12.45C16.2696 12.9892 15.3968 13.2802 14.5 13.2787Z" fill="white"/>
<path d="M1.01292 18.6387C0.865483 18.6389 0.721466 18.5943 0.599978 18.5108C0.47849 18.4272 0.385274 18.3087 0.3327 18.171C0.280126 18.0332 0.270679 17.8828 0.305612 17.7395C0.340545 17.5963 0.418207 17.4671 0.528293 17.369L9.44541 9.41628C9.58936 9.28775 9.77848 9.22166 9.97115 9.23257C10.1638 9.24348 10.3443 9.33048 10.4728 9.47443C10.6013 9.61839 10.6674 9.8075 10.6565 10.0002C10.6456 10.1929 10.5586 10.3733 10.4147 10.5018L1.49754 18.4545C1.36512 18.575 1.19194 18.6408 1.01292 18.6387ZM27.9872 18.6387C27.8082 18.6408 27.635 18.575 27.5026 18.4545L18.5854 10.5018C18.5142 10.4382 18.4561 10.3611 18.4146 10.2751C18.3731 10.189 18.349 10.0956 18.3436 10.0002C18.3382 9.90478 18.3516 9.80924 18.3832 9.71903C18.4147 9.62883 18.4636 9.54571 18.5273 9.47443C18.5909 9.40315 18.668 9.34511 18.7541 9.30361C18.8401 9.26211 18.9335 9.23797 19.0289 9.23257C19.1244 9.22717 19.2199 9.24061 19.3101 9.27213C19.4003 9.30365 19.4834 9.35263 19.5547 9.41628L28.467 17.369C28.577 17.4671 28.6547 17.5963 28.6896 17.7395C28.7246 17.8828 28.7151 18.0332 28.6626 18.171C28.61 18.3087 28.5168 18.4272 28.3953 18.5108C28.2738 18.5943 28.1298 18.6389 27.9823 18.6387H27.9872Z" fill="white"/>
</svg>
