<svg width="115" height="97" viewBox="0 0 115 97" fill="none" xmlns="http://www.w3.org/2000/svg">
<rect x="40.4414" y="11.4673" width="36.0633" height="34.4014" fill="white"/>
<path d="M81.7553 19.3221C79.5212 8.30228 69.9466 0 58.2983 0C49.0429 0 41.0641 5.26995 37.0739 12.9333C27.4993 13.8917 20 22.0366 20 31.9438C20 42.4837 28.6156 51.1101 39.1492 51.1101H80.639C89.4149 51.1101 96.5966 43.922 96.5966 35.1382C96.6135 31.1021 95.0843 27.2131 92.3237 24.2712C89.563 21.3292 85.7808 19.5581 81.7553 19.3221V19.3221ZM63.4032 28.7416V40.8803H53.1903V28.7416H42.3391L58.2968 12.7775L74.2544 28.7494L63.4032 28.7416Z" fill="url(#paint0_linear_413_20)"/>
<path d="M14.625 77.3975V90.6475H12.35V88.6475C11.8667 89.3308 11.225 89.8641 10.425 90.2475C9.64167 90.6141 8.78333 90.7975 7.85 90.7975C6.08333 90.7975 4.69167 90.3141 3.675 89.3475C2.65833 88.3641 2.15 86.9225 2.15 85.0225V77.3975H4.55V84.7475C4.55 86.0308 4.85833 87.0058 5.475 87.6725C6.09167 88.3225 6.975 88.6475 8.125 88.6475C9.39167 88.6475 10.3917 88.2641 11.125 87.4975C11.8583 86.7308 12.225 85.6475 12.225 84.2475V77.3975H14.625ZM26.2189 77.2725C27.5023 77.2725 28.6523 77.5558 29.6689 78.1225C30.6856 78.6891 31.4773 79.4808 32.0439 80.4975C32.6273 81.5141 32.9189 82.6891 32.9189 84.0225C32.9189 85.3558 32.6273 86.5391 32.0439 87.5725C31.4773 88.5891 30.6856 89.3808 29.6689 89.9475C28.6523 90.5141 27.5023 90.7975 26.2189 90.7975C25.2689 90.7975 24.3939 90.6141 23.5939 90.2475C22.8106 89.8808 22.1439 89.3475 21.5939 88.6475V95.4975H19.1939V77.3975H21.4939V79.4975C22.0273 78.7641 22.7023 78.2141 23.5189 77.8475C24.3356 77.4641 25.2356 77.2725 26.2189 77.2725ZM26.0189 88.6975C26.8689 88.6975 27.6273 88.5058 28.2939 88.1225C28.9773 87.7225 29.5106 87.1725 29.8939 86.4725C30.2939 85.7558 30.4939 84.9391 30.4939 84.0225C30.4939 83.1058 30.2939 82.2975 29.8939 81.5975C29.5106 80.8808 28.9773 80.3308 28.2939 79.9475C27.6273 79.5641 26.8689 79.3725 26.0189 79.3725C25.1856 79.3725 24.4273 79.5725 23.7439 79.9725C23.0773 80.3558 22.5439 80.8975 22.1439 81.5975C21.7606 82.2975 21.5689 83.1058 21.5689 84.0225C21.5689 84.9391 21.7606 85.7558 22.1439 86.4725C22.5273 87.1725 23.0606 87.7225 23.7439 88.1225C24.4273 88.5058 25.1856 88.6975 26.0189 88.6975ZM44.41 90.8475C42.66 90.8475 41.0766 90.4641 39.66 89.6975C38.26 88.9141 37.16 87.8475 36.36 86.4975C35.56 85.1308 35.16 83.5975 35.16 81.8975C35.16 80.1975 35.56 78.6725 36.36 77.3225C37.16 75.9558 38.2683 74.8891 39.685 74.1225C41.1016 73.3391 42.685 72.9475 44.435 72.9475C45.8016 72.9475 47.0516 73.1808 48.185 73.6475C49.3183 74.0975 50.285 74.7725 51.085 75.6725L49.46 77.2475C48.1433 75.8641 46.5016 75.1725 44.535 75.1725C43.235 75.1725 42.06 75.4641 41.01 76.0475C39.96 76.6308 39.135 77.4391 38.535 78.4725C37.9516 79.4891 37.66 80.6308 37.66 81.8975C37.66 83.1641 37.9516 84.3141 38.535 85.3475C39.135 86.3641 39.96 87.1641 41.01 87.7475C42.06 88.3308 43.235 88.6225 44.535 88.6225C46.485 88.6225 48.1266 87.9225 49.46 86.5225L51.085 88.0975C50.285 88.9975 49.31 89.6808 48.16 90.1475C47.0266 90.6141 45.7766 90.8475 44.41 90.8475ZM54.3014 72.0975H56.7014V90.6475H54.3014V72.0975ZM66.9588 90.7975C65.6421 90.7975 64.4588 90.5058 63.4088 89.9225C62.3588 89.3391 61.5338 88.5391 60.9338 87.5225C60.3505 86.4891 60.0588 85.3225 60.0588 84.0225C60.0588 82.7225 60.3505 81.5641 60.9338 80.5475C61.5338 79.5141 62.3588 78.7141 63.4088 78.1475C64.4588 77.5641 65.6421 77.2725 66.9588 77.2725C68.2755 77.2725 69.4505 77.5641 70.4838 78.1475C71.5338 78.7141 72.3505 79.5141 72.9338 80.5475C73.5338 81.5641 73.8338 82.7225 73.8338 84.0225C73.8338 85.3225 73.5338 86.4891 72.9338 87.5225C72.3505 88.5391 71.5338 89.3391 70.4838 89.9225C69.4505 90.5058 68.2755 90.7975 66.9588 90.7975ZM66.9588 88.6975C67.8088 88.6975 68.5671 88.5058 69.2338 88.1225C69.9171 87.7225 70.4505 87.1725 70.8338 86.4725C71.2171 85.7558 71.4088 84.9391 71.4088 84.0225C71.4088 83.1058 71.2171 82.2975 70.8338 81.5975C70.4505 80.8808 69.9171 80.3308 69.2338 79.9475C68.5671 79.5641 67.8088 79.3725 66.9588 79.3725C66.1088 79.3725 65.3421 79.5641 64.6588 79.9475C63.9921 80.3308 63.4588 80.8808 63.0588 81.5975C62.6755 82.2975 62.4838 83.1058 62.4838 84.0225C62.4838 84.9391 62.6755 85.7558 63.0588 86.4725C63.4588 87.1725 63.9921 87.7225 64.6588 88.1225C65.3421 88.5058 66.1088 88.6975 66.9588 88.6975ZM89.5029 77.3975V90.6475H87.2279V88.6475C86.7446 89.3308 86.1029 89.8641 85.3029 90.2475C84.5196 90.6141 83.6613 90.7975 82.7279 90.7975C80.9613 90.7975 79.5696 90.3141 78.5529 89.3475C77.5363 88.3641 77.0279 86.9225 77.0279 85.0225V77.3975H79.4279V84.7475C79.4279 86.0308 79.7363 87.0058 80.3529 87.6725C80.9696 88.3225 81.8529 88.6475 83.0029 88.6475C84.2696 88.6475 85.2696 88.2641 86.0029 87.4975C86.7363 86.7308 87.1029 85.6475 87.1029 84.2475V77.3975H89.5029ZM106.572 72.0975V90.6475H104.272V88.5475C103.739 89.2808 103.064 89.8391 102.247 90.2225C101.43 90.6058 100.53 90.7975 99.5469 90.7975C98.2635 90.7975 97.1135 90.5141 96.0969 89.9475C95.0802 89.3808 94.2802 88.5891 93.6969 87.5725C93.1302 86.5391 92.8469 85.3558 92.8469 84.0225C92.8469 82.6891 93.1302 81.5141 93.6969 80.4975C94.2802 79.4808 95.0802 78.6891 96.0969 78.1225C97.1135 77.5558 98.2635 77.2725 99.5469 77.2725C100.497 77.2725 101.372 77.4558 102.172 77.8225C102.972 78.1725 103.639 78.6975 104.172 79.3975V72.0975H106.572ZM99.7469 88.6975C100.58 88.6975 101.339 88.5058 102.022 88.1225C102.705 87.7225 103.239 87.1725 103.622 86.4725C104.005 85.7558 104.197 84.9391 104.197 84.0225C104.197 83.1058 104.005 82.2975 103.622 81.5975C103.239 80.8808 102.705 80.3308 102.022 79.9475C101.339 79.5641 100.58 79.3725 99.7469 79.3725C98.8969 79.3725 98.1302 79.5641 97.4469 79.9475C96.7802 80.3308 96.2469 80.8808 95.8469 81.5975C95.4635 82.2975 95.2719 83.1058 95.2719 84.0225C95.2719 84.9391 95.4635 85.7558 95.8469 86.4725C96.2469 87.1725 96.7802 87.7225 97.4469 88.1225C98.1302 88.5058 98.8969 88.6975 99.7469 88.6975ZM111.688 90.7975C111.221 90.7975 110.821 90.6391 110.488 90.3225C110.155 89.9891 109.988 89.5725 109.988 89.0725C109.988 88.5891 110.155 88.1891 110.488 87.8725C110.821 87.5391 111.221 87.3725 111.688 87.3725C112.155 87.3725 112.546 87.5308 112.863 87.8475C113.18 88.1641 113.338 88.5725 113.338 89.0725C113.338 89.5725 113.171 89.9891 112.838 90.3225C112.521 90.6391 112.138 90.7975 111.688 90.7975Z" fill="url(#paint1_linear_413_20)"/>
<defs>
<linearGradient id="paint0_linear_413_20" x1="58.2379" y1="66.6799" x2="58.2379" y2="-16.6647" gradientUnits="userSpaceOnUse">
<stop stop-color="#4158D0"/>
<stop offset="1" stop-color="#C850C0"/>
</linearGradient>
<linearGradient id="paint1_linear_413_20" x1="57.404" y1="72.2813" x2="57.404" y2="96.6475" gradientUnits="userSpaceOnUse">
<stop stop-color="#C850C0"/>
<stop offset="0.0001" stop-color="#C850C0"/>
<stop offset="1" stop-color="#4158D0"/>
</linearGradient>
</defs>
</svg>
