<svg width="32" height="28" viewBox="0 0 32 28" fill="none" xmlns="http://www.w3.org/2000/svg">
<path d="M31.9999 18.9551C32.0014 19.1368 31.9563 19.3185 31.8641 19.4825C31.6685 19.8326 27.5911 27.1097 27.3948 27.4597C27.3013 27.6266 27.1669 27.7616 27.0078 27.855C26.8488 27.9483 26.6659 27.9999 26.4752 27.9999H5.52478C5.33409 27.9999 5.15115 27.9483 4.99215 27.855C4.83315 27.7616 4.69878 27.6266 4.60515 27.4597C4.40884 27.1097 0.331468 19.8326 0.135843 19.4825C0.0436555 19.3185 -0.00134443 19.1368 3.05735e-05 18.9551H31.9999Z" fill="#167EE6"/>
<path d="M31.9999 18.9551H16V27.9999H26.4752C26.6659 27.9999 26.8489 27.9483 27.0079 27.855C27.1669 27.7616 27.3012 27.6266 27.3949 27.4597C27.5912 27.1097 31.6685 19.8326 31.8642 19.4825C31.9563 19.3185 32.0014 19.1368 31.9999 18.9551Z" fill="#3D55CC"/>
<path d="M10.8622 0.141319C10.7046 0.232516 10.5709 0.364726 10.4766 0.52809C10.0221 1.31501 0.595283 17.6448 0.142158 18.4296C0.0485958 18.5923 0.000720826 18.7733 3.33268e-05 18.955C-0.00140417 19.1367 0.0436583 19.3184 0.135846 19.4824C0.331471 19.8325 4.40884 27.1096 4.60515 27.4596C4.69872 27.6265 4.83309 27.7615 4.99215 27.8548L16.0262 8.91501L10.9041 0.118896C10.8901 0.126182 10.876 0.133405 10.8622 0.141319Z" fill="#12B347"/>
<path d="M32 18.9552C31.9993 18.7735 31.9514 18.5924 31.8578 18.4298C31.4033 17.6435 21.9772 1.31381 21.5233 0.528214C21.429 0.364851 21.2954 0.23264 21.1377 0.141443C20.9801 0.0502462 20.7986 0 20.6107 0H11.3893C11.2014 0 11.0199 0.0501834 10.8623 0.141443L21.823 18.9552H32Z" fill="#FFD500"/>
<path d="M31.9999 18.9552H21.823L16 8.95998V0H20.6107C20.7986 0 20.9801 0.0501834 21.1377 0.141443C21.2953 0.23264 21.429 0.364851 21.5232 0.528214C21.9771 1.31375 31.4032 17.6435 31.8578 18.4298C31.9514 18.5924 31.9992 18.7734 31.9999 18.9552Z" fill="#FFAA00"/>
</svg>
