<svg width="75" height="70" viewBox="0 0 75 70" fill="none" xmlns="http://www.w3.org/2000/svg">
<path d="M23.1641 35C18.9453 35.1302 15.4948 36.7969 12.8125 40H7.57812C5.44271 40 3.64583 39.4727 2.1875 38.418C0.729167 37.3633 0 35.8203 0 33.7891C0 24.5964 1.61458 20 4.84375 20C5 20 5.56641 20.2734 6.54297 20.8203C7.51953 21.3672 8.78906 21.9206 10.3516 22.4805C11.9141 23.0404 13.4635 23.3203 15 23.3203C16.7448 23.3203 18.4766 23.0208 20.1953 22.4219C20.0651 23.3854 20 24.2448 20 25C20 28.6198 21.0547 31.9531 23.1641 35ZM65 59.8828C65 63.0078 64.0495 65.4753 62.1484 67.2852C60.2474 69.0951 57.7214 70 54.5703 70H20.4297C17.2786 70 14.7526 69.0951 12.8516 67.2852C10.9505 65.4753 10 63.0078 10 59.8828C10 58.5026 10.0456 57.1549 10.1367 55.8398C10.2279 54.5247 10.4102 53.1055 10.6836 51.582C10.957 50.0586 11.3021 48.6458 11.7188 47.3438C12.1354 46.0417 12.6953 44.7721 13.3984 43.5352C14.1016 42.2982 14.9089 41.2435 15.8203 40.3711C16.7318 39.4987 17.8451 38.8021 19.1602 38.2812C20.4753 37.7604 21.9271 37.5 23.5156 37.5C23.776 37.5 24.3359 37.7799 25.1953 38.3398C26.0547 38.8997 27.0052 39.5247 28.0469 40.2148C29.0885 40.9049 30.4818 41.5299 32.2266 42.0898C33.9714 42.6497 35.7292 42.9297 37.5 42.9297C39.2708 42.9297 41.0286 42.6497 42.7734 42.0898C44.5182 41.5299 45.9115 40.9049 46.9531 40.2148C47.9948 39.5247 48.9453 38.8997 49.8047 38.3398C50.6641 37.7799 51.224 37.5 51.4844 37.5C53.0729 37.5 54.5247 37.7604 55.8398 38.2812C57.1549 38.8021 58.2682 39.4987 59.1797 40.3711C60.0911 41.2435 60.8984 42.2982 61.6016 43.5352C62.3047 44.7721 62.8646 46.0417 63.2812 47.3438C63.6979 48.6458 64.043 50.0586 64.3164 51.582C64.5898 53.1055 64.7721 54.5247 64.8633 55.8398C64.9544 57.1549 65 58.5026 65 59.8828ZM25 10C25 12.7604 24.0234 15.1172 22.0703 17.0703C20.1172 19.0234 17.7604 20 15 20C12.2396 20 9.88281 19.0234 7.92969 17.0703C5.97656 15.1172 5 12.7604 5 10C5 7.23958 5.97656 4.88281 7.92969 2.92969C9.88281 0.976562 12.2396 0 15 0C17.7604 0 20.1172 0.976562 22.0703 2.92969C24.0234 4.88281 25 7.23958 25 10ZM52.5 25C52.5 29.1406 51.0352 32.6758 48.1055 35.6055C45.1758 38.5352 41.6406 40 37.5 40C33.3594 40 29.8242 38.5352 26.8945 35.6055C23.9648 32.6758 22.5 29.1406 22.5 25C22.5 20.8594 23.9648 17.3242 26.8945 14.3945C29.8242 11.4648 33.3594 10 37.5 10C41.6406 10 45.1758 11.4648 48.1055 14.3945C51.0352 17.3242 52.5 20.8594 52.5 25ZM75 33.7891C75 35.8203 74.2708 37.3633 72.8125 38.418C71.3542 39.4727 69.5573 40 67.4219 40H62.1875C59.5052 36.7969 56.0547 35.1302 51.8359 35C53.9453 31.9531 55 28.6198 55 25C55 24.2448 54.9349 23.3854 54.8047 22.4219C56.5234 23.0208 58.2552 23.3203 60 23.3203C61.5365 23.3203 63.0859 23.0404 64.6484 22.4805C66.2109 21.9206 67.4805 21.3672 68.457 20.8203C69.4336 20.2734 70 20 70.1562 20C73.3854 20 75 24.5964 75 33.7891ZM70 10C70 12.7604 69.0234 15.1172 67.0703 17.0703C65.1172 19.0234 62.7604 20 60 20C57.2396 20 54.8828 19.0234 52.9297 17.0703C50.9766 15.1172 50 12.7604 50 10C50 7.23958 50.9766 4.88281 52.9297 2.92969C54.8828 0.976562 57.2396 0 60 0C62.7604 0 65.1172 0.976562 67.0703 2.92969C69.0234 4.88281 70 7.23958 70 10Z" fill="url(#paint0_linear_543_4)"/>
<defs>
<linearGradient id="paint0_linear_543_4" x1="37.5" y1="0" x2="37.5" y2="70" gradientUnits="userSpaceOnUse">
<stop stop-color="#C850C0"/>
<stop offset="1" stop-color="#4158D0"/>
</linearGradient>
</defs>
</svg>
