<svg width="1055" height="667" viewBox="0 0 1055 667" fill="none" xmlns="http://www.w3.org/2000/svg">
<g clip-path="url(#clip0_117_279)">
<path d="M932.638 440.595C927.527 484.37 916.909 519.515 902.335 547.544C882.942 584.891 849.769 599.938 820.136 615.683C811.573 620.224 802.671 624.095 793.509 627.259C739.586 645.971 679.234 641.007 631.827 631.127C598.576 624.192 564.824 619.926 530.894 618.368C521.216 617.932 511.529 617.716 501.833 617.719C486.88 617.738 217.652 622.848 152.102 490.158C135.918 457.427 124.825 417.443 120.84 368.705C109.563 230.915 171.544 140.419 251.493 81.2683C402.733 -30.6252 610.038 -25.9326 759.047 88.9082C858.303 165.404 951.236 281.176 932.638 440.595Z" fill="#3F3D56"/>
<path d="M902.335 547.544C882.942 584.891 856.557 609.633 826.924 625.378C818.361 629.92 809.459 633.79 800.297 636.954C746.374 655.666 686.021 650.702 638.614 640.823C605.364 633.887 571.612 629.621 537.682 628.064C528.004 627.628 518.317 627.411 508.62 627.414C493.668 627.434 478.719 627.989 463.773 629.082C366.642 636.217 217.652 622.848 152.102 490.158L316.112 172.54L377.153 329.235L396.633 379.253L450.324 305.588L478.047 267.554L604.298 412.275L639.982 333.482L887.034 535.066L900.813 546.303L902.335 547.544Z" fill="#F2F2F2"/>
<path opacity="0.1" d="M292.84 274.34L318.051 219.077L352.96 299.548L322.9 241.376L292.84 274.34Z" fill="black"/>
<path opacity="0.1" d="M537.682 628.064C528.004 627.627 518.317 627.411 508.621 627.414L396.634 379.253L537.682 628.064Z" fill="black"/>
<path opacity="0.1" d="M450.325 305.587L478.047 284.035L604.104 429.465L476.107 305.365L450.325 305.587Z" fill="black"/>
<path opacity="0.1" d="M826.924 625.378C818.361 629.919 809.459 633.79 800.297 636.954L604.298 412.275L826.924 625.378Z" fill="black"/>
<path d="M467.38 101.764C468.987 101.764 470.289 100.462 470.289 98.8555C470.289 97.2492 468.987 95.947 467.38 95.947C465.774 95.947 464.471 97.2492 464.471 98.8555C464.471 100.462 465.774 101.764 467.38 101.764Z" fill="#F2F2F2"/>
<path d="M386.898 201.626C388.505 201.626 389.807 200.323 389.807 198.717C389.807 197.111 388.505 195.809 386.898 195.809C385.291 195.809 383.989 197.111 383.989 198.717C383.989 200.323 385.291 201.626 386.898 201.626Z" fill="#F2F2F2"/>
<path d="M583.741 218.108C584.812 218.108 585.68 217.24 585.68 216.169C585.68 215.098 584.812 214.23 583.741 214.23C582.67 214.23 581.802 215.098 581.802 216.169C581.802 217.24 582.67 218.108 583.741 218.108Z" fill="#F2F2F2"/>
<path d="M176.48 261.737C177.551 261.737 178.419 260.868 178.419 259.797C178.419 258.727 177.551 257.858 176.48 257.858C175.409 257.858 174.541 258.727 174.541 259.797C174.541 260.868 175.409 261.737 176.48 261.737Z" fill="#F2F2F2"/>
<path d="M595.377 97.886C596.448 97.886 597.316 97.0179 597.316 95.9469C597.316 94.876 596.448 94.0079 595.377 94.0079C594.306 94.0079 593.438 94.876 593.438 95.9469C593.438 97.0179 594.306 97.886 595.377 97.886Z" fill="#F2F2F2"/>
<path d="M715.616 190.961C716.687 190.961 717.555 190.093 717.555 189.022C717.555 187.951 716.687 187.083 715.616 187.083C714.545 187.083 713.677 187.951 713.677 189.022C713.677 190.093 714.545 190.961 715.616 190.961Z" fill="#F2F2F2"/>
<path d="M833.915 338.329C834.986 338.329 835.855 337.461 835.855 336.39C835.855 335.319 834.986 334.451 833.915 334.451C832.844 334.451 831.976 335.319 831.976 336.39C831.976 337.461 832.844 338.329 833.915 338.329Z" fill="#F2F2F2"/>
<path d="M296.719 117.528H294.043V114.852H292.607V117.528H289.931V118.964H292.607V121.639H294.043V118.964H296.719V117.528Z" fill="#F2F2F2"/>
<path d="M822.279 411.296H819.603V408.62H818.168V411.296H815.492V412.732H818.168V415.407H819.603V412.732H822.279V411.296Z" fill="#F2F2F2"/>
<path d="M1055 595.255C1055 611.319 818.83 667 527.5 667C236.17 667 0 611.319 0 595.255C0 579.191 236.17 608.828 527.5 608.828C818.83 608.828 1055 579.191 1055 595.255Z" fill="#3F3D56"/>
<path opacity="0.1" d="M1055 595.255C1055 611.319 818.83 667 527.5 667C236.17 667 0 611.319 0 595.255C0 579.191 236.17 608.828 527.5 608.828C818.83 608.828 1055 579.191 1055 595.255Z" fill="black"/>
<path d="M527.5 624.341C818.83 624.341 1055 611.318 1055 595.255C1055 579.191 818.83 566.169 527.5 566.169C236.17 566.169 0 579.191 0 595.255C0 611.318 236.17 624.341 527.5 624.341Z" fill="#3F3D56"/>
<path d="M550.772 554.535C550.772 586.662 536.446 577.803 518.773 577.803C501.1 577.803 486.774 586.662 486.774 554.535C486.774 522.407 518.773 461.46 518.773 461.46C518.773 461.46 550.772 522.407 550.772 554.535Z" fill="#FF6584"/>
<path opacity="0.1" d="M533.318 566.827C533.318 581.43 526.806 577.403 518.773 577.403C510.74 577.403 504.228 581.43 504.228 566.827C504.228 552.223 518.773 524.52 518.773 524.52C518.773 524.52 533.318 552.223 533.318 566.827Z" fill="black"/>
<path d="M554.651 586.529H482.895C478.075 586.529 474.168 590.436 474.168 595.255C474.168 600.074 478.075 603.981 482.895 603.981H554.651C559.471 603.981 563.378 600.074 563.378 595.255C563.378 590.436 559.471 586.529 554.651 586.529Z" fill="#2F2E41"/>
<path d="M554.651 569.078H482.895C478.075 569.078 474.168 572.984 474.168 577.803C474.168 582.622 478.075 586.529 482.895 586.529H554.651C559.471 586.529 563.378 582.622 563.378 577.803C563.378 572.984 559.471 569.078 554.651 569.078Z" fill="#2F2E41"/>
<path d="M132.845 475.581C132.845 529.238 166.511 572.657 208.116 572.657L132.845 475.581Z" fill="#3F3D56"/>
<path d="M208.116 572.657C208.116 518.397 245.686 474.491 292.115 474.491L208.116 572.657Z" fill="#C850C0"/>
<path d="M160.117 480.446C160.117 531.414 181.585 572.657 208.116 572.657L160.117 480.446Z" fill="#C850C0"/>
<path d="M208.116 572.657C208.116 503.325 251.541 447.222 305.206 447.222L208.116 572.657Z" fill="#3F3D56"/>
<path d="M192.281 573.341C192.281 573.341 202.956 573.013 206.173 570.722C209.39 568.432 222.593 565.697 223.391 569.37C224.189 573.044 239.434 587.64 227.382 587.738C215.33 587.835 199.379 585.861 196.168 583.905C192.957 581.949 192.281 573.341 192.281 573.341Z" fill="#A8A8A8"/>
<path opacity="0.2" d="M227.597 586.459C215.545 586.556 199.594 584.582 196.383 582.626C193.938 581.137 192.963 575.793 192.637 573.328C192.412 573.337 192.281 573.341 192.281 573.341C192.281 573.341 192.957 581.949 196.168 583.905C199.379 585.861 215.33 587.835 227.382 587.738C230.861 587.71 232.062 586.472 231.996 584.639C231.513 585.747 230.186 586.438 227.597 586.459Z" fill="black"/>
<path d="M699.547 511.002C699.547 547.872 722.681 577.707 751.27 577.707L699.547 511.002Z" fill="#3F3D56"/>
<path d="M751.27 577.707C751.27 540.423 777.086 510.253 808.99 510.253L751.27 577.707Z" fill="#C850C0"/>
<path d="M718.287 514.344C718.287 549.367 733.039 577.707 751.27 577.707L718.287 514.344Z" fill="#C850C0"/>
<path d="M751.27 577.707C751.27 530.066 781.109 491.515 817.985 491.515L751.27 577.707Z" fill="#3F3D56"/>
<path d="M740.389 578.178C740.389 578.178 747.724 577.952 749.935 576.378C752.145 574.804 761.218 572.924 761.766 575.449C762.315 577.973 772.79 588.003 764.508 588.07C756.227 588.137 745.266 586.78 743.06 585.436C740.853 584.093 740.389 578.178 740.389 578.178Z" fill="#A8A8A8"/>
<path opacity="0.2" d="M764.656 587.191C756.375 587.258 745.414 585.902 743.208 584.558C741.527 583.534 740.858 579.862 740.634 578.168C740.479 578.175 740.389 578.178 740.389 578.178C740.389 578.178 740.854 584.093 743.06 585.436C745.266 586.78 756.227 588.137 764.508 588.07C766.899 588.051 767.725 587.2 767.679 585.941C767.347 586.702 766.435 587.177 764.656 587.191Z" fill="black"/>
<path d="M866.703 599.848C866.703 599.848 877.718 598.171 880.763 595.396C883.809 592.621 897.141 588.136 898.428 591.841C899.714 595.546 917.33 608.757 904.86 610.366C892.39 611.974 875.622 611.926 872.051 610.302C868.481 608.679 866.703 599.848 866.703 599.848Z" fill="#A8A8A8"/>
<path opacity="0.2" d="M904.923 609.014C892.452 610.623 875.684 610.575 872.114 608.951C869.395 607.714 867.717 602.301 867.07 599.789C866.838 599.827 866.703 599.848 866.703 599.848C866.703 599.848 868.481 608.679 872.051 610.302C875.622 611.926 892.39 611.975 904.86 610.366C908.459 609.901 909.549 608.469 909.251 606.579C908.889 607.786 907.602 608.669 904.923 609.014Z" fill="black"/>
<path d="M595.629 599.051C595.629 599.051 604.925 597.636 607.495 595.294C610.065 592.952 621.317 589.167 622.403 592.293C623.489 595.42 638.356 606.569 627.831 607.927C617.307 609.285 603.156 609.244 600.142 607.874C597.129 606.503 595.629 599.051 595.629 599.051Z" fill="#A8A8A8"/>
<path opacity="0.2" d="M627.884 606.787C617.36 608.145 603.209 608.104 600.195 606.733C597.9 605.69 596.484 601.121 595.939 599.001C595.742 599.033 595.629 599.05 595.629 599.05C595.629 599.05 597.129 606.503 600.142 607.874C603.156 609.244 617.307 609.285 627.831 607.927C630.869 607.535 631.789 606.327 631.538 604.731C631.232 605.751 630.146 606.495 627.884 606.787Z" fill="black"/>
<path d="M118.677 594.409C118.677 594.409 125.914 593.308 127.915 591.485C129.915 589.662 138.675 586.715 139.52 589.149C140.366 591.583 151.94 600.263 143.747 601.32C135.553 602.377 124.536 602.345 122.191 601.278C119.845 600.211 118.677 594.409 118.677 594.409Z" fill="#A8A8A8"/>
<path opacity="0.2" d="M143.788 600.432C135.595 601.489 124.578 601.457 122.232 600.39C120.445 599.578 119.343 596.021 118.918 594.37C118.765 594.396 118.677 594.409 118.677 594.409C118.677 594.409 119.845 600.211 122.191 601.278C124.536 602.345 135.553 602.377 143.747 601.32C146.112 601.015 146.828 600.074 146.632 598.832C146.394 599.625 145.548 600.205 143.788 600.432Z" fill="black"/>
<path opacity="0.1" d="M372.058 582.996C372.058 612.296 331.212 603.233 281.201 603.233C231.189 603.233 190.95 612.296 190.95 582.996C190.95 553.697 231.79 547.324 281.802 547.324C331.814 547.324 372.058 553.697 372.058 582.996Z" fill="black"/>
<path d="M372.058 575.782C372.058 605.082 331.212 596.019 281.201 596.019C231.189 596.019 190.95 605.082 190.95 575.782C190.95 546.483 231.79 540.11 281.802 540.11C331.814 540.11 372.058 546.483 372.058 575.782Z" fill="#3F3D56"/>
<path d="M379.845 441.544C377.435 442.776 375.145 444.227 373.002 445.88C370.851 447.546 369.204 449.776 368.245 452.321C367.039 449.499 366.054 446.588 365.298 443.614C363.6 438.277 361.59 433.044 359.279 427.942C363.072 426.497 366.361 423.976 368.74 420.687C373.394 425.32 378.179 430.152 380.494 436.296C380.893 437.355 382.054 438.483 382.323 439.431C382.704 440.772 380.862 440.985 379.845 441.544Z" fill="#FFBFC5"/>
<path d="M423.64 554.481C428.724 556.087 433.465 558.623 437.621 561.961C437.934 562.157 438.161 562.464 438.257 562.821C438.362 563.626 437.287 563.955 436.507 564.18C434.212 564.84 432.745 566.996 431.055 568.683C429.365 570.37 426.65 571.694 424.678 570.346C424.16 569.95 423.708 569.474 423.339 568.936L415.01 558.066C417.834 556.487 420.803 555.184 423.877 554.174" fill="#F1F1F1"/>
<path d="M438.613 556.743C439.716 557.868 440.195 559.486 441.277 560.631C442.005 561.325 442.836 561.902 443.741 562.341L450.114 565.848C451.093 566.427 452.124 566.914 453.193 567.302C454.394 567.637 455.616 567.892 456.85 568.066C458.616 568.397 460.344 568.907 462.007 569.587C463.257 570.099 464.65 570.982 464.644 572.332C464.593 572.991 464.324 573.615 463.88 574.105C461.367 577.269 456.919 577.971 452.901 578.396C444.201 579.315 435.299 580.005 426.795 577.955C425.135 577.649 423.566 576.97 422.206 575.969C419.64 573.843 419.129 569.97 420.088 566.778C420.359 565.555 421.083 564.478 422.114 563.766C423.461 562.994 425.139 563.352 426.687 563.233C428.334 563.008 429.929 562.5 431.402 561.731C432.375 561.293 433.494 560.727 433.702 559.571C433.895 558.498 432.635 557.424 432.9 556.465C433.488 554.341 437.597 555.706 438.613 556.743Z" fill="#575A89"/>
<path opacity="0.1" d="M438.613 556.743C439.716 557.868 440.195 559.486 441.277 560.631C442.005 561.325 442.836 561.902 443.741 562.341L450.114 565.848C451.093 566.427 452.124 566.914 453.193 567.302C454.394 567.637 455.616 567.892 456.85 568.066C458.616 568.397 460.344 568.907 462.007 569.587C463.257 570.099 464.65 570.982 464.644 572.332C464.593 572.991 464.324 573.615 463.88 574.105C461.367 577.269 456.919 577.971 452.901 578.396C444.201 579.315 435.299 580.005 426.795 577.955C425.135 577.649 423.566 576.97 422.206 575.969C419.64 573.843 419.129 569.97 420.088 566.778C420.359 565.555 421.083 564.478 422.114 563.766C423.461 562.994 425.139 563.352 426.687 563.233C428.334 563.008 429.929 562.5 431.402 561.731C432.375 561.293 433.494 560.727 433.702 559.571C433.895 558.498 432.635 557.424 432.9 556.465C433.488 554.341 437.597 555.706 438.613 556.743Z" fill="black"/>
<path d="M453.399 591.547C454.292 592.135 455.184 592.723 456.075 593.314C456.896 593.751 457.572 594.417 458.021 595.232C458.601 596.596 457.816 598.139 456.943 599.337C454.324 602.919 450.748 605.689 446.625 607.332C445.196 607.927 443.686 608.303 442.144 608.449C441.792 608.504 441.431 608.458 441.103 608.318C440.287 607.888 440.404 606.721 440.394 605.798C440.366 603.121 438.343 600.947 436.526 598.981C434.709 597.014 432.856 594.593 433.272 591.948C433.649 590.391 434.447 588.967 435.579 587.833C436.586 586.57 437.767 585.456 439.087 584.524C440.977 583.287 441.644 583.953 443.424 585.086C446.765 587.215 450.09 589.369 453.399 591.547Z" fill="#F1F1F1"/>
<path d="M444.699 604.589C445.427 604.773 446.188 604.783 446.921 604.618C447.654 604.453 448.337 604.117 448.916 603.639C450.065 602.67 450.998 601.471 451.654 600.119C452.305 598.916 452.871 597.669 453.349 596.387C453.909 594.886 454.428 593.226 455.747 592.316C457.345 591.212 459.597 591.644 461.222 592.709C462.754 593.904 464.161 595.251 465.421 596.73C468.796 599.878 472.889 602.155 477.343 603.363C481.779 604.561 486.275 605.522 490.812 606.242C491.719 606.363 492.597 606.646 493.404 607.076C495.228 608.189 495.837 610.672 495.329 612.747C494.685 614.795 493.53 616.645 491.973 618.122C490.747 619.575 489.227 620.752 487.512 621.575C486.062 622.104 484.536 622.393 482.992 622.431C475.52 622.939 468.013 622.351 460.71 620.686C458.027 619.957 455.298 619.413 452.541 619.055C450.861 618.907 449.168 618.954 447.485 618.84C444.139 618.611 440.866 617.748 437.843 616.297C437.106 616.027 436.485 615.512 436.084 614.838C435.867 614.218 435.822 613.55 435.954 612.906L437.07 603.133C437.167 602.282 437.451 601.225 438.297 601.092C439.102 600.966 439.687 601.79 440.194 602.429C441.176 603.605 442.522 604.422 444.019 604.749C445.517 605.076 447.081 604.896 448.465 604.237" fill="#575A89"/>
<path d="M379.981 481.358C384.885 480.805 390.573 480.713 393.889 484.367C395.923 486.609 396.54 489.748 397.244 492.691C398.345 497.634 400.133 502.397 402.558 506.842C404.118 509.596 406.009 512.181 407.206 515.111C408.432 518.113 408.884 521.364 409.601 524.527C412.476 537.027 419.494 548.188 429.514 556.196C427.745 561.008 422.628 563.756 417.651 564.985C416.596 565.433 415.421 565.512 414.315 565.211C413.209 564.91 412.237 564.245 411.555 563.324C409.226 560.811 407.057 558.154 405.061 555.37C397.886 545.79 390.602 536.009 386.694 524.697C385.322 520.728 383.951 516.094 380.092 514.436C377.892 513.49 375.376 513.785 373.014 514.185C367.736 515.08 362.542 516.413 357.486 518.171C352.096 520.046 345.924 522.353 340.99 519.485C338.038 517.768 336.281 514.471 335.632 511.119C335.144 507.734 335.14 504.297 335.619 500.911C335.651 499.379 336.019 497.873 336.696 496.498C337.379 495.47 338.254 494.583 339.275 493.889C343.68 490.542 348.581 487.903 353.799 486.065C358.784 484.308 364.142 483.712 369.343 482.844C372.875 482.254 376.421 481.759 379.981 481.358Z" fill="#575A89"/>
<path opacity="0.1" d="M379.981 481.358C384.885 480.805 390.573 480.713 393.889 484.367C395.923 486.609 396.54 489.748 397.244 492.691C398.345 497.634 400.133 502.397 402.558 506.842C404.118 509.596 406.009 512.181 407.206 515.111C408.432 518.113 408.884 521.364 409.601 524.527C412.476 537.027 419.494 548.188 429.514 556.196C427.745 561.008 422.628 563.756 417.651 564.985C416.596 565.433 415.421 565.512 414.315 565.211C413.209 564.91 412.237 564.245 411.555 563.324C409.226 560.811 407.057 558.154 405.061 555.37C397.886 545.79 390.602 536.009 386.694 524.697C385.322 520.728 383.951 516.094 380.092 514.436C377.892 513.49 375.376 513.785 373.014 514.185C367.736 515.08 362.542 516.413 357.486 518.171C352.096 520.046 345.924 522.353 340.99 519.485C338.038 517.768 336.281 514.471 335.632 511.119C335.144 507.734 335.14 504.297 335.619 500.911C335.651 499.379 336.019 497.873 336.696 496.498C337.379 495.47 338.254 494.583 339.275 493.889C343.68 490.542 348.581 487.903 353.799 486.065C358.784 484.308 364.142 483.712 369.343 482.844C372.875 482.254 376.421 481.759 379.981 481.358Z" fill="black"/>
<path d="M408.056 516.719C410.331 517.867 412.421 519.351 414.254 521.121C416.146 523.35 417.583 525.927 418.484 528.709C418.888 529.637 419.135 530.625 419.217 531.634C419.253 532.139 419.175 532.645 418.987 533.116C418.799 533.586 418.506 534.007 418.131 534.348C417.223 534.931 416.146 535.194 415.071 535.095C413.649 535.107 412.227 535.07 410.806 534.984C409.943 534.978 409.087 534.816 408.281 534.506C407.543 534.129 406.877 533.625 406.314 533.017C403.814 530.695 401.767 527.931 400.275 524.864C399.245 522.594 397.551 517.362 399.171 515C400.841 512.567 406.291 515.717 408.056 516.719Z" fill="#FFBFC5"/>
<path d="M339.294 515.909C346.548 518.232 354.269 518.497 361.852 519.206C374.608 520.398 387.208 522.889 399.458 526.638C402.016 527.261 404.425 528.383 406.549 529.939C408.188 531.454 409.576 533.22 410.662 535.171C412.654 538.207 414.459 541.362 416.065 544.619C417.443 547.562 418.493 550.647 419.775 553.634C424.081 563.632 430.89 572.352 439.546 578.955C441.128 580.157 442.89 581.467 443.297 583.412C443.479 584.664 443.274 585.942 442.711 587.074C440.841 591.429 436.959 594.597 432.886 597.021C431.135 598.064 429.208 599.122 428.347 600.969C422.157 598.413 417.555 592.966 413.725 587.473C409.894 581.98 406.496 576.077 401.587 571.522C399.425 569.515 396.967 567.768 395.267 565.357C392.671 561.678 391.969 556.645 388.474 553.806C384.954 550.946 379.905 551.335 375.391 551.778C352.272 554.041 328.976 553.789 305.911 551.026C301.116 550.451 296.19 549.719 292.036 547.255C287.882 544.792 284.648 540.17 285.237 535.378C285.788 530.891 289.525 527.335 293.691 525.578C297.856 523.822 302.46 523.507 306.952 523.002C317.976 521.926 328.833 519.545 339.294 515.909Z" fill="#575A89"/>
<path d="M272.973 525.224C273.542 521.42 275.019 517.817 275.947 514.085C276.412 511.736 277 509.413 277.709 507.126C277.733 507.062 277.759 506.999 277.783 506.935C278.019 506.915 278.247 506.844 278.453 506.727C278.658 506.609 278.835 506.448 278.971 506.255C279.097 505.922 279.132 505.561 279.072 505.21C279.053 504.838 279.064 504.464 279.105 504.094C280.622 501.55 282.279 499.093 284.07 496.734C287.211 492.285 289.931 487.556 292.647 482.836C294.873 478.965 297.103 475.088 298.946 471.021C300.328 467.972 301.49 464.821 303.018 461.842C308.456 451.238 318.23 443.429 328.744 437.816C338.828 432.432 349.73 428.803 360.334 424.523C360.606 424.79 360.854 425.082 361.074 425.395C366.802 433.224 367.42 443.514 369.778 452.924C370.729 456.724 372.002 460.51 372 464.427C371.996 470.209 369.233 475.588 366.486 480.675C364.031 485.538 361.132 490.163 357.827 494.493C356.204 496.5 354.418 498.37 352.786 500.371C346.102 508.565 342.243 518.641 338.491 528.527C336.319 534.251 332.769 539.328 330.381 544.965C329.463 547.132 328.933 549.467 327.781 551.518C326.628 553.57 324.622 555.374 322.269 555.385C321.581 555.366 320.897 555.259 320.236 555.066C311.718 552.875 304.585 547.24 297.506 542.021C296.243 541.09 294.972 540.167 293.646 539.326C292.308 538.478 290.917 537.716 289.527 536.955C288.474 536.378 287.421 535.8 286.368 535.224C282.917 533.333 279.461 531.439 275.865 529.84C274.784 529.406 273.745 528.873 272.762 528.247C272.751 527.235 272.822 526.225 272.973 525.224Z" fill="#C850C0"/>
<path d="M384.337 440.894C395.176 440.894 403.963 432.109 403.963 421.272C403.963 410.434 395.176 401.649 384.337 401.649C373.498 401.649 364.712 410.434 364.712 421.272C364.712 432.109 373.498 440.894 384.337 440.894Z" fill="#FFBFC5"/>
<path d="M397.539 412.09C398.014 412.919 398.732 413.582 399.597 413.989C400.462 414.395 401.431 414.526 402.372 414.362C403.308 414.174 404.194 413.79 404.972 413.236C405.749 412.681 406.4 411.969 406.883 411.145C407.837 409.488 408.408 407.639 408.554 405.733C408.707 405.001 408.713 404.246 408.573 403.512C408.432 402.777 408.148 402.078 407.736 401.454C407.004 400.745 406.164 400.157 405.247 399.713C403.983 398.924 402.921 397.849 402.147 396.575C401.598 395.668 401.204 394.676 400.71 393.738C398.925 390.348 395.452 387.591 391.622 387.716C389.782 387.776 388.029 388.475 386.216 388.793C380.131 389.86 373.518 386.641 367.874 389.152C366.484 389.827 365.193 390.688 364.036 391.71C362.447 393.021 360.919 394.401 359.454 395.852C358.18 396.937 357.217 398.339 356.661 399.916C355.894 402.795 357.717 406.012 356.557 408.756C356.16 409.541 355.686 410.286 355.142 410.978C353.862 412.856 355.253 420.186 355.111 422.455C354.948 423.565 355.231 424.695 355.897 425.599C356.823 426.63 358.38 426.72 359.766 426.737L362.314 426.768C362.695 426.794 363.077 426.755 363.444 426.651C363.944 426.429 364.384 426.09 364.727 425.663C366.846 423.431 367.305 416.13 370.383 416.156C370.85 416.13 371.314 416.251 371.71 416.5C372.268 416.909 372.432 417.66 372.828 418.228C373.279 418.761 373.891 419.135 374.572 419.294C375.253 419.453 375.967 419.388 376.608 419.11C377.88 418.523 378.986 417.629 379.827 416.51C380.666 415.393 381.682 414.421 382.837 413.635C384.477 412.679 386.331 412.262 387.927 411.181C389.261 410.278 390.021 408.967 391.218 407.969C391.697 407.556 392.298 407.313 392.929 407.278C393.56 407.242 394.185 407.417 394.707 407.773C396.595 408.759 396.678 410.374 397.539 412.09Z" fill="#2F2E41"/>
<path opacity="0.1" d="M352.194 446.664C356.777 446.013 361.448 446.388 365.869 447.762C367.345 448.099 368.678 448.889 369.68 450.023C370.251 450.881 370.622 451.856 370.767 452.877C371.668 457.569 371.09 462.426 369.112 466.776C368.97 466.993 368.877 467.238 368.837 467.494C368.798 467.751 368.813 468.012 368.883 468.262C369.082 468.564 369.342 468.822 369.646 469.019C369.922 469.284 370.138 469.604 370.281 469.958C370.423 470.313 370.489 470.694 370.474 471.075C370.458 471.457 370.362 471.831 370.191 472.173C370.02 472.515 369.779 472.817 369.483 473.058C369.117 473.326 368.637 473.558 368.565 474.005C368.487 474.493 368.945 474.875 369.302 475.217C369.825 475.728 370.21 476.363 370.423 477.063C370.636 477.763 370.669 478.505 370.519 479.22C370.327 479.797 370.195 480.391 370.125 480.995C370.199 481.733 370.416 482.45 370.766 483.104C371.362 484.582 371.566 486.188 371.357 487.767C371.167 488.514 371.149 489.294 371.303 490.048C371.518 490.548 371.81 491.01 372.169 491.418C373.58 493.321 373.89 496.503 371.843 497.696C372.719 498.145 373.433 498.856 373.885 499.73C374.337 500.605 374.505 501.598 374.365 502.572C375.587 501.92 377.068 502.754 378.086 503.693C379.104 504.633 380.144 505.782 381.527 505.851C382.492 505.899 383.508 505.399 384.388 505.796C385.726 506.4 385.681 508.57 386.997 509.22C388.152 509.79 389.759 508.859 390.743 509.69C391.086 509.98 391.26 510.427 391.591 510.73C392.337 511.413 393.503 511.123 394.515 511.082C395.715 511.116 396.885 511.463 397.909 512.088C398.933 512.714 399.777 513.596 400.355 514.647C401.485 516.765 402.166 519.092 402.357 521.485C402.616 522.785 402.59 524.125 402.282 525.414C402.116 526.056 401.765 526.635 401.273 527.078C400.781 527.522 400.169 527.811 399.513 527.909C387.469 528.688 375.584 525.801 363.857 522.946C360.412 522.107 356.909 521.126 354.036 519.048C351.426 517.161 349.507 514.492 347.635 511.871C344.183 507.038 340.71 502.168 338.24 496.768C335.061 489.818 333.644 482.215 332.254 474.7C331.775 472.685 331.605 470.609 331.749 468.543C332.166 466.127 333.09 463.826 334.46 461.793C336.117 459.097 337.95 456.513 339.947 454.057C342.982 450.172 347.342 447.54 352.194 446.664Z" fill="black"/>
<path d="M352.988 445.87C357.571 445.219 362.242 445.594 366.663 446.968C368.139 447.305 369.471 448.095 370.474 449.229C371.044 450.087 371.416 451.062 371.56 452.083C372.462 456.775 371.884 461.632 369.906 465.982C369.764 466.199 369.671 466.444 369.631 466.7C369.592 466.957 369.607 467.218 369.677 467.468C369.876 467.771 370.136 468.028 370.44 468.225C370.716 468.489 370.932 468.81 371.075 469.164C371.217 469.519 371.283 469.9 371.268 470.281C371.252 470.663 371.156 471.037 370.985 471.379C370.814 471.721 370.573 472.023 370.277 472.264C369.911 472.532 369.431 472.764 369.359 473.211C369.281 473.699 369.739 474.081 370.096 474.423C370.619 474.934 371.004 475.569 371.217 476.269C371.429 476.969 371.462 477.711 371.313 478.426C371.121 479.003 370.989 479.597 370.919 480.201C370.993 480.939 371.21 481.656 371.559 482.31C372.156 483.788 372.36 485.394 372.151 486.973C371.961 487.72 371.942 488.5 372.097 489.254C372.312 489.754 372.604 490.216 372.963 490.624C374.374 492.527 374.684 495.709 372.637 496.902C373.513 497.351 374.227 498.062 374.679 498.936C375.131 499.811 375.299 500.804 375.159 501.778C376.381 501.126 377.862 501.96 378.88 502.899C379.898 503.839 380.938 504.988 382.321 505.057C383.286 505.105 384.302 504.605 385.182 505.002C386.52 505.606 386.475 507.776 387.791 508.426C388.945 508.996 390.553 508.065 391.537 508.896C391.879 509.186 392.054 509.633 392.384 509.936C393.131 510.619 394.297 510.329 395.309 510.288C396.509 510.322 397.679 510.669 398.703 511.294C399.727 511.92 400.57 512.802 401.149 513.853C402.279 515.971 402.96 518.298 403.151 520.691C403.41 521.991 403.384 523.331 403.076 524.62C402.91 525.262 402.559 525.841 402.067 526.284C401.574 526.728 400.962 527.017 400.307 527.115C388.263 527.894 376.378 525.007 364.651 522.152C361.206 521.313 357.703 520.332 354.83 518.254C352.22 516.367 350.301 513.698 348.429 511.077C344.977 506.244 341.504 501.374 339.034 495.974C335.855 489.024 334.438 481.421 333.048 473.906C332.569 471.891 332.399 469.815 332.543 467.749C332.96 465.333 333.884 463.032 335.254 460.999C336.911 458.303 338.744 455.719 340.741 453.264C343.776 449.378 348.136 446.746 352.988 445.87Z" fill="#C850C0"/>
</g>
<defs>
<clipPath id="clip0_117_279">
<rect width="1055" height="667" fill="white"/>
</clipPath>
</defs>
</svg>
