<svg width="21" height="21" viewBox="0 0 21 21" fill="none" xmlns="http://www.w3.org/2000/svg">
<path fill-rule="evenodd" clip-rule="evenodd" d="M14.329 0C15.895 0 17.1911 1.29712 17.1911 2.8666V18.1334C17.1911 19.7029 15.895 21 14.329 21H10.5259C8.95982 21 7.6656 19.7029 7.6656 18.1334V14.3144C7.6656 13.0417 9.56996 13.0417 9.56996 14.3144V18.1334C9.56996 18.6785 9.98192 19.0914 10.5259 19.0914H14.329C14.8729 19.0914 15.2849 18.6785 15.2849 18.1334V2.8666C15.2849 2.32147 14.873 1.90858 14.329 1.90858H10.5259C9.9819 1.90858 9.56996 2.32147 9.56996 2.8666V6.68563C9.56996 7.95832 7.6656 7.95832 7.6656 6.68563V2.8666C7.6656 1.29712 8.95984 0 10.5259 0H14.329ZM20.0383 3.80412C20.1657 3.80286 20.2921 3.82724 20.4099 3.8758C20.5278 3.92437 20.6347 3.99614 20.7243 4.08686C20.814 4.17758 20.8846 4.28541 20.9319 4.40397C20.9792 4.52252 21.0023 4.64938 20.9998 4.77705V16.223C20.9943 16.4724 20.8916 16.7097 20.7136 16.8842C20.5356 17.0586 20.2966 17.1563 20.0476 17.1563C19.7987 17.1563 19.5597 17.0586 19.3817 16.8842C19.2037 16.7097 19.101 16.4724 19.0955 16.223V4.77705C19.093 4.65157 19.1153 4.52684 19.161 4.41C19.2067 4.29316 19.2749 4.1865 19.3618 4.09613C19.4487 4.00576 19.5525 3.93345 19.6673 3.88334C19.7822 3.83323 19.9057 3.80631 20.0309 3.80412C20.0334 3.80411 20.0359 3.80411 20.0383 3.80412V3.80412ZM4.76815 5.71643C4.79857 5.71621 4.82898 5.71746 4.85928 5.72016C5.04008 5.73783 5.21206 5.80696 5.35494 5.91939C5.49781 6.03183 5.60562 6.18287 5.66564 6.35471C5.72566 6.52654 5.73539 6.712 5.69367 6.88919C5.65196 7.06639 5.56054 7.22793 5.43022 7.35475L3.24504 9.54478H12.3744C12.4072 9.54308 12.4402 9.54308 12.473 9.54478C13.7427 9.61078 13.6442 11.5211 12.3744 11.4552H3.25062L5.43022 13.6378C5.52181 13.7255 5.59504 13.8306 5.64559 13.947C5.69615 14.0634 5.72303 14.1887 5.72466 14.3157C5.72629 14.4426 5.70263 14.5686 5.65507 14.6863C5.60751 14.8039 5.537 14.9109 5.44768 15.0009C5.35836 15.0909 5.25202 15.1622 5.13488 15.2105C5.01774 15.2588 4.89216 15.2832 4.7655 15.2823C4.63883 15.2814 4.51362 15.2551 4.39721 15.2051C4.28079 15.1551 4.17549 15.0823 4.0875 14.9909L0.276923 11.1719C0.0995567 10.9931 2.15021e-07 10.7512 2.15021e-07 10.4991C2.15021e-07 10.2469 0.0995567 10.005 0.276923 9.82622L4.0875 6.00905C4.1757 5.91719 4.28137 5.84396 4.39828 5.7937C4.51518 5.74344 4.64095 5.71717 4.76815 5.71643Z" fill="#858585"/>
</svg>
