<svg width="22" height="22" viewBox="0 0 22 22" fill="none" xmlns="http://www.w3.org/2000/svg">
<path d="M20.3077 0H1.69231C1.24348 0 0.813035 0.178296 0.495665 0.495665C0.178296 0.813035 0 1.24348 0 1.69231V20.3077C0 20.7565 0.178296 21.187 0.495665 21.5043C0.813035 21.8217 1.24348 22 1.69231 22H20.3077C20.7565 22 21.187 21.8217 21.5043 21.5043C21.8217 21.187 22 20.7565 22 20.3077V1.69231C22 1.24348 21.8217 0.813035 21.5043 0.495665C21.187 0.178296 20.7565 0 20.3077 0ZM20.3077 1.69231V5.07692H1.69231V1.69231H20.3077ZM11.8462 6.76923H20.3077V12.6923H11.8462V6.76923ZM10.1538 12.6923H1.69231V6.76923H10.1538V12.6923ZM1.69231 14.3846H10.1538V20.3077H1.69231V14.3846ZM11.8462 20.3077V14.3846H20.3077V20.3077H11.8462Z" fill="white"/>
</svg>
