<svg width="32" height="19" viewBox="0 0 32 19" fill="none" xmlns="http://www.w3.org/2000/svg">
<path fill-rule="evenodd" clip-rule="evenodd" d="M28.9232 12.0086C30.6663 12.2815 32 13.7925 32 15.616C32 17.0405 31.1856 18.2737 29.9984 18.8755C29.9095 18.9206 29.8186 18.9622 29.7255 19H11.4587V18.9994C9.13968 18.9848 7.26397 17.0968 7.26397 14.769C7.26397 12.4323 9.15401 10.5379 11.4856 10.5379C11.603 10.5379 11.7187 10.5441 11.8335 10.5534C11.827 10.446 11.8227 10.338 11.8227 10.229C11.8227 7.30434 14.1884 4.93339 17.1066 4.93339C19.1569 4.93339 20.9331 6.10451 21.8091 7.8148C22.5337 7.33854 23.3998 7.06057 24.3312 7.06057C26.8746 7.06057 28.9364 9.12692 28.9364 11.676C28.9364 11.7879 28.931 11.8986 28.9232 12.0086ZM10.9166 9.6327C8.34011 9.91745 6.32949 12.1122 6.32949 14.769C6.32949 15.8508 6.66561 16.8572 7.23789 17.6893H4.37184C1.95733 17.6893 0 15.7277 0 13.3079C0 10.995 1.78846 9.10207 4.05471 8.93897C3.97905 8.59549 3.938 8.23894 3.938 7.87272C3.938 5.14797 6.14195 2.93932 8.86055 2.93932C9.8797 2.93932 10.8264 3.24956 11.6118 3.78116C12.7272 1.54008 15.0358 0 17.7045 0C21.2298 0 24.129 2.68619 24.4759 6.12758C24.4276 6.12629 24.3796 6.12403 24.3312 6.12403C23.5731 6.12403 22.831 6.2781 22.144 6.57463C20.9849 4.96485 19.1284 3.99686 17.1066 3.99686C13.8786 3.99686 11.2171 6.47509 10.9166 9.6327Z" fill="#4F8AD8"/>
</svg>
