<svg width="22" height="21" viewBox="0 0 22 21" fill="none" xmlns="http://www.w3.org/2000/svg">
<path d="M20.8421 3.47369H19.6842V2.31579C19.6842 2.0087 19.5622 1.71418 19.3451 1.49704C19.1279 1.27989 18.8334 1.1579 18.5263 1.1579C18.2192 1.1579 17.9247 1.27989 17.7076 1.49704C17.4904 1.71418 17.3684 2.0087 17.3684 2.31579V3.47369H16.2105C15.9034 3.47369 15.6089 3.59568 15.3918 3.81283C15.1746 4.02997 15.0526 4.32449 15.0526 4.63158C15.0526 4.93867 15.1746 5.23319 15.3918 5.45034C15.6089 5.66748 15.9034 5.78948 16.2105 5.78948H17.3684V6.94737C17.3684 7.25446 17.4904 7.54898 17.7076 7.76613C17.9247 7.98327 18.2192 8.10527 18.5263 8.10527C18.8334 8.10527 19.1279 7.98327 19.3451 7.76613C19.5622 7.54898 19.6842 7.25446 19.6842 6.94737V5.78948H20.8421C21.1492 5.78948 21.4437 5.66748 21.6609 5.45034C21.878 5.23319 22 4.93867 22 4.63158C22 4.32449 21.878 4.02997 21.6609 3.81283C21.4437 3.59568 21.1492 3.47369 20.8421 3.47369ZM8.10526 9.26316C9.0213 9.26316 9.91677 8.99152 10.6784 8.4826C11.4401 7.97367 12.0337 7.25032 12.3843 6.40401C12.7348 5.5577 12.8266 4.62644 12.6478 3.728C12.4691 2.82957 12.028 2.0043 11.3803 1.35656C10.7325 0.708822 9.90728 0.267707 9.00884 0.0889966C8.1104 -0.0897139 7.17914 0.00200677 6.33283 0.35256C5.48652 0.703113 4.76317 1.29675 4.25425 2.05841C3.74532 2.82007 3.47368 3.71554 3.47368 4.63158C3.47368 5.85995 3.96165 7.03801 4.83024 7.9066C5.69883 8.77519 6.87689 9.26316 8.10526 9.26316ZM15.0526 20.8421C15.3597 20.8421 15.6542 20.7201 15.8714 20.503C16.0885 20.2858 16.2105 19.9913 16.2105 19.6842C16.2105 17.5346 15.3566 15.473 13.8365 13.9529C12.3165 12.4329 10.2549 11.5789 8.10526 11.5789C5.95561 11.5789 3.89401 12.4329 2.37398 13.9529C0.853945 15.473 3.20323e-08 17.5346 0 19.6842C0 19.9913 0.121992 20.2858 0.339139 20.503C0.556287 20.7201 0.850802 20.8421 1.15789 20.8421" fill="#858585"/>
</svg>
