<svg width="23" height="23" viewBox="0 0 23 23" fill="none" xmlns="http://www.w3.org/2000/svg">
<path fill-rule="evenodd" clip-rule="evenodd" d="M17.4265 15.7069C18.9437 13.7501 19.6587 11.2887 19.4261 8.82331C19.1935 6.35791 18.0308 4.07376 16.1745 2.43553C14.3182 0.797307 11.9078 -0.0719285 9.43363 0.00466355C6.95944 0.0812556 4.60735 1.09792 2.85587 2.84783C1.10286 4.59896 0.0832703 6.95289 0.00487896 9.42993C-0.0735124 11.907 0.795193 14.3207 2.43397 16.1793C4.07274 18.0378 6.35825 19.2013 8.82474 19.4326C11.2912 19.6639 13.7531 18.9457 15.7086 17.4242L15.7609 17.479L20.922 22.6433C21.035 22.7564 21.1692 22.8461 21.3169 22.9073C21.4646 22.9685 21.6229 23 21.7828 23C21.9426 23 22.1009 22.9685 22.2486 22.9073C22.3963 22.8461 22.5305 22.7564 22.6435 22.6433C22.7566 22.5302 22.8462 22.396 22.9074 22.2482C22.9686 22.1005 23.0001 21.9421 23.0001 21.7822C23.0001 21.6223 22.9686 21.4639 22.9074 21.3162C22.8462 21.1684 22.7566 21.0341 22.6435 20.9211L17.4813 15.758C17.4635 15.7404 17.4452 15.7234 17.4265 15.7069V15.7069ZM14.9007 4.57008C15.5877 5.24617 16.134 6.05163 16.5082 6.94C16.8824 7.82838 17.0771 8.78207 17.081 9.74609C17.0849 10.7101 16.898 11.6654 16.5311 12.5567C16.1641 13.4481 15.6244 14.258 14.943 14.9397C14.2616 15.6214 13.452 16.1613 12.561 16.5284C11.6699 16.8955 10.715 17.0825 9.7514 17.0786C8.78777 17.0746 7.83445 16.8799 6.94643 16.5055C6.05841 16.1312 5.25326 15.5847 4.57743 14.8975C3.22685 13.5242 2.47342 11.6726 2.48126 9.74609C2.4891 7.81958 3.25758 5.97422 4.6193 4.61196C5.98102 3.2497 7.82566 2.48092 9.7514 2.47308C11.6771 2.46523 13.528 3.21896 14.9007 4.57008Z" fill="white"/>
</svg>
