<svg width="32" height="22" viewBox="0 0 32 22" fill="none" xmlns="http://www.w3.org/2000/svg">
<path d="M1.25 2.00049C0.5662 2.00049 0 2.56667 0 3.25044V14.75C0 15.4339 0.5662 15.9999 1.25 15.9999H7.75V17.4999H3.75C3.64157 17.4999 3.53587 17.535 3.44922 17.6002C3.36257 17.6654 3.2996 17.757 3.26953 17.8612L2.26953 21.361C2.24806 21.4355 2.24427 21.5139 2.2583 21.5902C2.27234 21.6664 2.304 21.7383 2.35059 21.8002C2.39717 21.8622 2.45752 21.9123 2.52686 21.947C2.59619 21.9816 2.6725 21.9997 2.75 21.9997H17.25C17.3275 21.9997 17.4038 21.9817 17.4731 21.9471C17.5425 21.9125 17.6028 21.8622 17.6494 21.8002C17.696 21.7383 17.7277 21.6664 17.7417 21.5902C17.7557 21.5139 17.7519 21.4355 17.7305 21.361L16.7305 17.8612C16.7004 17.757 16.6375 17.6654 16.5508 17.6002C16.4641 17.535 16.3584 17.4999 16.25 17.4999H12.25V15.9999H19.25C19.9339 15.9999 20.5 15.4339 20.5 14.75V3.25044C20.5 2.56667 19.9339 2.00049 19.25 2.00049H1.25Z" fill="#586597"/>
<path d="M1.25 3.00049H19.25C19.3972 3.00049 19.5 3.10338 19.5 3.25048V14.75C19.5 14.8972 19.3972 15 19.25 15H1.25C1.1029 15 1 14.8972 1 14.75V3.25048C1 3.10338 1.1029 3.00049 1.25 3.00049Z" fill="#E6F4F6"/>
<path d="M8.75 16H11.25V18.4999H8.75V16Z" fill="#B4C9D5"/>
<path d="M4.12695 18.5H7.75V19C7.75001 19.1326 7.80272 19.2597 7.89648 19.3535C7.99025 19.4472 8.1174 19.4999 8.25 19.5H11.75C11.8826 19.4999 12.0098 19.4472 12.1035 19.3535C12.1973 19.2597 12.25 19.1326 12.25 19V18.5H15.873L16.5879 20.9999H3.41211L4.12695 18.5Z" fill="#91A6B8"/>
<path d="M22.5005 1.24899C22.5005 0.83351 22.835 0.499023 23.2505 0.499023H30.7505C31.166 0.499023 31.5005 0.83351 31.5005 1.24899V20.7482C31.5005 21.1637 31.166 21.4982 30.7505 21.4982H23.2505C22.835 21.4982 22.5005 21.1637 22.5005 20.7482C22.5005 14.2485 22.5005 7.74873 22.5005 1.24899Z" fill="#D7EDF2"/>
<path d="M23.25 1.3244e-10C22.5662 1.3244e-10 22 0.566117 22 1.24995V6.99972H23V1.24995C23 1.10281 23.1029 0.99995 23.25 0.99996H30.75C30.8972 0.99996 31 1.10281 31 1.24995V20.7492C31 20.8963 30.8972 20.9992 30.75 20.9992H23.25C23.1029 20.9992 23 20.8963 23 20.7492V9.9996H22V20.7492C22 21.433 22.5662 21.9991 23.25 21.9991H30.75C31.4339 21.9991 32 21.433 32 20.7492V1.24995C32 0.566117 31.4339 -9.99947e-06 30.75 1.3244e-10H23.25Z" fill="#586597"/>
<path d="M24 10.4995V11.4995H30V10.4995H24ZM27 12.4994C26.0395 12.4994 25.25 13.2888 25.25 14.2494C25.25 15.2099 26.0395 15.9993 27 15.9993C27.9606 15.9993 28.75 15.2099 28.75 14.2494C28.75 13.2888 27.9606 12.4994 27 12.4994Z" fill="#586597"/>
<path d="M27 13.4995C27.4202 13.4995 27.75 13.8294 27.75 14.2495C27.75 14.6696 27.4202 14.9995 27 14.9995C26.5799 14.9995 26.25 14.6696 26.25 14.2495C26.25 13.8294 26.5799 13.4995 27 13.4995Z" fill="#EEF396"/>
<path d="M27.5005 17.4985C27.5005 17.7746 27.2766 17.9985 27.0005 17.9985C26.7244 17.9985 26.5005 17.7746 26.5005 17.4985C26.5005 17.2224 26.7244 16.9985 27.0005 16.9985C27.2766 16.9985 27.5005 17.2224 27.5005 17.4985Z" fill="#91A6B8"/>
<path d="M24.5 2V2.99996H29.5V2H24.5ZM24.5 3.99992V4.99988H29.5V3.99992H24.5ZM24.5 5.99984V6.9998H29.5V5.99984H24.5ZM24.5 7.99976V8.99972H29.5V7.99976H24.5Z" fill="#91A6B8"/>
<path d="M27.5005 19.4983C27.5005 19.7744 27.2766 19.9983 27.0005 19.9983C26.7244 19.9983 26.5005 19.7744 26.5005 19.4983C26.5005 19.2222 26.7244 18.9983 27.0005 18.9983C27.2766 18.9983 27.5005 19.2222 27.5005 19.4983Z" fill="#91A6B8"/>
<path d="M22 7.99976V8.99972H23V7.99976H22Z" fill="#586597"/>
<path d="M17.5 12.9994V13.9994H18.5V12.9994H17.5ZM17.5 3.99976V11.9994H18.5V3.99976H17.5Z" fill="#91A6B8"/>
</svg>
