<svg width="461" height="308" viewBox="0 0 461 308" fill="none" xmlns="http://www.w3.org/2000/svg">
<rect x="123" y="69" width="217" height="207" fill="white"/>
<path d="M371.593 116.265C358.15 49.9564 300.538 0 230.448 0C174.757 0 126.747 31.7103 102.737 77.8224C45.1248 83.5888 0 132.598 0 192.212C0 255.633 51.8415 307.539 115.224 307.539H364.877C417.683 307.539 460.897 264.287 460.897 211.433C460.998 187.148 451.797 163.747 435.185 146.044C418.574 128.342 395.816 117.685 371.593 116.265V116.265ZM261.165 172.944V245.985H199.713V172.944H134.419L230.439 76.8848L326.459 172.991L261.165 172.944Z" fill="url(#paint0_linear_353_5)"/>
<defs>
<linearGradient id="paint0_linear_353_5" x1="230.085" y1="401.225" x2="230.085" y2="-100.275" gradientUnits="userSpaceOnUse">
<stop stop-color="#4158D0"/>
<stop offset="1" stop-color="#C850C0"/>
</linearGradient>
</defs>
</svg>
