<svg width="636" height="580" viewBox="0 0 636 580" fill="none" xmlns="http://www.w3.org/2000/svg">
<path opacity="0.1" d="M571.09 220.875C571.901 219.72 572.348 218.348 572.374 216.937C572.374 208.386 554.968 201.466 533.497 201.466C512.026 201.466 494.621 208.386 494.621 216.937C494.66 218.536 495.223 220.078 496.223 221.325C472.316 223.997 456.213 229.004 456.213 234.752C456.213 243.294 491.81 250.223 535.839 250.223C579.868 250.223 615.466 243.294 615.466 234.752C615.419 228.704 597.32 223.407 571.09 220.875Z" fill="#C850C0"/>
<path d="M471.791 186.511C458.349 120.203 400.737 70.2465 330.647 70.2465C274.955 70.2465 226.945 101.957 202.935 148.069C145.323 153.835 100.198 202.845 100.198 262.459C100.198 325.879 152.04 377.786 215.422 377.786H465.075C517.881 377.786 561.095 334.533 561.095 281.68C561.196 257.394 551.995 233.993 535.383 216.291C518.772 198.588 496.014 187.931 471.791 186.511ZM361.364 243.19V316.231H299.911V243.19H234.617L330.637 147.131L426.657 243.237L361.364 243.19Z" fill="url(#paint0_linear_104_90)"/>
<path d="M236.734 232.22C235.797 226.866 236.256 221.1 233.802 216.281C233.564 215.712 233.18 215.217 232.687 214.846C232.076 214.516 231.386 214.357 230.692 214.387C228.472 214.302 226.261 214.274 224.041 214.331C223.422 214.331 222.692 214.424 222.373 214.968C222.336 215.026 222.307 215.089 222.289 215.156C219.75 212.343 217.83 208.789 215.094 206.164C215.488 206.033 215.872 205.911 216.275 205.808C216.275 205.536 216.181 205.282 216.125 205.02C216.125 204.936 216.078 204.861 216.059 204.786C216.041 204.711 215.975 204.429 215.919 204.251C215.863 204.073 215.863 204.073 215.825 203.989C215.777 203.82 215.721 203.654 215.657 203.492C215.657 203.407 215.591 203.323 215.553 203.238L215.357 202.742L215.244 202.507C215.169 202.338 215.094 202.17 215.01 202.01L214.898 201.804C214.813 201.626 214.72 201.448 214.626 201.269L214.532 201.101C214.429 200.913 214.317 200.726 214.214 200.529C214.187 200.498 214.165 200.463 214.148 200.426C214.027 200.21 213.895 199.994 213.764 199.788C212.696 198.044 211.516 196.328 210.645 194.537C209.118 191.387 208.612 187.833 207.591 184.477C206.57 181.12 204.78 177.707 201.745 176.104C200.275 175.354 198.307 174.688 198.167 173.028C198.162 172.495 198.274 171.967 198.495 171.481C198.916 170.406 199.427 169.368 200.022 168.378C200.246 168.021 200.481 167.665 200.715 167.309L200.902 167.056C201.09 166.793 201.286 166.531 201.483 166.287L201.727 165.977C201.923 165.734 202.129 165.509 202.335 165.274L202.588 165.002C202.879 164.693 203.169 164.393 203.478 164.065C203.763 163.845 203.988 163.559 204.134 163.23C204.215 162.905 204.231 162.568 204.181 162.236C204.031 159.555 205.436 157.051 206.991 154.895C208.546 152.738 210.382 150.694 211.272 148.172C211.375 147.881 211.46 147.591 211.535 147.291C211.562 147.195 211.584 147.098 211.6 147C211.647 146.803 211.685 146.606 211.722 146.4L211.778 146.062C211.778 145.875 211.825 145.687 211.844 145.509V145.144V144.59V144.225C211.844 144.047 211.844 143.859 211.844 143.671C211.844 143.484 211.844 143.437 211.844 143.315C211.844 143.193 211.844 142.921 211.797 142.725V142.406C211.797 142.181 211.731 141.946 211.703 141.721C211.703 141.646 211.703 141.571 211.703 141.496C211.66 141.19 211.603 140.877 211.535 140.559C211.088 138.567 210.513 136.606 209.811 134.689C209.438 133.512 208.961 132.37 208.387 131.276C208.734 131.211 209.09 131.136 209.436 131.042C209.161 130.611 208.908 130.167 208.678 129.71C210.834 126.531 212.451 123.018 213.464 119.312C214.001 116.665 214.315 113.977 214.401 111.277C214.916 103.157 215.441 94.9997 214.767 86.8986V86.5798C215.019 84.84 215.038 83.0741 214.823 81.3292C214.606 77.916 213.599 74.6001 211.881 71.6436C210.064 68.7745 207.066 66.2429 203.731 65.9053C203.181 66.525 202.572 67.0902 201.914 67.593C200.91 66.7104 200.173 65.5638 199.787 64.2832C203.681 63.6716 207.267 61.7972 209.993 58.9481C212.72 56.0989 214.436 52.4327 214.879 48.5125C214.879 48.2218 214.945 47.9218 214.963 47.6311C214.963 47.5092 214.963 47.3873 214.963 47.2655C214.963 47.1436 214.963 46.9185 214.963 46.7498C214.963 46.581 214.963 46.4403 214.963 46.281V45.8965C214.963 45.7184 214.963 45.5309 214.963 45.3527C214.963 45.1746 214.963 45.1558 214.963 45.062C214.963 44.9683 214.963 44.6495 214.907 44.4526C214.912 44.3808 214.912 44.3088 214.907 44.2369L214.823 43.5806V43.44C214.823 43.2056 214.748 42.9712 214.701 42.7368V42.6617C214.654 42.4086 214.598 42.1648 214.532 41.9116C214.113 40.205 213.447 38.5688 212.556 37.0548C213.289 35.3982 213.769 33.6409 213.98 31.8416C213.98 31.5134 214.045 31.1947 214.064 30.904C214.083 30.6133 214.064 30.4914 214.064 30.2852C214.064 30.0789 214.064 30.0789 214.064 29.9851C214.064 29.7132 214.064 29.4413 214.064 29.1788C214.059 29.1508 214.059 29.1223 214.064 29.0944C213.929 24.5885 212.13 20.2926 209.015 17.0366C209.372 16.4423 209.67 15.8142 209.905 15.1614C209.98 14.9645 210.045 14.7676 210.101 14.5613C210.158 14.3644 210.214 14.1769 210.261 13.98V13.9331L210.373 13.3986C210.368 13.3676 210.368 13.3359 210.373 13.3049C210.373 13.0986 210.439 12.8829 210.467 12.6673C210.495 12.4516 210.467 12.2266 210.523 12.011C210.523 11.9453 210.523 11.8703 210.523 11.8047C210.523 11.739 210.523 11.4953 210.523 11.3452V11.1202C210.523 10.9702 210.523 10.8108 210.523 10.6608C210.523 10.5108 210.523 10.5295 210.523 10.4639C210.365 7.67836 209.164 5.05468 207.16 3.11586C205.155 1.17704 202.494 0.0654977 199.708 0.00280356C196.921 -0.0598906 194.213 0.93087 192.123 2.77759C190.034 4.62431 188.716 7.19133 188.434 9.96694C188.298 11.1003 188.333 12.2475 188.537 13.3705C185.813 14.7 183.466 16.6917 181.71 19.1634C179.954 21.6351 178.845 24.5079 178.485 27.5192C178.367 28.5272 178.333 29.5433 178.382 30.5571C176.766 33.0957 175.8 35.9942 175.572 38.9956C175.572 39.1082 175.572 39.2207 175.572 39.3332C175.572 39.7082 175.525 40.0927 175.525 40.4677C175.517 43.2448 176.143 45.987 177.356 48.4847C178.569 50.9824 180.336 53.1695 182.523 54.8789C183.437 56.3564 184.641 57.6324 186.064 58.6294C186.32 59.393 186.512 60.1772 186.635 60.9735C186.739 62.0439 186.6 63.1241 186.227 64.1327C185.853 65.1413 185.256 66.052 184.48 66.7961C184.078 67.1336 183.628 67.4149 183.206 67.7337C182.781 67.612 182.33 67.612 181.904 67.7337C177.07 69.2526 172.443 72.2624 170.223 76.8661C169.73 77.9134 169.341 79.0062 169.061 80.129L168.799 80.5322C165.862 85.1312 163.751 90.2081 162.56 95.5341C161.951 98.2626 161.567 101.094 160.293 103.579C159.987 104.097 159.739 104.648 159.553 105.22C159.445 106.094 159.407 106.975 159.44 107.854C159.309 109.448 158.382 110.864 158.073 112.43C157.885 113.368 157.923 114.305 157.763 115.243C157.317 116.854 156.731 118.422 156.012 119.931C155.019 122.688 155.028 125.716 154.288 128.557C154.198 129.025 153.999 129.465 153.707 129.842C153.121 130.299 152.463 130.654 151.759 130.892C151.244 131.215 150.803 131.643 150.465 132.149C150.128 132.655 149.901 133.227 149.801 133.826C149.606 135.036 149.584 136.267 149.735 137.483L150.101 142.237L144.78 143.85L136.049 146.522C133.49 147.169 131.045 148.203 128.798 149.588C126.795 150.984 125.214 152.904 124.227 155.139C123.341 157.468 122.771 159.906 122.531 162.386C121.687 169.327 120.185 176.171 118.044 182.826C117.866 183.333 117.679 183.848 117.491 184.355L116.901 185.846C116.854 185.949 116.807 186.052 116.77 186.155L116.264 187.346C116.039 187.852 115.805 188.349 115.561 188.846L136.011 195.672C136.011 195.916 136.058 196.178 136.096 196.469C136.808 201.494 136.461 206.595 137.117 211.63C137.201 212.467 137.394 213.29 137.688 214.077C137.169 214.527 136.794 215.121 136.611 215.784C136.38 216.856 136.345 217.962 136.508 219.047C136.742 221.616 136.967 224.185 137.201 226.754C137.312 227.688 137.312 228.633 137.201 229.567C136.948 231.264 135.974 232.755 135.44 234.377C134.906 235.999 134.934 238.08 136.274 239.065C136.741 239.385 137.283 239.579 137.847 239.63C138.411 239.681 138.979 239.587 139.496 239.356C140.529 238.88 141.441 238.179 142.166 237.302C146.278 232.727 148.124 226.548 151.318 221.269C152.141 220.052 152.873 218.776 153.51 217.453C153.951 216.431 154.232 215.343 154.588 214.284C155.08 212.873 155.668 211.497 156.349 210.167C156.733 209.408 158.222 207.58 157.885 206.736C157.361 205.282 151.749 204.007 150.391 203.557C149.524 203.17 148.544 203.127 147.646 203.435C147.511 203.5 147.385 203.582 147.271 203.679L146.794 197.481C147.627 197.406 148.452 197.303 149.267 197.163C149.267 196 149.239 194.828 149.182 193.647C149.182 192.578 149.136 191.499 149.108 190.421C149.051 187.796 148.995 185.171 148.93 182.592C148.912 181.072 148.816 179.554 148.639 178.045C148.321 175.747 147.618 173.497 147.393 171.181C147.731 170.913 148.13 170.733 148.555 170.656C149.211 170.551 149.878 170.526 150.541 170.581H151.065C153.973 170.539 156.821 169.751 159.337 168.293C161.913 166.953 164.302 165.274 166.831 163.896L167.768 163.399L168.124 163.221L168.724 162.921L169.22 162.686L169.333 162.63C170.822 161.918 172.33 161.224 173.773 160.446C173.871 160.604 173.977 160.758 174.092 160.905C174.441 161.381 174.924 161.744 175.479 161.946C176.035 162.147 176.637 162.18 177.211 162.039C175.44 166.306 173.361 170.431 172.836 175.044C172.068 181.711 174.71 188.171 177.342 194.378L185.67 214.068C186.607 216.243 187.815 218.681 190.092 219.197C191.538 219.392 193.009 219.098 194.27 218.362C198.082 216.543 201.511 213.937 205.005 211.499L205.146 211.611C208.303 214.105 210.279 217.584 212.462 220.913L218.298 230.514C218.258 230.995 218.339 231.478 218.532 231.92C218.958 232.715 219.512 233.434 220.172 234.049C223.881 238.047 226.326 243.055 227.198 248.441C227.274 249.82 227.672 251.163 228.359 252.36C229.924 254.536 233.259 254.395 235.61 253.157C236.336 252.825 236.963 252.308 237.427 251.657C237.822 250.958 238.071 250.186 238.158 249.388C238.587 247.403 238.823 245.381 238.861 243.35C238.823 239.665 237.409 235.999 236.734 232.22ZM203.225 55.554C203.634 55.2847 204.028 54.9936 204.406 54.682C203.615 57.0624 202.339 59.2526 200.659 61.1141C200.265 61.5454 199.844 61.9486 199.413 62.3424V62.0423C199.366 61.1047 199.413 60.064 199.413 59.0701C200.915 58.1768 202.213 56.9792 203.225 55.554ZM170.148 129.542L170.204 129.363C170.536 129.603 170.824 129.898 171.056 130.235C170.829 130.739 170.723 131.288 170.746 131.84C170.768 132.392 170.92 132.931 171.187 133.414C171.675 134.239 172.555 135.008 172.368 135.955C172.18 136.902 170.981 137.277 170.007 137.436C168.724 137.643 167.459 137.877 166.194 138.13C166.194 138.13 166.194 138.13 166.194 138.065C166.222 137.008 166.08 135.954 165.773 134.942C167.956 134.005 169.305 131.773 170.148 129.542Z" fill="url(#paint1_linear_104_90)"/>
<path d="M209.137 20.3839C209.977 18.9597 210.491 17.3657 210.639 15.718C210.786 14.0703 210.566 12.4103 209.992 10.8589C209.418 9.30736 208.506 7.90338 207.322 6.74908C206.138 5.59478 204.712 4.71919 203.147 4.18602C201.583 3.65285 199.919 3.47551 198.277 3.6669C196.635 3.85829 195.057 4.4136 193.657 5.29243C192.256 6.17125 191.069 7.35148 190.182 8.74725C189.295 10.143 188.729 11.7192 188.527 13.3611C188.387 14.4817 188.422 15.6173 188.63 16.7272C185.447 18.2369 182.783 20.658 180.975 23.6841C179.168 26.7101 178.298 30.205 178.476 33.7262C176.97 36.0611 176.028 38.715 175.725 41.4776C175.422 44.2401 175.767 47.0353 176.731 49.6414C177.695 52.2476 179.253 54.593 181.28 56.4918C183.308 58.3906 185.749 59.7905 188.412 60.5805C191.074 61.3705 193.883 61.5289 196.617 61.0431C199.351 60.5573 201.934 59.4407 204.162 57.7818C206.389 56.1229 208.2 53.9673 209.451 51.486C210.701 49.0047 211.357 46.2659 211.366 43.4868C211.366 43.1962 211.366 42.9149 211.366 42.6336C213.579 39.2276 214.569 35.1693 214.172 31.1257C213.776 27.0822 212.016 23.294 209.183 20.3839H209.137Z" fill="#46455B"/>
<g opacity="0.1">
<path opacity="0.1" d="M188.499 13.9049L188.649 13.8206C188.611 13.6283 188.583 13.4343 188.565 13.2392C188.56 13.2797 188.56 13.3206 188.565 13.3611C188.533 13.5411 188.511 13.7226 188.499 13.9049Z" fill="black"/>
<path opacity="0.1" d="M214.083 32.1135C213.759 34.8333 212.814 37.4418 211.319 39.7364C211.319 40.0177 211.319 40.299 211.319 40.5802C211.297 45.1851 209.502 49.6042 206.308 52.9179C203.113 56.2316 198.765 58.1846 194.168 58.3707C189.571 58.5567 185.079 56.9613 181.627 53.9166C178.176 50.8718 176.03 46.6122 175.637 42.0242C175.637 42.5117 175.572 42.9618 175.572 43.4869C175.572 48.2315 177.455 52.7819 180.807 56.1368C184.159 59.4918 188.705 61.3766 193.445 61.3766C198.186 61.3766 202.732 59.4918 206.084 56.1368C209.436 52.7819 211.319 48.2315 211.319 43.4869C211.319 43.1962 211.319 42.9149 211.319 42.6336C212.817 40.3408 213.763 37.7314 214.083 35.0108C214.231 33.8131 214.253 32.6032 214.148 31.4009C214.176 31.6353 214.12 31.8791 214.083 32.1135Z" fill="black"/>
<path opacity="0.1" d="M210.607 13.2299C210.411 14.734 209.911 16.1824 209.137 17.4867C209.455 17.8054 209.745 18.143 210.073 18.4805C210.359 17.6895 210.554 16.8685 210.654 16.0333C210.76 15.1008 210.745 14.1583 210.607 13.2299Z" fill="black"/>
</g>
<path d="M137.117 212.315C137.202 213.332 137.478 214.325 137.932 215.24C138.16 215.697 138.494 216.093 138.907 216.395C139.319 216.697 139.797 216.895 140.302 216.975C141.228 216.98 142.136 216.716 142.915 216.215C144.499 215.381 146.157 214.415 146.981 212.821C147.805 211.227 147.674 209.445 147.534 207.711L146.466 194.069C143.899 193.993 141.313 193.994 138.737 194.134C136.161 194.275 135.74 194.875 136.096 197.369C136.798 202.32 136.423 207.355 137.117 212.315Z" fill="#FBBEBE"/>
<path d="M212.64 221.531L218.757 231.433C219.023 232.01 219.504 232.461 220.097 232.689C220.535 232.755 220.982 232.676 221.371 232.464C223.351 231.426 225.091 229.982 226.476 228.226C227.585 227.193 228.428 225.906 228.931 224.476C229.129 223.682 229.121 222.851 228.908 222.062C228.695 221.273 228.284 220.551 227.713 219.966C227.005 219.335 226.236 218.776 225.418 218.297C220.575 215.024 218.392 208.817 213.614 205.461C213.347 205.235 213.023 205.089 212.678 205.039C212.323 205.064 211.981 205.18 211.685 205.376L205.127 208.958C202.317 210.505 203.188 210.693 205.343 212.361C208.481 214.818 210.429 218.25 212.64 221.531Z" fill="#FBBEBE"/>
<path d="M150.41 204.42C149.54 204.042 148.559 204.009 147.665 204.326C147.269 204.567 146.933 204.896 146.684 205.288C146.436 205.68 146.281 206.124 146.232 206.586C146.063 207.523 146.082 208.461 145.829 209.333C145.264 210.786 144.347 212.075 143.159 213.083C142.711 213.613 142.133 214.017 141.482 214.255C140.592 214.481 139.655 214.068 138.756 214.255C138.233 214.392 137.758 214.668 137.38 215.055C137.002 215.441 136.736 215.923 136.611 216.45C136.375 217.506 136.34 218.597 136.508 219.666L137.201 227.26C137.315 228.194 137.315 229.139 137.201 230.073C136.948 231.751 135.974 233.214 135.44 234.817C134.906 236.421 134.925 238.465 136.274 239.506C136.746 239.82 137.289 240.01 137.854 240.059C138.418 240.109 138.986 240.015 139.506 239.787C140.537 239.322 141.45 238.63 142.175 237.762C146.297 233.261 148.143 227.157 151.346 221.963C152.166 220.767 152.898 219.513 153.539 218.212C153.979 217.2 154.26 216.131 154.616 215.09C155.109 213.696 155.701 212.34 156.386 211.03C156.761 210.28 158.26 208.48 157.923 207.645C157.426 206.126 151.796 204.861 150.41 204.42Z" fill="#46455B"/>
<path d="M224.8 225.394C223.873 227.146 222.321 228.485 220.453 229.145C219.915 229.293 219.414 229.551 218.982 229.904C218.699 230.25 218.523 230.672 218.476 231.117C218.43 231.562 218.514 232.011 218.72 232.408C219.149 233.194 219.707 233.904 220.369 234.508C224.068 238.432 226.514 243.371 227.395 248.694C227.48 250.058 227.881 251.384 228.565 252.567C230.13 254.714 233.474 254.573 235.835 253.345C236.555 253.016 237.181 252.509 237.652 251.873C238.047 251.184 238.295 250.421 238.383 249.632C238.812 247.675 239.048 245.681 239.086 243.678C239.086 239.927 237.624 236.28 236.95 232.567C236.013 227.288 236.463 221.597 234.008 216.834C233.777 216.264 233.399 215.766 232.912 215.39C232.295 215.065 231.604 214.91 230.907 214.94C228.697 214.856 226.467 214.837 224.247 214.884C223.629 214.884 222.898 214.977 222.579 215.512C222.468 215.81 222.432 216.132 222.474 216.447C222.517 216.763 222.636 217.063 222.823 217.321C224.181 220.012 226.411 222.141 224.8 225.394Z" fill="#46455B"/>
<path d="M172.096 130.789C171.477 131.302 171.057 132.017 170.91 132.809C170.763 133.6 170.897 134.418 171.291 135.12C171.787 135.936 172.668 136.696 172.471 137.633C172.274 138.571 171.084 138.927 170.11 139.087C161.51 140.455 153.136 142.978 144.817 145.49L136.067 148.125C133.506 148.758 131.055 149.776 128.798 151.144C126.8 152.509 125.217 154.401 124.227 156.611C123.338 158.904 122.764 161.308 122.522 163.755C121.21 172.71 119.533 181.739 115.543 189.859L136.742 196.825C138.8 197.579 140.932 198.113 143.103 198.419C145.171 198.596 147.253 198.495 149.295 198.119C149.164 193.384 149.079 188.499 148.948 183.755C148.936 182.257 148.839 180.76 148.658 179.273C148.339 177.004 147.637 174.791 147.412 172.503C148.349 171.697 149.819 171.903 151.084 171.931C153.995 171.892 156.849 171.121 159.384 169.69C161.951 168.359 164.349 166.709 166.878 165.349C171.141 163.09 175.993 161.599 179.253 158.008C177.595 164.337 173.632 169.85 172.911 176.348C172.19 182.845 174.785 189.334 177.436 195.4L185.783 214.79C186.719 216.928 187.928 219.337 190.204 219.844C191.652 220.033 193.123 219.743 194.392 219.019C202.073 215.418 208.218 208.639 216.425 206.483C215.806 202.413 212.603 199.047 210.804 195.362C209.268 192.259 208.771 188.752 207.75 185.442C206.729 182.133 204.94 178.767 201.886 177.191C200.415 176.451 198.438 175.794 198.307 174.154C198.295 173.625 198.407 173.102 198.635 172.625C199.731 169.857 201.438 167.373 203.628 165.359C203.907 165.137 204.131 164.855 204.284 164.534C204.356 164.226 204.372 163.909 204.331 163.596C204.172 160.952 205.586 158.486 207.141 156.357C208.696 154.229 210.542 152.213 211.432 149.729C212.959 145.444 211.432 140.737 209.933 136.452C209.44 134.674 208.586 133.017 207.422 131.586C205.455 129.485 202.401 128.876 199.534 128.557C190.307 127.507 179.45 125.078 172.096 130.789Z" fill="#46455B"/>
<g opacity="0.1">
<path opacity="0.1" d="M207.169 149.55C205.595 151.679 204.181 154.145 204.359 156.789C204.4 157.102 204.384 157.419 204.312 157.726C204.159 158.048 203.935 158.33 203.656 158.551C201.466 160.566 199.759 163.05 198.663 165.818C198.436 166.295 198.324 166.818 198.335 167.346C198.432 167.843 198.656 168.305 198.984 168.69C199.312 169.074 199.734 169.367 200.209 169.54C201.163 167.98 202.329 166.56 203.675 165.321C203.954 165.1 204.178 164.817 204.331 164.496C204.403 164.189 204.419 163.871 204.378 163.558C204.218 160.914 205.633 158.448 207.188 156.32C208.743 154.192 210.588 152.176 211.478 149.691C212.246 147.26 212.324 144.663 211.703 142.19C211.641 142.434 211.566 142.678 211.478 142.921C210.57 145.406 208.752 147.431 207.169 149.55Z" fill="black"/>
<path opacity="0.1" d="M171.131 132.073C171.442 132.01 171.731 131.865 171.966 131.652C172.202 131.439 172.376 131.167 172.471 130.864C172.489 130.742 172.489 130.619 172.471 130.498L172.068 130.789C171.655 131.133 171.333 131.574 171.131 132.073Z" fill="black"/>
<path opacity="0.1" d="M143.103 191.649C140.932 191.344 138.8 190.809 136.742 190.056L118.006 183.905C117.298 185.937 116.469 187.925 115.524 189.859L136.742 196.825C138.8 197.579 140.932 198.113 143.103 198.419C145.171 198.596 147.253 198.495 149.295 198.119C149.229 195.897 149.182 193.637 149.126 191.378C147.139 191.73 145.114 191.822 143.103 191.649Z" fill="black"/>
<path opacity="0.1" d="M194.42 212.249C193.151 212.974 191.681 213.263 190.232 213.074C187.956 212.568 186.729 210.158 185.811 208.02L177.464 188.63C175.59 184.364 173.764 179.929 173.089 175.382C173.033 175.701 172.986 176.019 172.939 176.319C172.18 182.883 174.813 189.305 177.464 195.372L185.811 214.762C186.747 216.9 187.956 219.309 190.232 219.816C191.681 220.005 193.151 219.715 194.42 218.99C202.101 215.39 208.247 208.611 216.453 206.454C216.026 204.325 215.168 202.305 213.933 200.519C206.944 203.267 201.296 209.014 194.42 212.249Z" fill="black"/>
<path opacity="0.1" d="M179.281 151.238C176.021 154.801 171.169 156.32 166.906 158.58C164.349 159.939 161.951 161.589 159.412 162.921C156.877 164.355 154.023 165.128 151.112 165.171C149.848 165.171 148.424 164.927 147.44 165.734C147.646 167.843 148.255 169.897 148.602 171.988C149.434 171.875 150.276 171.856 151.112 171.931C154.023 171.892 156.877 171.121 159.412 169.69C161.979 168.359 164.377 166.709 166.906 165.349C169.717 163.858 172.78 162.696 175.478 161.046C176.977 157.871 178.248 154.593 179.281 151.238Z" fill="black"/>
</g>
<path d="M186.719 63.6832C186.823 64.7395 186.682 65.8054 186.308 66.7987C185.935 67.7919 185.338 68.6861 184.565 69.412C184.05 69.8527 183.441 70.1809 182.944 70.6403C182.498 71.0976 182.156 71.6468 181.944 72.2496C181.731 72.8524 181.653 73.4944 181.713 74.1308C181.774 74.7672 181.972 75.3828 182.295 75.9345C182.618 76.4862 183.057 76.961 183.581 77.3255C185.267 78.3569 187.413 78.0756 189.361 77.7381C191.959 77.3792 194.506 76.7152 196.949 75.7597C199.407 74.7954 201.499 73.0794 202.926 70.856C201.9 70.2005 201.052 69.3008 200.459 68.2372C199.865 67.1737 199.545 65.9795 199.525 64.7614C199.394 62.333 200.059 59.5764 198.523 57.6918C196.987 55.8072 194.261 55.8916 191.965 56.5104C190.832 56.8292 189.736 57.2605 188.602 57.5699C188.022 57.7199 186.129 57.7293 185.792 58.1512C185.136 58.9201 186.654 62.4549 186.719 63.6832Z" fill="#FBBEBE"/>
<path opacity="0.1" d="M186.719 63.6832C186.823 64.7395 186.682 65.8054 186.308 66.7987C185.935 67.7919 185.338 68.6861 184.565 69.412C184.05 69.8527 183.441 70.1809 182.944 70.6403C182.498 71.0976 182.156 71.6468 181.944 72.2496C181.731 72.8524 181.653 73.4944 181.713 74.1308C181.774 74.7672 181.972 75.3828 182.295 75.9345C182.618 76.4862 183.057 76.961 183.581 77.3255C185.267 78.3569 187.413 78.0756 189.361 77.7381C191.959 77.3792 194.506 76.7152 196.949 75.7597C199.407 74.7954 201.499 73.0794 202.926 70.856C201.9 70.2005 201.052 69.3008 200.459 68.2372C199.865 67.1737 199.545 65.9795 199.525 64.7614C199.394 62.333 200.059 59.5764 198.523 57.6918C196.987 55.8072 194.261 55.8916 191.965 56.5104C190.832 56.8292 189.736 57.2605 188.602 57.5699C188.022 57.7199 186.129 57.7293 185.792 58.1512C185.136 58.9201 186.654 62.4549 186.719 63.6832Z" fill="black"/>
<path d="M193.23 63.5519C200.168 63.5519 205.792 57.9226 205.792 50.9785C205.792 44.0343 200.168 38.405 193.23 38.405C186.292 38.405 180.668 44.0343 180.668 50.9785C180.668 57.9226 186.292 63.5519 193.23 63.5519Z" fill="#FBBEBE"/>
<path d="M153.567 147.422C153.346 148.423 152.946 149.376 152.386 150.235C150.917 152.837 150.388 155.867 150.888 158.814C151.151 160.275 151.77 161.649 152.689 162.813C153.609 163.977 154.802 164.897 156.162 165.49C156.729 165.773 157.362 165.902 157.995 165.862C158.628 165.823 159.24 165.617 159.768 165.265C158.091 163.08 157.998 160.099 158.101 157.342C158.071 156.828 158.192 156.317 158.447 155.87C158.518 155.765 158.608 155.676 158.714 155.607C158.82 155.538 158.938 155.491 159.063 155.469C159.187 155.447 159.314 155.451 159.437 155.479C159.56 155.508 159.676 155.561 159.778 155.636C159.731 157.372 160.067 159.097 160.761 160.689C161.024 161.299 161.473 161.974 162.148 161.955C163.084 161.955 163.356 160.633 163.319 159.677C163.178 155.776 162.981 151.716 161.108 148.303C160.283 147.133 159.651 145.838 159.234 144.468C159.22 143.981 159.049 143.511 158.747 143.128C158.542 142.965 158.301 142.852 158.045 142.8C156.967 142.49 154.4 141.543 153.511 142.556C152.621 143.568 153.735 146.128 153.567 147.422Z" fill="#FBBEBE"/>
<path d="M172.218 80.6353C170.775 80.4666 169.642 81.7886 168.855 83.0075C165.911 87.5437 163.793 92.5655 162.597 97.8406C161.988 100.532 161.614 103.326 160.33 105.773C160.025 106.282 159.777 106.822 159.59 107.386C159.487 108.25 159.449 109.122 159.478 109.992C159.347 111.558 158.419 112.955 158.11 114.502C157.923 115.44 157.96 116.377 157.792 117.315C157.511 118.928 156.621 120.372 156.049 121.919C155.047 124.638 155.056 127.619 154.316 130.423C154.226 130.882 154.027 131.313 153.735 131.679C153.239 132.233 152.433 132.364 151.787 132.72C151.271 133.035 150.829 133.456 150.49 133.956C150.151 134.455 149.922 135.022 149.82 135.617C149.624 136.808 149.602 138.021 149.754 139.218L150.335 146.653C150.925 146.4 151.272 145.715 151.815 145.312C152.752 144.562 154.054 144.731 155.215 144.937L156.911 145.247C158.644 145.556 160.527 145.959 161.595 147.328C162.475 145.941 161.979 143.906 163.328 142.987C163.768 142.687 164.321 142.593 164.78 142.331C165.217 142.047 165.58 141.662 165.838 141.208C166.095 140.755 166.24 140.246 166.26 139.724C166.288 138.68 166.145 137.638 165.839 136.639C168.012 135.702 169.361 133.517 170.213 131.314C171.147 128.646 171.824 125.896 172.237 123.1C174.195 112.046 175.984 100.916 176.171 89.6927C176.295 87.818 176.089 85.9361 175.562 84.1326C174.982 82.3512 174.082 80.8416 172.218 80.6353Z" fill="#C850C0"/>
<path opacity="0.1" d="M172.218 80.6353C170.775 80.4666 169.642 81.7886 168.855 83.0075C165.911 87.5437 163.793 92.5655 162.597 97.8406C161.988 100.532 161.614 103.326 160.33 105.773C160.025 106.282 159.777 106.822 159.59 107.386C159.487 108.25 159.449 109.122 159.478 109.992C159.347 111.558 158.419 112.955 158.11 114.502C157.923 115.44 157.96 116.377 157.792 117.315C157.511 118.928 156.621 120.372 156.049 121.919C155.047 124.638 155.056 127.619 154.316 130.423C154.226 130.882 154.027 131.313 153.735 131.679C153.239 132.233 152.433 132.364 151.787 132.72C151.271 133.035 150.829 133.456 150.49 133.956C150.151 134.455 149.922 135.022 149.82 135.617C149.624 136.808 149.602 138.021 149.754 139.218L150.335 146.653C150.925 146.4 151.272 145.715 151.815 145.312C152.752 144.562 154.054 144.731 155.215 144.937L156.911 145.247C158.644 145.556 160.527 145.959 161.595 147.328C162.475 145.941 161.979 143.906 163.328 142.987C163.768 142.687 164.321 142.593 164.78 142.331C165.217 142.047 165.58 141.662 165.838 141.208C166.095 140.755 166.24 140.246 166.26 139.724C166.288 138.68 166.145 137.638 165.839 136.639C168.012 135.702 169.361 133.517 170.213 131.314C171.147 128.646 171.824 125.896 172.237 123.1C174.195 112.046 175.984 100.916 176.171 89.6927C176.295 87.818 176.089 85.9361 175.562 84.1326C174.982 82.3512 174.082 80.8416 172.218 80.6353Z" fill="black"/>
<path d="M203.872 68.5963C201.799 70.7718 199.151 72.3131 196.237 73.0406C193.335 73.7568 190.37 74.1932 187.384 74.3439C186.467 74.4933 185.528 74.4127 184.649 74.1095C184.217 73.9425 183.861 73.6209 183.652 73.2071C183.443 72.7932 183.394 72.3163 183.516 71.8686C183.675 71.5993 183.786 71.3042 183.843 70.9966C183.843 70.2278 182.701 70.1621 181.97 70.3872C177.136 71.8873 172.499 74.8502 170.269 79.3977C169.144 82.0335 168.442 84.8309 168.19 87.6862C167.141 95.1872 166.091 102.754 167.497 110.189C168.255 114.136 169.698 117.971 169.782 121.984C169.839 124.235 169.454 126.476 169.473 128.726C169.409 129.514 169.621 130.299 170.073 130.948C170.419 131.351 170.944 131.604 171.188 132.083C171.59 132.87 171.047 133.958 171.581 134.68C172.246 135.561 173.614 134.924 174.522 134.305C179.08 131.208 184.585 129.824 190.064 130.395C196.621 131.098 203.179 134.614 209.567 132.851C209.238 132.374 208.955 131.865 208.724 131.332C205.539 120.869 205.755 109.158 210.523 99.3127C212.144 95.9467 214.27 92.7494 214.926 89.0552C215.178 87.3311 215.2 85.5812 214.991 83.8514C214.769 80.4792 213.759 77.2064 212.041 74.297C210.233 71.4185 207.226 68.9339 203.872 68.5963Z" fill="#C850C0"/>
<path d="M173.492 150.657C172.984 152.027 172.739 153.481 172.771 154.942C172.727 156.336 172.796 157.731 172.977 159.114C173.086 160.298 173.51 161.431 174.204 162.396C174.557 162.871 175.042 163.23 175.599 163.429C176.156 163.627 176.759 163.656 177.333 163.512C177.781 163.323 178.182 163.036 178.506 162.673C178.83 162.309 179.069 161.879 179.206 161.411C179.476 160.471 179.676 159.512 179.806 158.542C180.349 155.729 181.848 153.01 181.876 150.104C181.895 149.759 181.841 149.413 181.717 149.091C181.174 147.9 178.504 146.559 177.202 146.756C175.59 147.009 174.091 149.278 173.492 150.657Z" fill="#FBBEBE"/>
<path opacity="0.1" d="M209.736 79.2101C209.493 81.7136 211.909 83.5982 212.865 85.9141C213.252 86.9999 213.473 88.1378 213.521 89.2896C214.195 97.2874 213.671 105.323 213.146 113.321C213.069 115.984 212.756 118.636 212.209 121.244C210.86 126.71 207.525 131.454 204.293 136.049C203.804 136.801 203.236 137.499 202.598 138.13C201.645 138.904 200.584 139.536 199.45 140.005L188.303 145.415C186.905 146.032 185.576 146.796 184.34 147.694C182.904 148.819 181.776 150.29 181.061 151.969C178.897 150.863 176.649 149.869 174.504 148.763C173.998 148.5 173.426 148.163 173.342 147.6C173.23 146.85 174.017 146.316 174.56 145.725C175.572 144.722 175.881 143.231 176.434 141.918C178.232 137.605 182.738 134.848 184.368 130.479C184.996 128.801 185.183 126.897 186.298 125.491C186.932 124.786 187.646 124.157 188.424 123.616C190.133 122.157 191.702 120.54 193.108 118.787C193.746 118.126 194.269 117.362 194.654 116.527C195.011 115.241 195.135 113.901 195.019 112.571C195.104 108.201 197.08 104.132 198.289 99.9315C199.422 95.9842 199.9 91.8399 201.389 88.005C202.879 84.1702 205.745 80.2415 209.736 79.2101Z" fill="black"/>
<path d="M211.188 79.2101C210.945 81.7136 213.352 83.5982 214.308 85.9141C214.698 86.9994 214.922 88.1374 214.973 89.2896C215.638 97.2874 215.123 105.323 214.598 113.321C214.506 115.986 214.177 118.637 213.614 121.244C212.265 126.71 208.931 131.454 205.699 136.049C205.209 136.801 204.641 137.499 204.003 138.13C203.05 138.904 201.99 139.536 200.855 140.005L189.698 145.415C188.303 146.036 186.975 146.8 185.736 147.694C184.303 148.822 183.175 150.292 182.457 151.969C180.293 150.863 178.054 149.869 175.9 148.763C175.394 148.5 174.822 148.163 174.738 147.6C174.616 146.85 175.403 146.316 175.946 145.725C176.968 144.722 177.277 143.231 177.82 141.918C179.609 137.605 184.125 134.848 185.755 130.479C186.382 128.801 186.57 126.897 187.684 125.491C188.314 124.782 189.029 124.152 189.811 123.616C191.52 122.157 193.088 120.54 194.495 118.787C195.133 118.126 195.655 117.362 196.04 116.527C196.393 115.24 196.516 113.901 196.406 112.571C196.49 108.201 198.457 104.132 199.666 99.9315C200.809 95.9842 201.277 91.8399 202.766 88.005C204.256 84.1702 207.216 80.2415 211.188 79.2101Z" fill="#C850C0"/>
<path d="M199.45 31.5416C195.581 31.0711 191.665 31.8847 188.302 33.8575C188.799 33.8575 189.295 33.8575 189.792 33.97C193.508 34.4195 196.99 36.0257 199.746 38.5618C202.501 41.098 204.392 44.4361 205.15 48.1052C205.909 51.7743 205.498 55.5892 203.974 59.0117C202.45 62.4342 199.892 65.2915 196.659 67.1805C201.252 67.3276 205.725 65.6983 209.15 62.6308C212.575 59.5633 214.687 55.2934 215.049 50.7078C215.41 46.1223 213.993 41.5735 211.092 38.0062C208.191 34.4388 204.028 32.1271 199.469 31.551L199.45 31.5416Z" fill="#46455B"/>
<path d="M204.949 41.4897C205.384 42.4728 205.621 43.5323 205.645 44.6073C205.669 45.6823 205.48 46.7514 205.09 47.753C205.005 47.4999 204.912 47.2467 204.799 46.9935C202.588 42.071 195.787 40.0364 189.595 42.4461C187.949 43.0312 186.445 43.9575 185.181 45.1644C183.917 46.3714 182.922 47.8318 182.26 49.4501C180.687 44.687 183.881 39.2301 189.755 36.9423C195.937 34.5326 202.738 36.5672 204.949 41.4897Z" fill="#46455B"/>
<g opacity="0.1">
<path opacity="0.1" d="M204.987 47.3686C204.702 43.915 203.422 40.6183 201.302 37.8787C199.182 35.1392 196.312 33.0745 193.043 31.9354C191.381 32.3287 189.784 32.9603 188.302 33.8106C188.799 33.8106 189.295 33.8106 189.792 33.9231C193.388 34.3582 196.767 35.8772 199.48 38.2784C202.194 40.6797 204.114 43.8499 204.987 47.3686Z" fill="black"/>
<path opacity="0.1" d="M207.881 34.3075C207.594 30.8547 206.313 27.5591 204.194 24.8199C202.074 22.0808 199.206 20.0155 195.937 18.8743C194.274 19.2898 192.678 19.9402 191.197 20.8058C191.694 20.8058 192.19 20.8058 192.696 20.9183C196.283 21.3501 199.656 22.8611 202.367 25.2517C205.078 27.6423 207.001 30.8 207.881 34.3075Z" fill="black"/>
<path opacity="0.1" d="M207.956 14.8144C207.777 12.7392 207.001 10.7603 205.723 9.11648C204.444 7.4727 202.718 6.23431 200.752 5.55075C199.746 5.79508 198.781 6.18352 197.886 6.70403C198.186 6.70403 198.485 6.70402 198.823 6.77903C200.976 7.04199 203.001 7.94978 204.63 9.38354C206.26 10.8173 207.419 12.7102 207.956 14.8144Z" fill="black"/>
<path opacity="0.1" d="M214.645 44.9308C214.99 49.2206 213.78 53.4913 211.238 56.9621C208.696 60.4329 204.99 62.8719 200.799 63.8332C199.592 65.145 198.196 66.2699 196.659 67.1711C199.43 67.2724 202.187 66.7267 204.711 65.5773C207.236 64.428 209.458 62.7064 211.203 60.5488C212.948 58.3912 214.168 55.8568 214.765 53.1461C215.362 50.4354 215.321 47.6228 214.645 44.9308Z" fill="black"/>
</g>
<path d="M373.139 232.183C371.994 231.235 370.573 230.684 369.089 230.611C367.605 230.539 366.137 230.949 364.905 231.78C363.031 233.167 362.216 235.474 361.448 237.649C360.324 240.865 358.506 243.987 358.207 247.391C357.373 256.767 350.806 264.653 348.839 273.841C348.118 277.123 347.977 280.573 346.619 283.639C345.968 284.985 345.217 286.28 344.37 287.512C341.076 292.695 338.255 298.165 335.939 303.854C334.309 304.351 332.97 305.917 331.668 307.164C329.997 308.763 328 309.979 325.813 310.727C324.921 310.927 324.09 311.335 323.386 311.918C322.45 312.912 322.45 314.515 321.672 315.668C321.119 316.424 320.385 317.027 319.536 317.422C319.479 317.155 319.435 316.886 319.405 316.615C319.208 315.181 319.049 313.746 318.899 312.312C321.08 309.126 322.056 305.267 321.651 301.426C321.246 297.586 319.486 294.015 316.688 291.356C316.515 289.118 316.581 286.867 316.885 284.643C317.023 284.108 317.009 283.545 316.843 283.018C316.678 282.491 316.368 282.021 315.948 281.661C315.489 281.37 314.927 281.305 314.44 281.061C313.734 280.587 313.134 279.97 312.679 279.251C311.363 277.758 309.561 276.779 307.593 276.488C305.625 276.196 303.617 276.61 301.925 277.657C299.302 279.411 297.915 282.524 295.676 284.764C294.515 285.918 293.138 286.827 291.986 287.981C289.681 290.453 288.185 293.57 287.695 296.916C287.214 300.244 287.079 303.612 287.292 306.967C287.269 307.984 287.415 308.998 287.723 309.968C288.057 310.763 288.519 311.498 289.091 312.143C291.836 315.727 295.464 318.534 299.62 320.291C299.649 320.49 299.665 320.69 299.667 320.891C299.667 321.2 299.667 321.51 299.592 321.829L299.133 321.754C297.447 321.547 295.667 321.754 294.103 321.107C291.433 319.953 290.356 316.559 287.723 315.228C287.505 315.112 287.276 315.018 287.039 314.946C286.415 310.577 285.13 306.327 283.227 302.345C282.29 300.47 281.231 298.519 281.119 296.4C281.177 294.43 281.619 292.49 282.421 290.69C284.539 284.25 286.21 277.671 287.423 271C288.273 266.818 289.128 262.637 289.99 258.455C291.153 257.396 292.179 256.196 293.044 254.883C294.849 252.27 295.905 249.212 296.098 246.041C296.182 244.459 295.951 242.877 295.421 241.385C294.89 239.894 294.07 238.522 293.007 237.349C292.538 236.778 291.951 236.314 291.286 235.99C290.622 235.667 289.895 235.491 289.156 235.474C288.52 235.549 287.905 235.754 287.351 236.077C286.797 236.399 286.314 236.832 285.934 237.349C284.79 238.952 283.963 240.76 283.498 242.675C282.562 245.788 281.625 249.032 282.046 252.257C282.43 254.929 283.733 257.827 282.402 260.171C278.018 267.85 274.992 276.485 271.742 284.718C270.903 286.693 270.221 288.73 269.7 290.812C269.049 294.167 268.935 297.604 269.362 300.995C270.134 307.353 271.358 313.648 273.025 319.831C273.709 322.644 274.515 325.617 276.126 327.932C275.554 331.074 275.415 334.279 275.714 337.459C275.752 338.193 275.943 338.912 276.276 339.568C276.813 340.324 277.464 340.991 278.206 341.547C279.21 342.482 280.004 343.622 280.532 344.89C281.06 346.158 281.312 347.525 281.269 348.898C281.314 351.465 281.812 354.004 282.74 356.399C284.978 363.084 287.227 369.769 289.185 376.548C289.609 377.803 289.843 379.115 289.878 380.439C289.878 382.314 288.988 384.19 289.4 386.065C289.714 386.912 289.971 387.78 290.168 388.662C290.183 389.343 290.095 390.023 289.906 390.678C288.688 395.976 285.166 408.193 285.775 413.603L286.983 413.181C286.468 420.344 284.257 427.358 283.451 434.521C282.922 439.737 282.979 444.995 283.62 450.198C283.969 452.524 284.17 454.869 284.22 457.221C284.22 459.33 283.882 461.412 283.798 463.512C283.756 466.334 283.922 469.154 284.295 471.951C284.661 476.339 285.36 480.692 286.384 484.974C288.332 492.25 287.021 499.826 287.236 507.365C287.488 512.623 287.434 517.892 287.077 523.145C286.88 525.367 286.571 527.58 286.505 529.811C286.309 536.431 288.267 543.022 287.573 549.604C287.245 552.689 286.459 556.168 288.398 558.596C289.016 559.356 289.85 559.9 290.505 560.621C290.862 560.957 291.125 561.38 291.268 561.849C291.411 562.318 291.429 562.816 291.32 563.294C291.067 564.034 290.384 564.578 290.224 565.356C290.046 566.575 291.386 567.419 292.548 567.813L292.876 567.907C292.851 568.314 292.913 568.721 293.057 569.102C293.2 569.483 293.423 569.83 293.709 570.12C294.436 570.675 295.301 571.019 296.21 571.113L311.199 574.02C314.543 574.667 318.178 575.276 321.316 574.142C321.437 574.596 321.68 575.008 322.019 575.333C322.743 575.887 323.605 576.23 324.511 576.327L339.499 579.233C343.321 579.974 347.518 580.658 350.928 578.764C351.911 578.239 352.741 577.467 353.335 576.524C353.814 575.63 354.091 574.642 354.148 573.63C354.205 572.617 354.039 571.605 353.663 570.663C353.376 569.699 352.793 568.849 351.996 568.235C350.932 567.65 349.721 567.389 348.511 567.485C347.484 567.56 346.453 567.403 345.495 567.025C345.201 566.871 344.945 566.653 344.745 566.388C345.495 565.45 346.216 564.513 346.9 563.575C346.253 563.425 345.963 562.534 345.804 561.878C343.874 552.145 346.581 542.188 346.975 532.249C347.174 527.273 346.784 522.291 345.813 517.407C345.448 515.531 345.007 513.75 344.745 511.893C343.368 502.208 347.05 492.372 345.879 482.658C345.326 478.12 347.274 473.376 347.968 468.857C348.577 464.844 348.183 460.756 347.79 456.668L344.689 424.789C344.267 420.485 343.827 416.078 341.991 412.159C341.074 409.968 340.64 407.604 340.717 405.23C344.464 403.083 347.911 400.129 352.146 400.12C352.961 397.026 350.619 387.265 349.251 384.377C343.916 372.992 341.807 360.36 343.153 347.857C343.649 343.366 341.86 338.837 342.459 334.355C342.549 333.305 342.842 332.283 343.321 331.345C343.563 330.881 343.918 330.485 344.354 330.195C344.789 329.905 345.292 329.73 345.813 329.686C345.551 326.995 345.204 324.285 344.745 321.594C346.287 320.02 347.554 318.197 348.492 316.203C350.441 312.124 351.303 307.624 352.436 303.254C354.497 295.556 357.645 288.206 360.136 280.648C362.628 273.091 362.141 265.103 363.93 257.339C364.941 253.062 367.557 249.339 371.237 246.941C372.661 246.003 374.282 245.281 375.265 243.894C376.007 242.753 376.398 241.42 376.39 240.059C376.474 238.586 376.225 237.113 375.663 235.749C375.1 234.386 374.237 233.167 373.139 232.183ZM315.883 560.237C316.164 559.853 316.436 559.468 316.688 559.065C315.695 559.009 314.44 558.427 314.318 557.434C314.288 556.439 314.399 555.444 314.646 554.48C314.929 552.756 314.823 550.991 314.337 549.314C313.991 548.151 313.475 547.035 313.101 545.873C312.734 544.575 312.443 543.257 312.229 541.925C311.311 537.163 309.882 532.514 307.967 528.058C306.093 523.736 307.546 519.019 307.564 514.303C307.564 512.081 307.227 509.812 307.789 507.655C308.117 506.38 308.726 505.199 309.072 503.905C309.841 500.933 308.876 497.81 307.93 494.894C311.63 486.137 312.126 476.142 312.885 466.616C313.31 461.29 313.734 455.977 314.159 450.676C314.347 448.304 314.562 445.838 315.808 443.813C318.021 450.585 319.34 457.617 319.733 464.731C319.772 466.787 320.01 468.835 320.445 470.844C321.035 473.067 322.187 475.082 322.956 477.239C324.66 481.983 324.483 487.168 325.251 492.147C325.56 494.163 326.028 496.151 326.328 498.167C327.621 507.065 325.532 516.075 323.452 524.823C322.178 530.186 322.384 536.121 322.094 541.625C321.822 546.904 321.541 552.183 321.672 557.471C321.672 559.084 321.775 560.734 321.757 562.375C321.247 562.314 320.734 562.286 320.22 562.29C319.193 562.365 318.162 562.208 317.204 561.831C316.61 561.448 316.149 560.892 315.883 560.237Z" fill="url(#paint2_linear_104_90)"/>
<path d="M348.558 567.551C349.766 567.458 350.976 567.715 352.043 568.291C352.835 568.906 353.417 569.751 353.71 570.71C354.084 571.646 354.247 572.653 354.189 573.659C354.131 574.665 353.852 575.646 353.373 576.533C352.777 577.471 351.947 578.237 350.965 578.755C347.555 580.63 343.359 579.965 339.537 579.233L324.548 576.355C323.645 576.276 322.78 575.952 322.047 575.417C321.592 574.916 321.304 574.285 321.225 573.613C321.146 572.94 321.28 572.26 321.607 571.667C322.26 570.483 323.234 569.508 324.417 568.854C328.726 566.172 333.785 565.103 338.731 564.531C340.605 564.306 342.356 563.706 343.762 565.01C344.511 565.694 344.473 566.547 345.523 567.1C346.489 567.473 347.525 567.627 348.558 567.551Z" fill="#3F3D56"/>
<path d="M320.239 562.394C321.444 562.3 322.651 562.558 323.714 563.134C324.512 563.744 325.096 564.591 325.382 565.553C325.76 566.488 325.926 567.495 325.869 568.501C325.813 569.508 325.534 570.49 325.054 571.376C324.456 572.312 323.626 573.077 322.646 573.598C319.236 575.473 315.04 574.808 311.208 574.076L296.22 571.189C295.316 571.11 294.451 570.786 293.719 570.251C293.262 569.751 292.973 569.121 292.892 568.448C292.811 567.775 292.943 567.094 293.269 566.5C293.943 565.316 294.932 564.342 296.126 563.688C300.426 561.015 305.494 559.984 310.44 559.375C312.314 559.14 314.065 558.549 315.471 559.843C316.211 560.528 316.183 561.381 317.222 561.934C318.181 562.31 319.212 562.467 320.239 562.394Z" fill="#3F3D56"/>
<path d="M316.548 402.998C307.884 403.034 299.234 403.695 290.665 404.977C290.098 405.029 289.544 405.175 289.025 405.408C287.208 406.346 287.152 408.896 287.199 410.94C287.32 419.257 284.482 427.311 283.545 435.562C283.008 440.742 283.061 445.967 283.704 451.136C284.044 453.45 284.244 455.783 284.304 458.121C284.304 460.203 283.957 462.275 283.873 464.366C283.829 467.155 283.992 469.945 284.36 472.71C284.727 477.07 285.425 481.396 286.449 485.65C288.388 492.879 287.077 500.408 287.283 507.89C287.533 513.115 287.473 518.349 287.105 523.567C286.908 525.78 286.599 527.974 286.533 530.196C286.337 536.759 288.285 543.323 287.592 549.886C287.264 552.943 286.468 556.449 288.407 558.812C289.025 559.562 289.859 560.106 290.505 560.828C290.859 561.16 291.121 561.578 291.265 562.041C291.41 562.505 291.432 562.998 291.33 563.472C291.067 564.213 290.346 564.757 290.234 565.525C290.046 566.735 291.386 567.579 292.548 567.963C296.972 569.322 301.718 569.21 306.073 567.643C310.428 566.076 314.159 563.139 316.707 559.271C315.714 559.215 314.459 558.634 314.337 557.649C314.307 556.661 314.418 555.672 314.665 554.715C314.952 553.004 314.846 551.25 314.356 549.586C314.019 548.423 313.494 547.317 313.129 546.164C312.763 544.875 312.472 543.566 312.257 542.244C311.345 537.509 309.919 532.887 308.004 528.461C306.131 524.167 307.592 519.479 307.611 514.81C307.611 512.597 307.283 510.337 307.836 508.199C308.164 506.924 308.773 505.752 309.129 504.449C309.897 501.495 308.932 498.401 307.986 495.504C311.733 486.803 312.201 476.827 312.96 467.375L314.243 451.436C314.431 449.082 314.656 446.626 315.892 444.619C318.105 451.343 319.424 458.329 319.817 465.397C319.848 467.444 320.084 469.482 320.52 471.482C321.11 473.676 322.253 475.683 323.03 477.83C324.726 482.518 324.548 487.684 325.316 492.635C325.625 494.641 326.084 496.61 326.384 498.617C327.677 507.459 325.578 516.432 323.489 525.105C322.215 530.43 322.412 536.356 322.122 541.804C321.841 547.045 321.56 552.286 321.691 557.537C321.803 562.366 322.178 567.551 319.583 571.601C322.487 573.083 325.485 574.592 328.726 574.873C332.497 575.074 336.219 573.946 339.246 571.686C342.242 569.43 344.846 566.696 346.956 563.594C346.3 563.444 346.019 562.553 345.86 561.906C343.93 552.239 346.647 542.31 347.05 532.465C347.248 527.523 346.861 522.576 345.897 517.726C345.532 515.85 345.082 514.078 344.82 512.24C343.462 502.62 347.143 492.841 345.982 483.174C345.438 478.655 347.387 473.948 348.08 469.448C348.689 465.463 348.305 461.403 347.911 457.39L344.829 425.745C344.417 421.46 343.977 417.081 342.141 413.19C339.949 408.502 341.307 402.726 341.073 397.56C333.335 400.97 325.001 402.818 316.548 402.998Z" fill="#46455B"/>
<path d="M334.647 309.283C337.196 302.314 340.508 295.647 344.52 289.406C345.366 288.18 346.118 286.892 346.769 285.552C348.136 282.514 348.277 279.082 348.998 275.82C351.012 266.687 357.588 258.849 358.431 249.566C358.731 246.181 360.549 243.078 361.682 239.881C362.441 237.715 363.303 235.427 365.139 234.049C366.372 233.226 367.836 232.82 369.316 232.891C370.796 232.962 372.215 233.505 373.364 234.442C374.485 235.414 375.367 236.63 375.944 237.998C376.521 239.365 376.776 240.846 376.689 242.328C376.693 243.679 376.302 245.002 375.565 246.135C374.572 247.513 372.961 248.254 371.537 249.163C367.865 251.532 365.245 255.226 364.221 259.477C362.422 267.193 362.909 275.116 360.408 282.627C357.907 290.137 354.787 297.45 352.698 305.13C351.527 309.471 350.694 313.943 348.736 317.994C346.778 322.044 343.452 325.701 339.078 326.742C338.802 323.954 338.081 321.228 336.942 318.669C335.63 315.706 333.541 312.293 334.647 309.283Z" fill="#A0616A"/>
<path d="M287.517 319.981C287.155 314.503 285.743 309.145 283.358 304.201C282.421 302.326 281.372 300.451 281.259 298.304C281.317 296.346 281.759 294.418 282.562 292.631C284.683 286.22 286.357 279.669 287.573 273.025L290.159 260.555C291.316 259.504 292.338 258.313 293.203 257.011C295.012 254.42 296.072 251.38 296.267 248.225C296.353 246.652 296.125 245.077 295.596 243.592C295.067 242.108 294.247 240.744 293.185 239.581C292.71 239.02 292.121 238.567 291.456 238.254C290.792 237.94 290.069 237.772 289.334 237.762C288.698 237.837 288.083 238.042 287.529 238.365C286.974 238.687 286.492 239.12 286.112 239.637C284.986 241.217 284.175 243 283.723 244.888C282.786 247.982 281.85 251.198 282.262 254.404C282.636 257.058 283.948 259.936 282.608 262.262C278.215 269.903 275.189 278.473 271.929 286.64C271.095 288.603 270.416 290.628 269.896 292.697C269.239 296.032 269.119 299.45 269.54 302.823C270.307 309.153 271.528 315.42 273.194 321.575C274.13 325.438 275.301 329.639 278.543 331.955C281.213 327.679 283.91 323.488 287.517 319.981Z" fill="#A0616A"/>
<path d="M305.794 321.06C314.677 321.06 321.878 313.852 321.878 304.961C321.878 296.07 314.677 288.862 305.794 288.862C296.91 288.862 289.709 296.07 289.709 304.961C289.709 313.852 296.91 321.06 305.794 321.06Z" fill="#A0616A"/>
<path d="M299.789 322.616C299.695 325.551 298.421 328.298 297.166 330.961C296.407 332.564 295.414 334.355 293.681 334.711C298.559 336.664 303.621 338.119 308.791 339.053C310.561 339.45 312.384 339.554 314.187 339.362C315.704 339.091 317.16 338.551 318.487 337.768C321.398 336.116 323.896 333.822 325.79 331.06C327.684 328.299 328.925 325.142 329.419 321.829C327.435 322.088 325.429 322.141 323.433 321.988C322.304 322.019 321.207 321.612 320.37 320.853C319.842 320.119 319.542 319.245 319.508 318.341C319.152 315.678 318.868 313.009 318.656 310.333C314.7 310.487 310.807 311.38 307.18 312.968C305.681 313.624 304.22 314.384 302.674 314.946C301.737 315.284 299.03 315.35 298.374 315.959C297.363 316.925 299.845 320.591 299.789 322.616Z" fill="#A0616A"/>
<path d="M307.855 331.617C307.46 329.533 306.422 327.625 304.885 326.163C303.349 324.701 301.393 323.758 299.292 323.469C297.606 323.273 295.826 323.469 294.262 322.841C291.592 321.688 290.468 318.322 287.882 317C285.297 315.678 281.943 316.906 280.032 319.119C278.121 321.332 277.316 324.341 276.735 327.154C275.834 331.055 275.54 335.072 275.864 339.062C275.908 339.794 276.103 340.509 276.435 341.162C276.972 341.912 277.619 342.576 278.355 343.131C279.359 344.056 280.153 345.186 280.681 346.445C281.21 347.703 281.461 349.061 281.419 350.426C281.452 352.994 281.947 355.535 282.88 357.927C285.119 364.565 287.367 371.213 289.316 377.945C289.741 379.19 289.975 380.493 290.009 381.808C289.962 383.683 289.072 385.559 289.531 387.387C289.837 388.23 290.09 389.091 290.29 389.965C290.306 390.644 290.217 391.32 290.028 391.972C288.8 397.241 285.278 409.374 285.887 414.747C293.878 411.803 305.934 410.059 314.403 409.121C316.732 408.852 319.075 408.715 321.419 408.708C327.04 408.708 332.932 409.768 338.178 407.705C343.04 405.83 347.078 401.311 352.305 401.292C353.12 398.226 350.778 388.531 349.42 385.662C344.091 374.362 341.99 361.806 343.349 349.385C343.836 344.922 342.057 340.422 342.665 335.968C342.752 334.925 343.042 333.909 343.518 332.977C343.764 332.514 344.121 332.119 344.558 331.83C344.995 331.54 345.497 331.364 346.019 331.317C345.396 324.335 344.03 317.438 341.944 310.746C341.185 308.364 339.818 305.608 337.326 305.448C335.078 305.298 333.419 307.324 331.799 308.908C330.126 310.497 328.128 311.703 325.944 312.443C325.049 312.64 324.214 313.049 323.508 313.634C322.572 314.618 322.571 316.222 321.794 317.384C320.445 319.466 316.998 319.663 316.173 321.988C316 322.672 315.878 323.368 315.808 324.069C315.425 325.438 314.658 326.668 313.597 327.614C312.044 329.404 310.071 330.78 307.855 331.617Z" fill="#2F2E41"/>
<path d="M317.026 286.593C317.164 286.062 317.149 285.503 316.983 284.981C316.818 284.458 316.508 283.993 316.089 283.639C315.595 283.407 315.089 283.204 314.571 283.03C313.869 282.551 313.272 281.932 312.82 281.211C311.501 279.723 309.7 278.749 307.734 278.461C305.769 278.173 303.764 278.589 302.075 279.636C299.442 281.38 298.065 284.474 295.817 286.696C294.665 287.849 293.288 288.749 292.126 289.903C289.826 292.353 288.326 295.447 287.826 298.773C287.345 302.081 287.21 305.431 287.424 308.768C287.396 309.779 287.541 310.787 287.854 311.749C288.191 312.537 288.653 313.266 289.222 313.906C292.078 317.639 295.905 320.514 300.286 322.213C304.688 323.769 309.831 323.582 313.766 321.06C314.16 320.841 314.485 320.517 314.703 320.122C314.89 319.537 314.89 318.907 314.703 318.322C314.233 315.986 314.458 313.564 315.349 311.355C316.13 309.817 316.824 308.236 317.429 306.62C317.814 304.769 317.864 302.864 317.579 300.995C317.12 296.213 316.286 291.393 317.026 286.593Z" fill="#46455B"/>
<path opacity="0.1" d="M591.7 34.2888C592.51 33.1336 592.957 31.7622 592.983 30.3508C592.983 21.7997 575.577 14.8801 554.106 14.8801C532.635 14.8801 515.23 21.7997 515.23 30.3508C515.247 31.941 515.784 33.4819 516.757 34.7388C492.85 37.4111 476.747 42.4179 476.747 48.1656C476.747 56.7073 512.345 63.6363 556.373 63.6363C600.402 63.6363 636 56.7073 636 48.1656C636.028 42.1179 617.929 36.8204 591.7 34.2888Z" fill="#C850C0"/>
<path opacity="0.1" d="M114.878 51.166C115.688 50.0107 116.135 48.6393 116.161 47.228C116.161 38.6769 98.7555 31.7572 77.2845 31.7572C55.8135 31.7572 38.4081 38.6769 38.4081 47.228C38.447 48.8269 39.0098 50.3687 40.0099 51.616C16.1033 54.2882 0 59.2951 0 65.0427C0 73.5845 35.6445 80.5135 79.6264 80.5135C123.608 80.5135 159.253 73.5845 159.253 65.0427C159.206 58.9951 141.107 53.6975 114.878 51.166Z" fill="#C850C0"/>
<path opacity="0.1" d="M388.174 38.1705C390.357 36.9048 393.308 38.1143 394.807 40.1583C396.306 42.2023 396.68 44.8464 397.102 47.303C397.936 52.8537 398.544 59.2201 394.807 63.3925C400.915 44.8558 418.479 30.6602 437.899 28.5881" stroke="#C850C0" stroke-width="3" stroke-miterlimit="10"/>
<path opacity="0.1" d="M75.7294 132.851C77.1346 132.036 79.0269 132.851 79.9918 134.127C80.8511 135.515 81.3591 137.092 81.4719 138.721C82.0059 142.293 82.4087 146.381 80.0012 149.035C82.0556 143.082 85.7403 137.828 90.6349 133.87C95.5295 129.913 101.437 127.412 107.683 126.654" stroke="#C850C0" stroke-width="3" stroke-miterlimit="10"/>
<path opacity="0.1" d="M497.281 160.98C498.686 160.164 500.579 160.98 501.544 162.255C502.403 163.643 502.911 165.22 503.024 166.849C503.558 170.422 503.96 174.51 501.553 177.163C503.607 171.211 507.292 165.956 512.187 161.999C517.081 158.042 522.989 155.541 529.235 154.782" stroke="#C850C0" stroke-width="3" stroke-miterlimit="10"/>
<defs>
<linearGradient id="paint0_linear_104_90" x1="330.283" y1="471.472" x2="330.283" y2="-30.0281" gradientUnits="userSpaceOnUse">
<stop stop-color="#4158D0"/>
<stop offset="1" stop-color="#C850C0"/>
</linearGradient>
<linearGradient id="paint1_linear_104_90" x1="177.202" y1="254.207" x2="177.202" y2="-0.0280797" gradientUnits="userSpaceOnUse">
<stop stop-color="#808080" stop-opacity="0.25"/>
<stop offset="0.54" stop-color="#808080" stop-opacity="0.12"/>
<stop offset="1" stop-color="#808080" stop-opacity="0.1"/>
</linearGradient>
<linearGradient id="paint2_linear_104_90" x1="72447.5" y1="158626" x2="86269.1" y2="157199" gradientUnits="userSpaceOnUse">
<stop stop-color="#808080" stop-opacity="0.25"/>
<stop offset="0.54" stop-color="#808080" stop-opacity="0.12"/>
<stop offset="1" stop-color="#808080" stop-opacity="0.1"/>
</linearGradient>
</defs>
</svg>
