<svg width="14" height="15" viewBox="0 0 14 15" fill="none" xmlns="http://www.w3.org/2000/svg">
<path d="M5.21889 3.53582L6.22222 2.56111V11.2511C6.22222 11.4499 6.30417 11.6407 6.45003 11.7813C6.59589 11.9219 6.79372 12.0009 7 12.0009C7.20628 12.0009 7.40411 11.9219 7.54997 11.7813C7.69583 11.6407 7.77778 11.4499 7.77778 11.2511V2.56111L8.78111 3.53582C8.85342 3.6061 8.93944 3.66188 9.03422 3.69994C9.129 3.73801 9.23066 3.75761 9.33333 3.75761C9.43601 3.75761 9.53767 3.73801 9.63245 3.69994C9.72723 3.66188 9.81325 3.6061 9.88556 3.53582C9.95846 3.46612 10.0163 3.38319 10.0558 3.29183C10.0953 3.20046 10.1156 3.10246 10.1156 3.00348C10.1156 2.9045 10.0953 2.8065 10.0558 2.71513C10.0163 2.62376 9.95846 2.54083 9.88556 2.47113L7.55222 0.221784C7.47992 0.151508 7.39389 0.0957289 7.29912 0.0576635C7.20434 0.019598 7.10268 0 7 0C6.89732 0 6.79566 0.019598 6.70088 0.0576635C6.60611 0.0957289 6.52008 0.151508 6.44778 0.221784L4.11444 2.47113C3.96799 2.61232 3.88571 2.80381 3.88571 3.00348C3.88571 3.20315 3.96799 3.39464 4.11444 3.53582C4.2609 3.67701 4.45954 3.75633 4.66667 3.75633C4.87379 3.75633 5.07243 3.67701 5.21889 3.53582ZM11.6667 5.25283H10.1111C9.90483 5.25283 9.707 5.33182 9.56114 5.47243C9.41528 5.61304 9.33333 5.80375 9.33333 6.00261C9.33333 6.20146 9.41528 6.39217 9.56114 6.53278C9.707 6.6734 9.90483 6.75239 10.1111 6.75239H11.6667C11.8729 6.75239 12.0708 6.83139 12.2166 6.972C12.3625 7.11261 12.4444 7.30332 12.4444 7.50217V12.7507C12.4444 12.9495 12.3625 13.1402 12.2166 13.2808C12.0708 13.4214 11.8729 13.5004 11.6667 13.5004H2.33333C2.12705 13.5004 1.92922 13.4214 1.78336 13.2808C1.6375 13.1402 1.55556 12.9495 1.55556 12.7507V7.50217C1.55556 7.30332 1.6375 7.11261 1.78336 6.972C1.92922 6.83139 2.12705 6.75239 2.33333 6.75239H3.88889C4.09517 6.75239 4.293 6.6734 4.43886 6.53278C4.58472 6.39217 4.66667 6.20146 4.66667 6.00261C4.66667 5.80375 4.58472 5.61304 4.43886 5.47243C4.293 5.33182 4.09517 5.25283 3.88889 5.25283H2.33333C1.71449 5.25283 1.121 5.48981 0.683418 5.91164C0.245833 6.33348 0 6.90561 0 7.50217V12.7507C0 13.3472 0.245833 13.9193 0.683418 14.3412C1.121 14.763 1.71449 15 2.33333 15H11.6667C12.2855 15 12.879 14.763 13.3166 14.3412C13.7542 13.9193 14 13.3472 14 12.7507V7.50217C14 6.90561 13.7542 6.33348 13.3166 5.91164C12.879 5.48981 12.2855 5.25283 11.6667 5.25283Z" fill="white"/>
</svg>
